<?xml version="1.0" encoding="UTF-8"?>
<svg id="Layer_1" xmlns="http://www.w3.org/2000/svg" version="1.1" viewBox="0 0 370.2 490.5">
  <!-- Generator: Adobe Illustrator 30.3.0, SVG Export Plug-In . SVG Version: 2.1.3 Build 182)  -->
  <defs>
    <style>
      .st0 {
        fill: #f04f29;
      }

      .st1 {
        fill: #131417;
      }
    </style>
  </defs>
  <path class="st1" d="M329,284.9v-41.1h-20.6v-82.3h-41.1v41.1H61.7v41.1h-20.6v41.1H0v41.1h20.6v164.5h329v-164.5h20.6v-41.1h-41.2ZM131.6,408.3v69.9h-57.6v-98.7h57.6v28.8h0Z"/>
  <polygon class="st0" points="102.8 367.2 61.7 367.2 61.7 408.3 61.7 449.4 61.7 490.5 102.8 490.5 144 490.5 144 449.4 144 408.3 144 367.2 102.8 367.2"/>
  <circle class="st1" cx="93.5" cy="430.2" r="13.8"/>
  <polygon class="st0" points="80.1 64.5 191.8 0 191.8 42.8 290.1 42.8 290.1 86.1 191.8 86.1 191.8 128.9 80.1 64.5"/>
</svg>