<?xml version="1.0" encoding="UTF-8"?>
<svg id="Layer_1" xmlns="http://www.w3.org/2000/svg" version="1.1" viewBox="0 0 1920 343.6">
  <!-- Generator: Adobe Illustrator 30.3.0, SVG Export Plug-In . SVG Version: 2.1.3 Build 182)  -->
  <defs>
    <style>
      .st0 {
        fill: #f7f3ef;
      }
    </style>
  </defs>
  <path class="st0" d="M1898.9,181.9c-20.4-7.8-43.3-6.2-64.8-8.3-74,.3-148.2-9.4-222-1.9-17.5,1.9-34.8,5.2-51.8,10-22.5,6.3-44.4,15.1-68,16-14.2.5-31.4,1.4-42.3-8.9-1.9-1.6-3.7-4.3-2.5-6.4,7.2-7.4,16.9-12.6,22.5-21.5,6.6-8.3,4.2-22.3-7.9-23.4-16.9-2.5-31.7,14.2-30.9,30.5,0,5.3,3.4,11.9-2.2,15.4-19.2,12.9-37.6,27.1-56.9,40-11.5,9.9,1.1-23.7-30.2-32.6-7.8-2-16.1-1.2-24.2-2.2-11.6-.3-1.4-8.2,1-13,4.9-7.5,10.2-16.9,10.3-25.9.4-8.2-7.2-14.6-15-10.3-13.7,8.2-26.6,26.2-22.4,42.7,1.8,4.1,3,8.6-1.6,11.2-11.9,8.3-23.8,17.3-37.1,22.9-24.4,5.8-20-26.4-12.6-39.8,3.6-9.8,9.2-14.4,19.2-17.5,5.2-2.5,10.9-5.6,13.3-10.9,1.8-4.2-1.8-8.6-6.4-8.2-9.9.4-16.7,8.3-23.7,14.5-11,6.1-24.6,6.1-36.8,9.2-26.2,4.2-49.6,17.9-70.2,34.2-14.9,6.7-29.9,13.4-43.4,22.6-8.8,7.5,6.2-60.9,7.9-65,1-4.1,3.6-7.3,7.4-9.2,25.1-13.6,49-32.4,52.6-60.6,1.5-13.7-.8-31.3-13.6-39.1-23.3-8-28.7,25.9-33.7,41.6-4.6,16.9-10.1,33.7-16.7,50-2,5.1-7.2,7.2-11.8,9.2-19.2,8.9-39.8,16.5-59.2,25.9-6.1,3.3-5.6.4-3.2-5,1.3-3.5,2.6-7.1,3.6-10.8,3.3-9.5,2.3-20.1,5.8-29.4,13.9-14.2,33.9-26.3,39.6-46.5,5.8-17.6-9-29-24.8-19.2-19.6,11.3-23,34.9-24.6,56-1.2,8.4-10.9,11.1-17,15.6-20.7,12.7-45.6,22.5-69.4,13.1-3.7-1.9-11.7-1.4-13.1-5.5,6.8-16.5,19.4-35.7,11.7-53.2-6.2-14.9-22.9-21-37.2-26-42.5-15.7-88.2-10-131,1.1-75,18.1-138.8,66.7-189,123.9-13,14.6-26.4,29.3-41.2,42.1-30.4,27.1-78.7,49.3-117.1,26.1-6.6-4.8-19.3-13.5-11.6-22.2,8.9-12.3,17.2-25.3,18.5-40.9.8-20.3-18.8-22.1-28.2-6.5-20.1,29.4-1.3,46.9-9.8,55.9-7.2,7.1-16.8,16.1-27.6,13.6-14.1-5.2,6.6-54.5,5.3-67.7.2-7.5-2.7-17-10.8-19.2-3.4-.9-7.5,0-10.9,1.7-.7.3-1.2.5-1.9.7-2.5.9-2.3-2.3-1.8-4.1,2.7-14.3,5.1-28.9,7.9-43.3,1.2-4.9,4.9-8.4,7.9-12.2,15.8-19.9,30.3-42,35.4-67.2,6.5-41.3-33.7-20.9-41.1,3.9-7.6,20.7-4.7,43.1-9.8,64.3-2,7.5-8.9,11.9-13.8,17.4-12.7,12.4-24.1,26.1-33.8,40.9-5.8,8.6-2.3-5.6-2.4-8.8,3-20-1.3-40.9,2.2-60.6,1.7-3,5.1-4.5,7.8-6.4,10.8-7.2,20.7-17.5,27-28.7,7.5-10.4,5.2-26.6-10.4-20.8-13.1,5.9-23.8,18.8-29.6,32-2.9,5.6-2.3,12.7-6.3,17.6-11.4,7.6-23.8,14.2-35.5,21.8-55,31.8-159.7,67.7-221.8,56.1-3.3,0-6.2,2.5-4.9,5.6,1,2.3,4.6,3.3,7.4,3.8,15.8,3.6,31.9,4.3,47.8,1,71.3-11.1,141.6-33.7,201.9-74.3,4.3-2.9,6.6-2,6.2,2.9,0,20.1.7,40.3-2.2,60.3-.9,5.2-.8,10.9-3.2,15.7-6.1,8.7-14.8,15.6-20.7,24.5-10.9,17.3-26,47.6-21.4,67.7,3.2,9.6,14.9,10.5,21.6,3.7,10.2-9.4,13.5-23.7,17.6-36.3,5.7-17.3,8.1-35.6,12.3-53.3,1.2-3.1,3.6-5.6,5.8-8,14.3-17,25.4-39.2,43.7-52-.6,14.2-5.2,29.2-7.2,43.6-1.9,9.2-9.7,15.7-14.2,23.7-8.4,11.6-37.6,70.3-10.5,68.2,8.2-4.2,13.3-13,17.7-20.9,6.8-14.6,7.8-31.1,11.3-46.7,1-4.5,1.2-9.2,3.5-13.5,2.7-5,9.6-11.6,15.2-11.3,8.4,3.8,3.4,16.4,2.2,23.4-3,16.6-9.2,33.6-7.5,50.6,3.9,20.9,29.5,14.5,40.9,3.4,13.2-14,10.9-1.9,23.6,6.1,69.4,43.2,138-27.7,182.8-75.7,64.5-73.3,135.8-113.3,233.5-123.7,28-1.9,56.6,3.8,82.2,15.2,12.6,4.8,21.4,17.5,17.2,31-2.3,7.9-10.9,33.6-19.7,34.4-23.3,1.6-45.4,15.9-58.2,35.2-6.7,9.3-9.4,28.4,4.4,32.5,10,1.4,19.2-5.2,27.6-9.8,11.8-6.7,22.3-15.9,27.5-28.6,3.4-5.8,4.2-14.3,9.5-18.5,8-1.6,17.6,4.2,25.9,5.2,22.9,5.8,45.8-4.7,65.4-15.9,3.6-1.4,12.8-10.7,11.5-1.6-2.5,14.2-7,28.4-13.4,41.4-17.3,13-35.6,25.9-46.4,45.5-6.2,10.6-12.9,21.3-15.7,33.4-5.2,25.7,21.8,38.7,35.8,14.5,12.8-21.8,22.9-45,29.8-69.3,2.5-6.7,2.4-15.5,8.9-19.8,22.5-11.9,46.5-21.5,69.7-30.6,1.8,0,1.1,2.9.8,4.4-1.5,6.2-2.8,12.5-3.9,18.8-2.7,15.6-4.3,31.3-6.1,47-1.5,7.8-9.6,11.6-14.2,17.5-9.5,10.4-17.1,22.4-23.4,34.9-8.6,14.5-18.8,47.1,9.2,44.1,17.5-5.3,26-24.3,30.5-40.8,3.4-13.3,4.6-27,5.8-40.6.2-3,1-6,3.2-8.2,9.8-7.8,20.9-15.2,32.7-19.4,2.3,1.4-.9,5.7-.8,8-1.8,10.5,3.6,22.6,13.5,27,17.2,7.2,41.4-6,49.5-22.1,8-14.4-.5-35.1-18-35.9-12.5,0,13.2-9.8,15.8-11.1,14.5-5.8,30-7.9,45.2-11.1,1.3-.3,3.2-.7,4.2-.3,1.4.8.3,2.6-.2,3.9-11.5,19.8-11.1,58.4,20.4,53.3,9.2-1.8,16.9-7.6,24.6-12.6,8.4-4.9,16.1-10.9,24-16.5,5.6-2.2,11.5,1.6,17.3,1.3,9.2.6,19.9-.6,27.5,4.5,9.4,6.4,13.8,21.4,8.6,31.5-4.7,5.7-11.8,8.9-16.2,14.9-10.9,12.9,2.7,22.1,13,10.3,5.9-5.5,8.3-13.6,13.5-19.6,17.1-12.5,35.1-24.1,52-37,41.2-33.2,1.2,16,94.9,2.3,13-2.3,25.5-6.6,38.1-10.6,91.1-28.3,187.3-10.8,280.9-11.5,11.2.4,22.5,1.4,33.9,2.3,11,.3,21.7,3.4,32.6,4.8,4.1,0,5.2-5.8,1.4-7.6h-.2l.2.2h0l.2.4ZM1111.4,123.9c5.7-15.5,9.3-31.6,14.5-47.3,2.6-7.2,4.2-15.7,10.1-21,3.7-3.3,8-2.1,10.6,2,6.2,9.8,6.8,22.3,4.2,33.3-2.1,9-7.3,16.8-13.5,23.4-7.6,8.1-17.1,15-26.9,20.8-1,.5-1.7,1.1-2.6.8-.8-.8.6-3.2,1.2-5.5.8-2.1,1.6-4.2,2.3-6.2v-.2h.1ZM1031.6,112c1.4-13.2,3.8-28.1,13.4-37.6,14.4-12.9,24.7-6.5,14.8,11.3-6.3,10.9-15.9,19.8-25.2,27.9-2.3,2-3.6,2.3-3-1.5v-.2h0ZM352.2,97c2.4-21.4.6-47.4,18.3-62.7,2.7-2.2,7.8-6.8,11.4-4.4,2.1,1.9,1.6,5.8,1.4,8.4-2.4,19.1-11.8,36.7-22.4,52.5-2.2,3.2-4.4,6.4-6.7,9.5-.5.8-1.5,2-2,2.2-1.1.3-.2-3.4,0-5.3v-.2h0ZM323.4,53.7c1-.6.3.4,0,0h0ZM309.8,62.4c3.5-3.7,18.8-16.1,11.7-2.4-5.8,11-14.7,20.7-24.8,28-.8.6-2.8,2.3-2.9.5,2.4-10,8.7-18.9,15.9-26h0ZM273.4,214.9c-3.8,18.7-8.7,37.4-16.6,54.7-1.9,4.1-7.5,14.2-12.7,10.2-3.2-4.3-.2-14.5,1-19.4,4.4-13.8,9.5-27.7,17.2-40.2,3-4.7,6.6-9.2,10.3-13.3.6-.7,1.8-1.8,2.1-1.5.8.5,0,3-.4,5.2-.3,1.4-.6,2.7-.8,4.2v.2h-.1ZM321.4,217.5c-2.4,14.3-5.1,29.2-14.9,40.5-1.5,1.9-4.2,4.8-4.3.5.5-15.2,11.8-37.7,19.4-51,1.1-2,2.5-3.8,1.8,0-.7,3.3-1.3,6.7-1.9,9.9v.2h-.1ZM397.6,209.7c1.2-6.8,7.9-25.8,16-25.9,6.7,1.7,1.7,16.6,0,21-2.9,8-7.5,15.4-12.5,22.3-.5.8-1.5,2-2.3,1.8-.8-.3-1-1.5-1.3-2.4-1.1-5.4-1.2-11.2-.2-16.6v-.2h.3ZM900.9,165.9c-7,17.3-18.3,23.1-33.7,31.6-3.1,1.8-6.9,4.2-10.6,4.4-7.7,0-5.8-10.4-3.6-15,8.7-17.5,32.6-34,51.8-34.8,1.6.6.7,2.6.2,3.8-1.4,3.3-2.7,6.6-4.2,9.8v.2h0ZM997.9,216.3c-4.2,13.6-10.3,26.3-16.7,39-4.4,8-8.6,20.4-17.2,24.5-6,2.6-10.9-3.7-11.4-9.2-.8-7.2,2.3-14.2,5.4-20.5,8.5-17.5,19.4-34.4,34.8-46.7,2.4-1.9,4.7-3.8,7.2-5.6,1-.7,3-2.4,3.2-.6-1.1,6.3-3.5,12.7-5.2,18.9v.2h0ZM1073.3,277.5c-3,12.3-7.8,26-18.2,34.2-7.4,5.9-15.7,3.8-13.5-6.7,4.1-20,18.9-43.6,32.8-58.3,2.5-2.7,3.7-2.8,3.2,1.1-.8,9.8-2.1,20-4.3,29.5v.2h0ZM1178.2,207.9c5.8,14.2-8.8,27.2-20.9,32-24,9.3-34.3-13.5-18.6-30.9,3-4,7.9-5.3,12.5-6.7,9.4-3,22.1-4.9,26.8,5.4v.2h.2ZM1319.3,146.6q-.2,0,0,0h0ZM1301.4,182.4c-.9,0-1.6-1.5-1.9-2.5-2.5-8.6,4.8-19.7,10.3-26.1,1.9-1.9,6.1-7.6,8.9-7.2,2,1.2.4,5.8,0,7.8-3.1,9.5-8.7,18.5-14.7,26.2-.7.8-1.6,1.8-2.5,1.8h-.1ZM1342.8,257.8c.2.5-.2.5,0,0h0ZM1441.2,174.2c-.8-.4-1.1-1.8-1.2-2.7-1.2-7.7,1.1-16.1,7.4-21.1,4.2-3.5,13.9-8.2,17.2-1.7,1.4,6.4-9.8,15.5-14.2,19.4-2,1.7-3.6,2.9-5.7,4.5-.9.7-2.2,1.9-3.4,1.6h-.1Z"/>
  <path d="M1047.6,324.3c-6.4,0-10.9-2.1-13.7-6.3-6.5-10.1.4-29.4,6.7-40.1,7.1-14.2,14.8-25.7,23.6-35.1,1.7-2.2,3.8-4.1,5.8-5.8,3.7-3.3,7.2-6.4,8-11,.3-2.3.6-4.6.8-6.9,1.5-13.2,3-26.8,5.4-40.1.9-5.8,2.3-12.1,3.9-18.9.4-1.4.4-2.1.4-2.5-23.7,9.2-46.8,18.6-68.8,30.2-4.1,2.7-5.2,7.5-6.4,12.6-.5,2.2-1,4.3-1.8,6.4-6.8,24-16.9,47.5-29.9,69.6-7.7,13.4-18.9,15-25.9,12.4-8-3-15.4-13.1-12.4-27.8,2.6-11.5,8.7-21.7,14.5-31.6l1.3-2.3c10.2-18.4,26.9-30.9,43-43,1.1-.8,2.4-1.8,3.5-2.6,6.1-12.5,10.6-26.1,13.1-40.8.3-1.9,0-2.3,0-2.3-.8-.2-4.1,2-5.6,3s-2.8,1.9-3.9,2.4c-15.9,9-34.1,17.6-52.6,17.6s-9.1-.5-13.7-1.7c-3.3-.4-6.7-1.5-10.1-2.6-5.1-1.7-10.4-3.4-14.9-2.6-2.8,2.4-4.2,6.3-5.8,10.5-.9,2.5-1.9,5.1-3.1,7.4-4.8,11.5-14.2,21.3-28.1,29.2-1.2.7-2.5,1.4-3.9,2.2-7.4,4.2-15.8,9.1-24.7,7.8h-.2c-4.8-1.4-8.2-4.7-9.9-9.4-2.8-8.2.3-19.2,4.7-25.3,13.7-20.5,36.3-34.2,59.3-35.8,6.7-.7,14.7-20.4,18.5-33.4,4.2-13.6-5-25-16.3-29.3-26.2-11.7-54.4-16.9-81.6-15.1-94.6,10.1-166.3,48-232.6,123.2-25.1,26.9-52.1,54.6-82.5,72.3-17.2,10-34,15.8-49.7,17-18.2,1.4-35.9-3-52.5-13.4-4.3-2.7-7-5.9-9.1-8.5-1.8-2.2-3.1-3.8-4.5-3.8s-4.3,1.8-8.2,5.9c-7.6,7.5-21.6,13.1-32,9.8-4.2-1.3-9.7-4.9-11.4-14h0c-1.2-12.5,1.7-25,4.5-37,1.1-4.6,2.2-9.4,3-14.1.2-1.2.6-2.7.9-4.2,1.9-8.1,3.1-15-2.1-17.5h0c-4.8,0-11.1,6.1-13.6,10.6-1.5,2.8-2,5.8-2.5,9.1-.2,1.3-.5,2.7-.8,4.1-1,4.6-1.9,9.4-2.7,14.2-1.9,11-3.9,22.5-8.7,32.8h0c-4.3,7.6-9.6,17.1-18.3,21.5h-.3l-.3.2c-5.3.4-9-1.2-11-5-8.1-14.5,13.6-56.1,20.2-65.4,1.7-3,3.8-5.8,5.8-8.4,3.6-4.7,7-9.2,8.2-14.8.8-5.6,2-11.4,3.1-17.1,1.6-7.7,3.2-15.7,3.9-23.3-10.8,8.4-19.2,20.2-27.3,31.6-4.3,6.2-9,12.6-13.8,18.3l-.7.8c-1.9,2.1-3.8,4.2-4.8,6.8-1.4,6.1-2.6,12.4-3.9,18.4-2.3,11.6-4.7,23.5-8.4,34.9-.6,1.8-1.1,3.5-1.7,5.3-3.6,11.4-7.3,23.2-16.3,31.6-3.9,3.9-9.4,5.7-14.5,4.4-4.4-1-7.8-4.2-9.3-8.7h0c-5.5-23.8,15.2-58.8,21.6-69,3.2-4.9,7.2-9.2,11-13.3,3.3-3.6,6.8-7.3,9.6-11.2,1.5-3.1,2-6.8,2.4-10.4.2-1.6.4-3.2.7-4.8,2.5-17.5,2.4-35.4,2.2-52.6v-7.4h0c.2-2.2-.2-2.9-.5-3.1s-1.4,0-3.5,1.3c-55,37.1-123.1,62.2-202.5,74.5-15.2,3.1-31.4,2.8-48.4-1-4.4-.8-7.3-2.3-8.3-4.5-.7-1.7-.6-3.3.4-4.7,1.1-1.8,3.4-2.8,5.8-2.8h.3c64,12,169.5-26.3,220.9-55.9,5.3-3.4,10.9-6.7,16.2-9.9,6.3-3.8,12.8-7.6,19-11.7,2-2.5,2.7-5.8,3.5-9.2.6-2.7,1.2-5.6,2.5-8.1,6.6-14.8,17.9-27.1,30.3-32.6,8.5-3.2,12.5,0,14.2,2.2,3.7,4.8,2.8,13.9-2,20.7-6.2,11-16.2,21.6-27.4,29.1-.7.5-1.3.8-2.1,1.3-2.1,1.3-4.1,2.5-5.2,4.4-1.7,9.9-1.4,20.4-1.1,30.6.3,9.7.6,19.8-.9,29.6,0,.9-.2,2.5-.5,4.2-.2,1.3-.5,3.4-.6,4.8.2-.3.5-.7.8-1,9.8-15,21.2-28.8,34-41.1,1.4-1.5,2.9-3,4.4-4.4,4-3.8,7.6-7.4,9.1-12.4,2.2-9,2.8-18.4,3.6-27.5.9-12.3,1.9-24.9,6.3-36.8,4.8-16,23.2-30.9,35.1-28.1,4.5,1,11.8,5.7,8.8,24.9-5.5,27.1-22,50.5-35.7,67.8-.6.8-1.2,1.5-1.9,2.3-2.5,2.9-4.9,5.8-5.8,9.3-1.5,7.7-2.9,15.8-4.3,23.5-1.1,6.5-2.4,13.2-3.6,19.7h0c-.3,1.1-.3,2.1-.2,2.5h.2c.7-.2,1.1-.4,1.7-.7,4.2-2.1,8.5-2.7,11.9-1.8,8.4,2.3,12,11.9,11.8,20.5.5,4.9-1.8,14-4.3,24.4-4.1,16.4-9.7,39-1.9,42,9.6,2.2,18.2-5.4,26.2-13.2,2.7-2.9,2.1-7.3,1-13.3-1.7-10.1-4.1-24,8.6-42.5,5-8.3,13.7-12.6,20.9-10.4,6.6,2,10.3,8.7,9.9,17.8-1.4,16.4-10.4,30.1-18.8,41.6h0c-1.6,1.9-2.3,3.7-2,5.6.6,5.4,7.8,10.7,12.6,14.1l.8.6c37.9,22.9,85.9.3,115.4-26,14.8-12.7,28.4-27.7,41.1-42,26.9-30.7,55.7-56.5,85.5-76.8,33.6-22.9,68.7-38.9,104.3-47.5,70.8-18.4,109.1-9.4,131.8-1,13.2,4.6,31.4,11,38,26.8,6.5,14.8-.8,30.7-7.4,44.6-1.5,3.1-2.8,6.1-4.1,9.1.9,1.5,4.1,2.2,6.8,2.7,2,.4,3.9.8,5.4,1.5,19.2,7.5,41.5,3.3,68-13,1.7-1.2,3.6-2.3,5.4-3.3,5.2-2.9,10.2-5.8,10.9-11.2,1.6-21.5,5.1-45.5,25.3-57.1,7.9-4.8,16.4-5,22.3-.4,5.7,4.5,7.5,12.6,4.6,21.3-4.3,15.2-16.4,25.9-28.1,36.1-4.2,3.7-8,7.1-11.6,10.7-1.6,4.5-2.2,9.3-2.8,14.3-.6,4.9-1.1,9.9-2.8,14.7-.9,3.7-2.3,7.3-3.6,10.9-1.1,2.6-1.5,3.9-1.6,4.4.4,0,1.2-.4,2.7-1.2,11-5.4,22.5-10.2,33.6-14.9,8.5-3.6,17.3-7.3,25.7-11.1l.8-.4c4.2-1.9,8.7-3.9,10.3-8.1,6.1-15.2,11.8-32,16.7-49.9.7-2.2,1.4-4.6,2.1-7.3,3.4-12.3,8.1-29.2,18.6-34.7,4.3-2.3,9.3-2.5,14.8-.6h.3c16.3,9.9,15,33.6,14.2,40.6-3,23.7-20.5,43.9-53.3,61.7-3.4,1.8-5.8,4.7-6.7,8.4v.2c-.8,1.6-4.2,16.5-7,31.8-4.4,24.4-3.7,30.3-3.2,31.6h0c13.4-9.2,28.5-16,43-22.6l.4-.2c24.5-19.4,47.6-30.7,70.7-34.4,4.1-1,8.4-1.7,12.5-2.4,8.2-1.3,16.6-2.6,23.8-6.6,1-.9,2-1.9,3-2.8,6.1-5.8,12.5-11.6,21.4-12,2.7-.2,5.4.9,7,3.2,1.5,2.1,1.8,4.6.8,7-2.5,5.7-8,8.8-14,11.7h-.2c-10,3.2-14.9,7.7-18.2,16.8v.2c-5.1,9.2-8.5,26.8-2.6,34.5,2.7,3.6,7.3,4.7,13.5,3.2,11.3-4.8,21.8-12.3,32-19.4,1.6-1.1,3.2-2.3,4.7-3.3h0c3-1.8,3.3-4.4,1-9.5v-.2c-4.5-17.2,8.5-35.7,22.9-44.3,3.9-2.2,8-2.1,11.4,0,3.8,2.4,5.9,6.8,5.8,11.6,0,9.3-5.7,19.1-10.5,26.5-.7,1.3-1.8,2.7-2.9,4.2-1.4,1.8-3.8,4.7-3.3,5.8,0,0,.5.8,4.1.9h0c3,.4,6.1.5,9.2.6,5,.2,10.2.4,15.2,1.6,19.4,5.5,22.6,20.1,24.6,28.8.5,2.3,1.1,5.4,1.9,5.6,0,0,.6.2,2.5-1.4h0c9.6-6.5,19.2-13.4,28.4-20.1,9.2-6.7,18.9-13.6,28.5-20,3-1.9,2.8-4.8,2.1-9.4-.3-1.6-.6-3.2-.6-4.8-.5-8.9,3.6-18.4,10.7-24.7,6.3-5.8,14.1-8.3,21.8-7.1,5.4.5,9.4,3.4,11.5,8.1,2.4,5.5,1.3,12.5-2.6,17.5-3.7,5.7-8.9,9.9-14,14.1-2.9,2.4-5.9,4.8-8.6,7.5-.6,1.2.7,3.2,2.2,4.5,10.1,9.6,25.9,9.1,39.9,8.6h1.4c17.7-.8,35-6,51.7-11.2,5.2-1.6,10.7-3.3,16-4.8,16.7-4.7,34.2-8.1,52-10,46.8-4.8,94.5-2.6,140.8-.5,26.7,1.2,54.3,2.5,81.4,2.4h0c6,.6,12.3.8,18.4,1.1,15,.8,30.5,1.4,44.7,6.4v-2.8l2.4,3.6c2.6,1.4,3.3,4.2,2.7,6.2-.6,2.4-2.5,4.1-5,4.1h-.2c-4.1-.6-8.2-1.3-12.2-2.1-6.6-1.2-13.4-2.5-20.2-2.7-2.6-.2-5.1-.4-7.6-.6-8.6-.7-17.5-1.4-26.2-1.7-26.6.2-54.1-1-80.5-2.4-66.3-3.1-135-6.4-199.9,13.8-2.1.7-4.1,1.3-6.1,2-10.4,3.3-21.1,6.8-32.2,8.7-51.8,7.6-63.7-4.2-70.1-10.5-4.9-4.9-6.4-6.3-24.2,7.9-9.6,7.4-19.7,14.3-29.4,21-7.5,5.1-15.1,10.5-22.5,15.9-2.2,2.5-3.8,5.4-5.5,8.5-2.2,3.9-4.5,7.9-7.9,11.1-5.9,6.8-13.1,7.1-16.8,3.9-3.4-2.9-4.2-9.1,1.7-16,2.5-3.4,5.7-5.8,8.8-8.3,2.7-2.1,5.3-4.1,7.4-6.5,4.7-9.3.8-23.4-8.2-29.5-5.7-3.8-13.3-4-20.7-4.1-2,0-4.2,0-6.1-.2-2.5,0-5-.5-7.4-1-3.3-.8-6.3-1.5-9.2-.5-1.9,1.3-3.9,2.7-5.8,4.2-5.8,4.2-11.8,8.6-18.2,12.4-1.1.8-2.3,1.5-3.4,2.3-6.6,4.4-13.5,9-21.6,10.6-13.4,2.2-20.4-3.4-23.8-8.5-8.5-12.3-5.6-33.9,1.9-46.8,0-.2.2-.4.2-.6.2-.4.5-1,.5-1.4-.4,0-1.2,0-3.1.4-3.4.8-6.9,1.4-10.3,2.1-11.5,2.3-23.5,4.6-34.6,9-.6.3-1.6.8-3.1,1.4-3.1,1.3-11.7,5-14.4,7h1.2c8.1.4,15,4.8,19.1,12.1,4.5,8.1,4.6,18.1.2,26-6.7,13.3-24.2,24.8-40.2,24.8s-7.6-.7-11.1-2.2c-10-4.3-16.2-16.8-14.3-28.4,0-1.1.4-2.5.8-3.7.3-.8.7-1.9.8-2.5-9.8,3.7-20,9.8-31.2,18.8-1.6,1.7-2.5,4.1-2.7,7.3v.2c-1.2,13.4-2.5,27.3-5.8,40.7-6.3,23.3-16.9,37.4-31.4,41.8h-.3c-1.2.2-2.5.3-3.7.3h-.6.4l-.3-1.2ZM1088.4,154.5h.3c.8,0,1.5.4,1.9,1,.9,1.3.6,3.4,0,5.2-1.6,6.7-2.9,12.8-3.9,18.7-2.4,13.2-3.9,26.8-5.4,40-.3,2.4-.6,4.6-.8,7h0c-1,5.7-5.1,9.2-9,12.7-2.1,1.8-4,3.6-5.5,5.6h0c-8.6,9.4-16.1,20.8-23.2,34.7h0c-5.7,9.7-12.5,28.3-6.8,37.3,2.5,4,7.4,5.6,14.5,4.8,13.5-4.2,23.4-17.5,29.4-39.7,3.4-13.1,4.6-26.9,5.8-40.2v-.2c.3-3.9,1.5-6.9,3.6-9.1h0c11.9-9.6,22.7-16,33.1-19.8l.7-.2.6.4c2.4,1.5,1.3,4.3.6,6.4-.4.9-.8,2.1-.7,2.6v.4c-1.8,10.4,3.8,21.6,12.6,25.5,16.4,6.9,39.9-6,47.7-21.4,3.9-7,3.8-16.1-.2-23.3-3.6-6.4-9.6-10.3-16.6-10.6-1.3,0-4.2,0-4.7-2-.5-2.4,3.1-4.6,16.9-10.5,1.4-.6,2.6-1.1,3-1.3h0c11.4-4.5,23.5-6.9,35.2-9.2,3.4-.7,6.9-1.3,10.3-2.1,1.8-.4,3.7-.8,5-.2h0c2.4,1.3,1.2,4,.7,5.1,0,.2-.2.4-.2.6v.2c-7.3,12.3-9.7,32.8-2.2,43.9,4.4,6.4,11.4,8.9,21,7.3,7.5-1.4,14.2-5.8,20.6-10.1,1.1-.8,2.4-1.6,3.5-2.4,6.3-3.7,12.3-8,18-12.2,2-1.4,4-2.8,5.9-4.2l.3-.2c3.7-1.4,7.5-.6,11,.3,2.4.6,4.5,1,6.7.9h0c2,0,4,.2,6,.2,7.8.2,15.9.4,22.2,4.5,10.2,6.9,14.4,22.8,9.1,33.3l-.2.3c-2.3,2.7-5.1,5-7.8,7.1-3.1,2.5-6,4.7-8.3,7.7h0c-4.7,5.6-4.3,10.2-2,12.2,2.6,2.3,8.1,1.8,12.8-3.7h0c3.1-3,5.3-6.7,7.5-10.6,1.7-3.1,3.6-6.2,5.9-9.1l.2-.2c7.5-5.5,15.2-10.9,22.6-16,9.7-6.7,19.8-13.7,29.3-20.9,18.8-15.2,21.7-13.9,27.9-7.7,6.4,6.4,17.3,17.1,67.6,9.7,10.8-1.9,21.4-5.3,31.7-8.6,2.1-.7,4.1-1.3,6.1-2,65.4-20.3,134.3-17.1,200.9-13.9,26.4,1.2,53.8,2.5,80.4,2.4,8.8.3,17.7,1,26.4,1.7,2.5.2,5.1.4,7.5.6,7,.2,13.9,1.5,20.6,2.7,3.9.8,7.9,1.5,12,2.1,1.6,0,2.1-1.4,2.2-1.8.2-.8,0-1.9-.8-2.6l-.6-.2h-1.1v-.3c-14.2-5.2-29.7-5.9-44.8-6.6-6-.3-12.4-.6-18.4-1.1-27.1,0-54.7-1.1-81.4-2.4-46-2.1-93.7-4.2-140.3.5-17.6,1.9-35,5.3-51.5,10-5.3,1.5-10.8,3.2-15.9,4.8-16.8,5.2-34.2,10.6-52.5,11.3h-1.4c-13.8.5-30.9,1.1-41.9-9.2-2.5-2.1-4.3-5.5-2.7-8.2l.2-.3c2.7-2.8,5.9-5.4,9-7.8,4.9-4,10-8.1,13.4-13.5h0c3.3-4.2,4.2-10.2,2.3-14.8-1.6-3.8-4.9-6-9.2-6.4-7-1-13.9,1.2-19.5,6.4-6.4,5.8-10.2,14.5-9.7,22.5,0,1.4.3,2.8.5,4.3.7,4.2,1.5,9.2-3.3,12.3-9.5,6.4-19.2,13.3-28.4,19.9-9.2,6.6-18.8,13.5-28.4,20-1.4,1.2-3.3,2.5-5.2,2-2.2-.8-2.8-3.5-3.7-7.6-1.9-8.6-4.7-21.6-22.5-26.6-4.6-1.1-9.6-1.3-14.5-1.5-3.1,0-6.2-.2-9.3-.6-2.3,0-5.4-.4-6.4-2.6-1.2-2.5,1.1-5.5,3.6-8.7,1-1.3,2.2-2.7,2.7-3.8h0c4.6-7.3,10-16.5,10.1-25.2.2-3.9-1.5-7.3-4.4-9.1-2.5-1.6-5.6-1.6-8.5,0-13.7,8.2-25.6,25.8-21.7,41,1.1,2.6,4,9.3-2.2,12.9-1.6,1.1-3.1,2.2-4.7,3.3-10.3,7.3-20.9,14.7-32.6,19.7h-.2c-9.3,2.3-14.2-1-16.5-4.2-6.9-9-3-27.8,2.3-37.6,3.6-9.8,9.2-14.9,19.9-18.3,5.5-2.6,10.5-5.5,12.5-10.2.6-1.4.5-2.9-.5-4.2-1-1.4-2.7-2.2-4.5-2-7.9.3-13.9,5.8-19.6,11.2-1,1-2.2,2-3.2,2.9l-.3.2c-7.6,4.2-16.3,5.7-24.8,7-4.1.7-8.3,1.3-12.4,2.4h0c-22.6,3.7-45.4,14.8-69.5,34l-.3.2-.6.3c-14.4,6.5-29.3,13.2-42.6,22.3-1.7,1.4-2.9.8-3.4.5-1.1-.8-3.8-2.7,1.9-34,2.7-15.1,6.2-30.6,7.3-33,1.1-4.4,4-7.9,8-10.1,32-17.3,48.9-36.8,51.8-59.5.8-6.5,1.9-28.6-12.8-37.6-4.7-1.6-8.8-1.4-12.5.5-9.4,5-14,21.1-17.2,32.9-.8,2.6-1.4,5.2-2.1,7.4-4.9,17.9-10.6,34.8-16.7,50.1-2.1,5.4-7.3,7.6-11.8,9.7l-.8.4c-8.4,3.9-17.2,7.5-25.8,11.1-11,4.6-22.5,9.4-33.4,14.8-2.3,1.2-4.7,2.3-6.1.9s-.8-3.8,1-7.7c1.3-3.5,2.5-7,3.5-10.6h0c1.6-4.6,2.2-9.5,2.7-14.2.6-5.1,1.2-10.4,3.1-15.3v-.3l.3-.2c3.7-3.8,7.9-7.5,12-11,11.4-10,23.2-20.4,27.3-34.8,2.5-7.6,1.1-14.4-3.7-18.3s-12.2-3.6-19.1.7c-19.1,11-22.4,34.2-24,54.9h0c-1,7-7.1,10.4-12.4,13.4-1.9,1-3.6,2.1-5.2,3.2h0c-27.4,17-50.5,21.2-70.7,13.3h0c-1.1-.7-2.8-.9-4.7-1.3-3.7-.8-7.9-1.6-9.1-5l-.2-.5.2-.5c1.3-3.2,2.8-6.4,4.3-9.7,6.6-14.2,13.4-28.8,7.4-42.4-6.1-14.6-22.9-20.6-36.3-25.3-46.6-17.2-96.6-7.5-130.1,1.1-35.3,8.5-70,24.3-103.3,47.1-29.6,20.2-58.2,45.9-84.9,76.3-12.7,14.3-26.5,29.4-41.3,42.2-21.4,19.1-52.3,36.1-82.4,36.1s-24.8-2.9-36.3-9.9h0l-.8-.7c-5.2-3.8-13.1-9.4-13.8-16.1-.3-2.6.6-5.2,2.6-7.5,8.1-11.2,16.9-24.5,18.2-40.1.3-7.7-2.6-13.3-7.8-14.9-6-1.8-13.3,2-17.7,9.2-12.1,17.6-9.8,30.9-8.2,40.5,1.1,6.5,2,11.7-1.8,15.8-6.4,6.3-17,16.8-29,14h-.2c-10.3-3.9-4.8-25.9,0-45.4,2.5-9.8,4.7-19.2,4.3-23.6h0v-.2c.2-7.5-2.7-15.9-9.7-17.7-2.7-.8-6.4-.2-9.9,1.6-.8.3-1.3.5-2.1.8-1.5.6-2.5,0-2.9-.4-1.5-1.4-.9-4.3-.7-5.3,1.2-6.5,2.5-13.2,3.6-19.7,1.4-7.7,2.8-15.8,4.3-23.6,1-4.3,3.8-7.5,6.4-10.6.7-.8,1.2-1.4,1.8-2.2,13.5-17.1,29.7-40.1,35.1-66.6,2-12.5-.4-20.3-6.6-21.7-9.5-2.2-27,10.4-31.8,26.2-4.3,11.6-5.3,24.1-6.1,36.1-.7,9.2-1.4,18.9-3.7,28-1.5,5.8-5.8,9.8-9.8,13.7-1.5,1.4-2.9,2.8-4.2,4.2h0c-12.5,12.3-23.9,25.9-33.6,40.8-1.3,1.9-2.8,3.9-4.5,3.2-1.9-.8-1.6-3.6-.8-9,.2-1.5.5-3.1.4-3.8h0v-.3c1.4-9.5,1.1-19.5.9-29.2-.3-10.4-.6-21.1,1.2-31.3v-.3l.2-.2c1.5-2.6,4-4.2,6.3-5.7.7-.4,1.3-.8,2-1.2,10.9-7.3,20.6-17.5,26.5-28.2h0c4.2-5.8,5.1-13.7,2.1-17.5-2.6-3.4-7.4-2.5-10.9-1.2-11.7,5.3-22.5,17-28.9,31.2h0c-1.1,2.4-1.7,4.8-2.4,7.5-.8,3.7-1.6,7.5-4.2,10.5v.2h-.3c-6.2,4.2-12.9,8.1-19.3,11.9-5.4,3.2-10.9,6.4-16.2,9.9-45,26-131.6,58.6-196,58.6s-18.5-.8-26.8-2.3c-1.4,0-2.7.7-3.4,1.6-.4.6-.5,1.3,0,2.1.6,1.2,2.9,2.4,6.3,2.9,16.6,3.8,32.5,4.2,47.3,1,79-12.4,146.7-37.3,201.4-74.2,2.8-1.9,5-2.4,6.5-1.4,1.5.8,2.1,2.7,1.9,5.6v7.3c0,17.5.3,35.5-2.3,53.1-.3,1.6-.5,3.1-.7,4.7-.5,3.9-.9,7.7-2.6,11.3v.2c-3,4.2-6.6,7.9-10,11.6-3.8,4.1-7.7,8.2-10.8,12.9-12.9,20.4-25.3,48.6-21.2,66.6,1.2,3.6,3.8,5.9,7.4,6.8,4.2.9,8.7-.5,11.9-3.7,8.6-7.9,12.2-19.3,15.6-30.4.6-1.8,1.1-3.6,1.7-5.4,3.7-11.2,6-23.1,8.3-34.5,1.2-6.1,2.5-12.5,4-18.6v-.2c1.2-3,3.4-5.4,5.5-7.7l.7-.8c4.7-5.6,9.2-12,13.6-18.1,8.9-12.5,17.9-25.4,30.4-34.1l2.4-1.6v2.8c-.5,8.8-2.4,17.9-4.2,26.8-1.1,5.6-2.4,11.4-3.1,17-1.3,6.3-5.1,11.2-8.7,16-2,2.6-4.1,5.3-5.7,8.1v.2c-7.5,10.4-27.1,50-20.2,62.5,1.5,2.6,4.2,3.8,8.1,3.6,7.7-4.1,12.8-12.9,16.9-20.1,4.6-10,6.6-21.2,8.5-32.1.8-4.7,1.7-9.6,2.7-14.3.3-1.3.6-2.6.8-3.9.6-3.3,1.1-6.7,2.8-9.9,2.9-5.3,10.2-12.4,16.5-12.1h.6c8,3.7,5.6,13.7,3.9,20.9-.4,1.5-.7,2.9-.8,4.1-.8,4.7-2,9.5-3.1,14.2-2.7,11.8-5.7,24-4.4,35.9,1.1,6.1,4.3,10.1,9.4,11.7,9.2,2.9,22.3-2.5,29.1-9.1,4.6-4.9,7.6-6.9,10.3-6.8,2.7,0,4.4,2.2,6.6,4.8,2,2.4,4.4,5.4,8.4,7.9,30.2,18.8,62.6,17.6,99.2-3.7,30-17.5,56.9-45.1,81.8-71.8,66.6-75.7,139-114,234.4-124.2,27.6-1.9,56.3,3.4,82.9,15.3,12.2,4.6,22.6,17.7,17.9,32.7-1,3.5-10.1,34.3-20.9,35.4-22.1,1.5-44,14.7-57.2,34.5-4,5.6-6.9,15.4-4.3,22.7,1.3,3.9,4,6.4,7.9,7.5,8,1.1,15.5-3.3,22.8-7.5,1.3-.8,2.5-1.5,3.9-2.2,13.3-7.5,22.4-17,26.9-27.9v-.2c1.3-2,2.2-4.4,3-7,1.6-4.4,3.3-9.1,6.9-11.9l.3-.2h.4c5.3-1.1,11,.8,16.7,2.5,3.4,1.1,6.6,2.2,9.6,2.5h.2c22.3,5.8,45-4.7,64.3-15.7h.2c.8-.4,2.2-1.3,3.4-2.2,3.3-2.3,6.5-4.4,8.7-3.1,1.7,1,1.5,3.4,1.3,5.1-2.6,15-7.3,29.1-13.5,41.8l-.2.3-.3.2c-1.2.9-2.5,1.9-3.8,2.8-15.9,11.9-32.4,24.2-42.3,42.2l-1.3,2.3c-5.8,9.7-11.7,19.7-14.2,30.8-2.6,13.1,3.7,22,10.6,24.6,6.4,2.5,15.7.8,22.5-11.1,12.9-22,22.9-45.3,29.7-69.1h0c.8-2,1.2-4.1,1.7-6.2,1.3-5.4,2.6-11,7.6-14.3h0c22.4-11.9,45.9-21.3,69.9-30.7h.3v-.5h.3l.4.8ZM1091.2,219.6h0ZM1047.2,316.3c-1.4,0-2.8-.4-4-1-2.9-1.8-4.1-5.7-3-10.7,4.2-21.1,19.7-44.8,33.2-59,1.4-1.5,2.9-2.9,4.4-2.3s1.4,2.6,1.2,4.5c-.7,7.5-1.8,18.9-4.3,29.5h0v.2h-1l.9.3c-2.9,11.7-7.6,26.2-18.7,35-2.9,2.4-6,3.6-8.8,3.6h.1ZM1076.4,246.8c-.2.2-.5.5-.8.8-13.2,13.9-28.3,37.1-32.5,57.6-.8,3.8-.2,6.5,1.8,7.6,2.3,1.4,6,.5,9.4-2.4,10.4-8.2,14.9-22.1,17.6-33.3v-.3c2.5-10.5,3.7-21.8,4.3-29.3v-.9h0l.2.2ZM246.6,282.2c-1.2,0-2.4-.4-3.4-1.2h-.2v-.3c-3.3-4.5-.9-13.8.5-19.2,0-.5.3-.9.4-1.3,4.3-13.5,9.4-27.7,17.4-40.6,2.7-4.2,6-8.6,10.5-13.5.5-.6,1.8-2,2.9-2.1.4,0,.8,0,1,.3,1.3.9.9,2.8.5,5.2,0,.5-.2.9-.3,1.4-.2.8-.3,1.4-.5,2.1,0,.7-.3,1.2-.4,1.9v.3c-4.6,22.5-9.9,40-16.7,55-1.1,2.5-5.3,10.6-10.2,11.8-.5,0-.8.2-1.3.2h0s0,0,0,0h-.2ZM245.1,278.8c.7.5,1.3.6,2.1.4,3-.8,6.3-5.9,8.3-10.2,6.7-14.7,12-32,16.5-54.3v-.3c.2-.8.3-1.4.5-2.1,0-.7.3-1.3.4-2.1,0-.5.2-.9.3-1.4v-.7c-4.2,4.7-7.3,8.8-9.8,12.7-7.7,12.6-12.7,26.6-17,39.9,0,.3-.2.8-.3,1.2-1.2,4.6-3.4,13.2-1,16.7v.2ZM961.2,281.9c-1.4,0-2.8-.4-4.2-1.1-3.1-1.9-5.5-5.8-5.8-10-.8-7.5,2.3-14.5,5.5-21.2,10.1-20.9,21.6-36.4,35.2-47.2,2.4-1.9,4.7-3.8,7.3-5.6.2,0,.4-.3.6-.4,1-.8,2.5-1.7,3.7-1.1.4.2,1,.7,1.2,1.9v.4c-.8,4.3-2.2,8.8-3.4,13-.6,1.9-1.2,3.9-1.7,5.8v1.4h-.5c-4.3,13.6-10.5,26.4-16.5,38.2-.9,1.8-2,3.8-2.9,5.8-3.6,7.5-7.7,15.9-14.9,19.3-1.1.5-2.4.8-3.5.8h0s0,0,0,0h0ZM1001.4,198.5s-.2,0-.2.2c-.2,0-.4.3-.6.4-2.4,1.7-4.7,3.6-7.1,5.5-13.2,10.6-24.4,25.7-34.4,46.2-3.1,6.3-6,12.9-5.3,19.7.3,3.2,2.1,6.4,4.5,7.8,1.6.9,3.2,1,5,.3,6.2-3,10.1-10.9,13.5-18,1-2.1,2-4.1,3-5.8,6-12,12.3-24.9,16.6-38.7l.3-1c.5-1.7,1-3.5,1.6-5.2,1.1-3.7,2.3-7.5,3-11.1v-.2h.1ZM303.3,262.1h-.7c-1.7-.6-1.8-2.7-1.8-3.5h0c.6-16.8,13.9-41.8,19.6-51.8.8-1.5,1.9-3.4,3.5-2.8,1.5.6,1.1,2.5.9,3.8-.5,2.5-1.2,6.2-1.9,9.8v1.5h-.3c-2.1,12.8-4.9,28.4-15,40-1.3,1.7-2.8,3.2-4.3,3.2h0v-.2ZM303.5,258.4v.6c.4-.3.9-.8,1.8-1.9,9.9-11.4,12.5-27.2,14.6-39.8l.2-1.2h0c.3-1.8.7-3.6.9-5.2-6.1,11-17.2,32.8-17.6,47.6h.1ZM1146.8,243.5c-5.9,0-10.9-2.4-14.1-6.9-5.3-7.7-3.3-19.4,4.9-28.5,3.1-4.1,8-5.6,12.3-6.9l.8-.3c17.8-5.8,25.2-.4,28.2,5.5h.2l.4.8c2,4.8,1.9,9.8-.2,14.8-4,9.3-14.1,16.1-21.4,19.1-3.9,1.5-7.6,2.3-11,2.3h-.1ZM1164.3,201.4c-3.6,0-7.7.8-12.6,2.4l-.8.3c-4.1,1.2-8.3,2.5-10.9,5.9h0c-7.4,8.2-9.2,18.5-4.7,25.1,4.1,5.9,12.2,7.3,21.7,3.6,6.9-2.7,16.2-9,19.9-17.5,1.7-4,1.9-7.9.5-11.7h-.7v-1.3c-2.2-4.4-6.3-6.7-12.3-6.7h0ZM399.2,230.4h-.6c-1.4-.5-1.8-1.9-2.1-2.8v-.7c-1.2-5.6-1.3-11.6-.3-17.1v-.7l.2-.2c1.3-6.4,8-26.4,17.4-26.6h.4c1.5.4,2.7,1.3,3.5,2.7,2.5,4.5,0,13.5-2.4,20.2-3.2,8.9-8.5,16.7-12.6,22.6-.4.6-1.6,2.5-3.2,2.5h-.3ZM399.1,226.2v.5c0,.2,0,.4.2.6.2-.2.5-.6.7-.8,4.2-5.8,9.2-13.5,12.4-22,3-8.4,4-15.1,2.5-17.8-.4-.7-.8-1-1.5-1.3-6.7.4-13.1,17.4-14.4,24.7v.5c-1,5-1,10.7,0,15.8h0v-.2ZM856.6,203.4c-3.2,0-4.8-1.5-5.7-2.7-2.5-3.9-.8-10.7.8-14.2,9.1-18.1,33.8-34.8,53-35.7h.6c.8.3,1.3.8,1.6,1.4.7,1.4,0,3-.5,4.1h0c-.6,1.5-1.1,2.8-1.7,4.2-.8,1.8-1.5,3.7-2.4,5.5v.4c-7.1,17.3-18.6,23.6-33.1,31.6l-2.1,1.1c-3,1.7-6.7,3.9-10.4,4.2h0v.2h-.2.1ZM904.3,153.6c-18.2,1.1-41.5,16.9-50,34-1.4,3-2.7,8.8-.9,11.5.7,1,1.7,1.5,3.3,1.5,2.9-.2,6.2-2.1,9.1-3.8l2.1-1.2c14.5-8,25-13.8,31.6-29.9v-.5c.9-1.9,1.8-3.8,2.5-5.7.6-1.3,1.1-2.7,1.7-4.2h0c0-.5.5-1.3.6-1.8h0ZM1301.5,183.8c-1.4,0-2.6-1.3-3.2-3.6-2.9-10.2,6.4-22.5,10.6-27.5.4-.5.8-.9,1.4-1.6,1.1-1.3,2.3-2.5,3.5-3.7s2.1-1.8,3.3-2.2,1.1-.3,1.7-.2c.6,0,.9.4,1.3.8.8,1.1,1,2.3.8,3.7,0,.7-.2,1.3-.3,2s-.3,1.1-.4,1.8c0,.5-.2.8-.3,1.2v.2c-2.8,8.6-7.8,17.5-15,26.7-1,1.1-2.2,2.4-3.6,2.4h.2ZM1310.8,154.6c-3,3.6-12.5,15.8-10,24.8.2.8.5,1.3.7,1.5.2,0,.6-.4,1.3-1.3,6.9-8.8,11.7-17.5,14.4-25.7,0-.4.2-.8.3-1.2.7-2.6.8-4.2.5-4.8-1.5.3-4.4,3.6-5.8,5.1-.6.7-1,1.2-1.5,1.6h0ZM1441.7,175.6h-.7l-.4-.2c-1.6-.8-1.9-3.1-2-3.9-1.4-8.8,1.6-17.4,7.9-22.4,2.7-2.3,9.2-6.1,14.4-5.1,2.2.5,3.9,1.8,4.9,3.9v.4c1.6,6.5-7.5,14.5-12.9,19.3-.6.6-1.1,1-1.6,1.4-1.9,1.6-3.4,2.8-5.3,4.2l-.5.4c-.2.2-.4.3-.6.4-.8.7-2,1.5-3.3,1.5h0ZM1459,146.8c-3.3,0-7.8,2.3-10.8,4.6-5.5,4.4-8.1,12-6.9,19.8,0,.7.3,1.3.4,1.6.4,0,1.1-.7,1.5-.9.2-.2.4-.3.6-.5l.4-.3c1.9-1.4,3.4-2.5,5.2-4.2.5-.4.9-.8,1.6-1.4,4.2-3.8,13-11.5,12.2-16.5-.7-1.2-1.6-1.9-2.9-2.2h-1.3ZM1108.3,137.3c-.4,0-.7,0-1-.2h-.3l-.2-.4c-1.1-1.2-.5-3,.3-4.9.2-.7.5-1.2.7-1.9.3-.8.6-1.5.8-2.2.5-1.3.9-2.6,1.4-3.9v-1.4h.5c3-8.5,5.6-17.3,8-25.9,1.9-6.7,4-13.7,6.1-20.5.6-1.6,1.1-3.1,1.6-4.8,2-6,4-12.4,8.9-16.8,2-1.8,4.2-2.5,6.4-2.2,2.5.4,4.7,1.9,6.3,4.4,7.9,12.5,6.1,26.9,4.4,34.3-1.9,8.2-6.6,16.3-13.9,24.1-7.1,7.5-16.2,14.5-27.2,21h0c-.2.2-.5.3-.7.4-.6.3-1.2.7-2.1.7h-.2l.2.2ZM1112.4,125.2c-.4,1.2-.8,2.4-1.3,3.6-.3.7-.5,1.3-.8,2.1-.2.7-.5,1.3-.7,2-.2.4-.3.8-.5,1.3.2,0,.4-.2.6-.3,10.8-6.3,19.6-13.2,26.5-20.5,6.9-7.4,11.3-15,13.1-22.7,1.6-7.1,3.3-20.7-4.1-32.3-1.1-1.8-2.6-2.9-4.2-3.2-1.4-.2-2.8.3-4.2,1.5-4.2,4-6.2,9.9-8,15.6-.6,1.6-1,3.3-1.7,4.9-2.2,6.7-4.2,13.6-6.1,20.3-2.5,8.9-5.2,18.1-8.4,27l-.3.8h0ZM1032.3,116.5c-.4,0-.7,0-.9-.3-1.3-.8-1.3-2.5-1-4.2v-.3c1.4-13.4,3.9-28.6,13.9-38.4,7.5-6.8,14.6-9,18.6-5.8,3.9,3.1,3.3,10.1-1.6,18.9-6.4,10.9-16,20.1-25.5,28.3-1,.9-2.3,1.8-3.3,1.8h-.2ZM1033,112.1v1.1c.2-.2.5-.4.8-.7,9.2-8.1,18.8-17,24.9-27.5,4.8-8.7,4.2-13.7,2.3-15.2-2.3-1.8-7.7-.8-14.9,5.7-9.2,9.1-11.5,23.7-12.9,36.6h-.2ZM352.2,103.8c-.5,0-.8-.2-1.1-.5-.6-.6-.8-1.3-.7-2.5h0v-1.1l.3-2.9c.4-3.9.7-7.7,1-11.9,1.4-19.1,2.8-38.8,17.7-51.7.3-.2.6-.5.8-.7,3-2.5,8.2-6.6,12.4-3.9h.2c2.5,2.4,2.2,6.2,1.9,9.1v.6c-2.7,21.4-14.2,40.6-22.6,53.1-2.1,3-4.3,6.2-6.7,9.5-.3.4-1.5,2.3-2.6,2.6h-.7v.2h.1ZM353.7,96.1v1c0,.5-.2,1-.3,1.7,2.3-3.1,4.4-6.1,6.3-9.1,8.3-12.4,19.5-31.1,22.2-51.8v-.6c.2-2.3.5-5.3-.8-6.6-2.5-1.4-6.5,1.8-8.9,3.8-.3.2-.6.5-.8.7-14.1,12.2-15.4,31.3-16.8,49.7-.3,3.9-.6,7.5-.9,11h0v.2ZM294.3,90.8c-.3,0-.6,0-.8-.2-.4-.2-1-.7-1.1-2v-.4c2.2-9.2,7.6-18.2,16.3-26.7h0s0-.2.3-.4h0c1.8-1.8,9.9-9.4,13.8-8.8,1.4-.7,2.1.2,2.3.5.4.7.2,1.4-.4,2,0,1.7-.9,3.9-2,5.9-5.8,10.8-14.4,20.7-25.3,28.5-.2,0-.3.2-.4.3-.8.6-1.8,1.2-2.7,1.2h0ZM310.2,63.9c-7.5,7.5-12.5,15.3-14.7,23.2,0,0,.2-.2.3-.2,10.4-7.5,18.9-17.1,24.3-27.5,1.2-2.5,1.6-3.7,1.7-4.2-2,.5-7.6,4.7-10.7,7.8v.9h-.9,0ZM323.2,52.4c.2,0,.4.2.6.3s.3.3.4.4l.3-.3c-.3-.4-.8-.6-1.3-.4h0Z"/>
  <path d="M1348.6,249.4c-2.3-.5-8,4.9-5.9,7.1,2,1.3,9.2-5.5,6.1-7.1h-.2Z"/>
</svg>