<?xml version="1.0" encoding="UTF-8"?>
<svg id="Layer_1" xmlns="http://www.w3.org/2000/svg" version="1.1" viewBox="0 0 279.5 370.5">
  <!-- Generator: Adobe Illustrator 30.3.0, SVG Export Plug-In . SVG Version: 2.1.3 Build 182)  -->
  <defs>
    <style>
      .st0 {
        fill: #121212;
      }

      .st1 {
        fill: #f7f3ef;
      }
    </style>
  </defs>
  <path class="st1" d="M72.5,333.9h-1.8c.1-.5,0-.9-.3-1.2-.5-.1-.8-.5-1.8-.3,0-.5-.7-1.3-1.6-.7-.6-.6-.9-1-1.3-2-.3.4-.6.8-1.3.3,0-.5,0-1.2-.8-1.6,0-.6-.3-1.2-1-1.3-.1,0-.7,0-1,0,.4-.8-.6-1-.7-.2-.4,0-.8-.7-.3-1.1l-.6-.9c.1-.2.3-.5.8-.8.4-.5,0-1.1-.8-.9.1-1.4-.2-2.5-1-3.5l-.9,2.5c.8,0,1.1.1,1.4.3,0,.3,0,.9-.7,1,0,.9,0,1.4-.7,2.3-.6-.6-1.5.3-.5.8-.7.6-.7,1.5-.5,2.6-.9,0-1.5.4-1.2,1.5-.8.2-1.4.8-2,1.4-.4.2-.6.8-.4,1.3-.9.2-1.3.1-1.8-.2,1.5-.9,0-2-.7-1-.7.5-1.6,0-1.2-1.3-1.2.1-1.7.5-2.8.9.1-.8,0-1.1-.7-1.4.3-.8-.2-1.3-1.1-1.1.5-.9-.5-1.4-.9-.6-.5-.4-.9-.8-1.2-1.7-.7.8-1.2.2-1.2-.5-.4-1,.2-2.1.7-2.9-.7-1-.6-1.7-.6-2.8,0-.6,0-1-.4-1.4.3-.5.7-1,1.4-1.4l-.8-1c.1-.2.6-.3.4-1.1.5,0,1-.8.2-1.1,0-1-.2-2,.5-3.1-.5-.8-.8-2.1-.3-3.3-.5-.4-.6-.7-.8-.9l.6-.9c.8-.2.9-1.2-.2-1.4.2-.4.5-.6,1.2-.6-.5-.5-1-.9-1.1-1.5,0-1.4,0-2.5.3-3.6v-3c.9.2,1-.6.4-.8-.1-.5-.3-1,0-1.8-.5-.6-.8-1.5.3-2.3-.6-1.3-.8-2.6.2-3.9-.3-.2-.8-.7-.5-1.5-.3-.4-.5-.6-.5-.9l.7-.8c.4-.2.4-.7,0-.9l-.5-4.1c.4-1,.3-1.9.3-2.9.2-.8.3-1.5,0-2.3.4-.5.2-.8,0-1.3l-.5-.8.5-.8c-.8-.8-.6-1.2-.8-1.7-.9.3-1.8.1-2.5.2.5-.8,0-1.1-.2-1.3.2-.1.5-.5.3-1,.4-.5.5-1-.3-1.5.2-.2.5-.1,1.3-.4-.2-.4-.4-.6-.6-.8.2-.2.4-.4.5-.6-.6-.9-.7-1.8-.9-2.7,0-.7-.4-1.1-1.1-1.8,1.4-1,1.7-2,1.5-3.6l-.4-.9c0-.2.2-.5.6-.9-.3-1.1-.8-1.5-1.4-2.3.8.2,1.4-.3.8-.8-.2-.6,0-1.2-.8-1.9.4-.2,1-.7.5-1.7.6-.3.8-.9.6-1.5-.3-.4-.4-.8-.6-1.4l.7-2.9c0-.5.2-.9,0-1.5l-.6-.9c0-.5-.3-.8-.5-.9.1-.2.2-.6.8-.9,0-1.2.3-2.1.8-3.2l-.3-.7.4-.9c-.7.3-1.3-.3-.6-.9-.7-.6-.8-1.7-.4-2.6,0-1.7,0-2.6-.6-4.1.9.2,1.4-.5.9-1.1-.5-1.1-.8-1.9-1.1-3.4.5-.3.7-.8.5-1.1-.2-.3-.4-.5-.8-.9,1-.6,1.2-1.6.6-2.4.7-.4.7-1.2,0-1.6.1-.6,0-1.1-.3-1.7.3-.6.6-.8,1.4-.6-.2-.6-.6-.8-1.2-.6,0-.9,0-1.4-.5-2,.2-.4.4-.7,1-1.2-.4-.3-.7-.8-.3-1.6-1-1-1.3-2.5-.4-3.8-.3-.3-.8-.7-.3-1.6-.7-.5-.8-.9-.8-1.8l.8-2.3c-.6-.9-.8-1.9-.8-2.8-.8-1.1-.5-2.1.2-3.3l1.8-.9c-1.1-.2-1.6-.5-2-1.4.1-.5-.2-.8-.5-.9l.7-.8c.6-.4.6-1.1,0-1.4-.7-.5-1-1.2-.7-1.9.2-.3.4-.7,1.1-1.2-.6-.5-.7-1.2-.7-2-.1-.8,0-1.7-.5-2.6,0-.9.3-1.3,1.2-1.4-.7-.8-.8-1.8-.3-2.6-.3-.8-.3-1.1-.8-1.6.3-.6.7-1.1,1.5-1.4-.3.6.4,1.2.8.6.4-.1.9-.3,1-.5,0-.3.2-.8-.6-1.1.5-.5.8-1.3,2.1-1.5.4-.7.5-1.8.2-3.1.8-.3,1.1-.9.8-1.4,0-.5-.3-1-.9-1.3.4-1.1.2-1.7,0-2.3,1.1-.8.9-2.1.2-2.8l.5-.9c-.2-.6.2-.8.4-1-.2-.2-.5-.4-.8-.9,1-.6,1.2-1.5.5-2.3.6-1.1.5-2-.2-2.8.4-.3.5-.6.5-1.1,0,0-.3-.3-.5-.7.7-.2,1-.4,1.7-1.1-.2-.2-.8-.7-.7-.7.2-1.3.4-1.7,1.3-2.3-.6-.5-.8-1.3-.6-2-.9-1,0-2,.8-2.3,0-1.5.1-2.2-.2-3.1l-1.2-2c.7-.4,1-.9.5-1.9.7-.3,1-.8.8-1.7l-.8-1.8c.4-.4.7-.9.3-1.7.2-.2.6-.4.8-.6.2-.2.5-.6-.3-.9.3-.2.8-.8,0-1.2.5-.6,1.1-1.6.7-2.7-.1-.8,0-1.6.5-2.2-.7-.3-.7-.8-.5-1.1.2-.2.5-.5,1.1-.3.3-1,.2-1.6-.8-2.4.7-.4,1-.9.3-1.5l1.2-1.4c.4-.9.6-1.5.6-2.3.7-1.2,1.1-2.2,2.6-2.5.5-.5.9-1.4,1.2-2.2.6-.2,1-.6,1.3-.8.5.9,1.2.1.7-.4-.3-.3-.2-.7,0-.8.7.2.9.3,1.3.6v-2.9c1,.2,1.6.1,2.2-.7.1.3.7.8,1.1,0-.4-.5-.5-1.2.5-1.4-.5-.5.1-1.3.7-.6.4.7,1.5,0,.5-.7.6-.4.9-1.2.4-2.1.2-.5-.2-.8-.3-.9.2-.2.4-.3,1.1-.4-.4-.6-1-.8-1.9-.4,0-1-.4-1.4-.9-1.8-.5-.1-.9,0-1.3.6l-1.2-2.3c.6,0,1.1-.3,1.1-1l-.9-.9c-.2.2-.5.5-.6.5-1-.8-1.6-1.3-2-2.3.3-.7.7-1.1,1.3-1.7,1,.9,1.5-.6.5-1,.7-.1,1.1-.4,1.1-1.5-.3-.7-.3-1.5.5-1.9-.2-.8,0-1.5.4-1.9-.5-1.4.5-2.4,1.7-3.1-.5-1.2-.2-1.8.3-2.5-.1-.8.4-1.2,1.2-1.3-.6-.8.5-1.6.8-.3.5-.3.7-1.2.2-1.9.3-.9.3-1.2.8-1.9.6,0,1.2-.2,1.3-1,.7,0,1.2-.5,1-1.2.7-.1.7-.8.1-1,.3-.4.5-.8.7-1.5,0-.8,0-1.5-.1-2.4l.8-1.8c.4.8,1,.8,1.8.5.2-.4.5-.9.2-1.8.7-.5,1-1.2.9-2.1.4-.4.6-.7.5-1.4.8.2,1.5-.5,1-1.2,0-1.2,1.1-1.8,2-2-.2-.9.7-.9.8-.8.3-.3.4-.8.3-1.3l1.8-.9c-.9-.9-.7-2.1,0-2.8.4-.5,1-.8,1.5,0,.5-.3.9-.7,1.5-1.4,0-.8.3-1.7,1.2-2.3-.2-.9.2-1.6.8-1.9.3-.5,1.1-.4,1.4-.2l2.2-1.8c-.5-1,.2-1.6,1.1-1.2.7.3,1.5-.4.6-1,.4-.5.9-1.2,1.9-1.5l3.6-3.1.8-1.7c.3.7.8.6,1.2.2.2-.6.7-1,1.6-1-.1-.8.2-1.1.5-1.5.4,0,.7,0,1.5.3.6-1.1,1.1-1.8,2.2-2.6.7.8,1.6,0,.7-.7.5.2,1,0,1.4-.4.3-.8,1-1.2,1.9-1,0-.5-.3-.6-.4-.8.1-.3.4-.6.7-.6.7-.4,1.1,0,1.3.3,1.2-.4,1.8-.8,1.8-2,1.1,0,2-.2,2.8-.8.7,0,1.2-.4,1.2-1.3h2.5c-.3-.9-.7-.9-1.6-.9.7-.7,1.6-.6,2.4.3,0-.9,0-1.3.4-1.7.2.8,1,.5.8-.2,0-.5.7-.5.9-.4.3.2.8.7.8.6,1.3,0,1.4-.5,1.4-1.3,1-.2,1.2.3,1.1,1,.8.3,1.2,0,1.6-.4.2-.2,1-.3,1.2.5.5-.4.8-.9,1.2-1.4.5,1.2,1.4.2.8-.5,0-.9,1.3-.6.7.3.9.6,2.4.4,3.3-.7.3-.6.8-.8,1.3-.7l.8.7c.8-.3,1.1.4,1.1.6.6-1.2,1-1.3,2.1-1.6-.5-.7.3-1.2.7-.8-.3.9.5,1.1.8.9.2,0,.5-.3.9-.7-.2-.8.6-1.4,1.2-.4.8-1,1.2-1.3,2.3-1.4-.3-.9.4-1.7,1.4-1l1.5-2.1c.2-.3.6-.4,1,.2.2-.3.7-1.1,1.7-.2.2-.6.6-1.3,1.8-.7,0-.7.8-.8,1-.5.3.8.5,1.2.4,1.6,0,.2-.2.6-.4.7l1.1,1c.6-.4,1.1-.2,1.1.6-.2.3-.6.8,0,1.4,1-.7,1.9-.2,2.1.6.6.2,1,.6.8,1.4.9-.2,1.1,0,1.6.6-.3-1.4,1.3-1.2.8,0,.6.2,1,.2,1.4.4.6.7.7,1.1.5,2.2,1.1-.4,2-.2,2.8.6.7.2.9.9.7,1.6.6,0,.7-.3.9-.4.3.1.4.3.8.6,0,.7.1,1.2.9,1.6-.6,1,0,1.5.7,1.4.9.5,1.5,1.1,1.2,2.2,1.6.6,2.3,1.6,2.7,2.9.6.2.7.7.6,1.2.9.4.9,1.1.8,1.6l1.1,2.7c.8,0,1.5.4,1.8,1.2,0,.6.5,1,1.1,1.2.2-1.2,1.8-.6.7.4.8-.1,1.4.5.6,1.1.4.4.8,1.3,1.8,1.5.4.3.8.8,1.4.7.1-.1.3-.4.8-.5,0,.8.5,1.3,1.2,1.7-.5.8-.1,1.3.4,1.7.1,0,.4-.3,1-.5.5-.6,1.3,0,.6.6.4.6.6.9.4,1.9.7-.3,1.2-.2,1.5.3.6.2,1.2.5,1.5,1.1-.7.3-.6.9,0,1,.7-.7,1.3-.8,2-.3-.8.7-.2,1.7.8,1,.2.2.4,1.3,1.7,1.1-.3.5,0,1,.4,1.3.2.3.5.6,1.2.5,0,.5.2.9.5,1.4.4.2.7.2,1.2-.3-.1.8.2,1.2,1,1.3,0,0,.2-.4.8-.7,0,.7.2,1.2.7,1.7.4.6.6.9.9,2,.1-.5.7-.8,1.1-.2-.6.7,0,1.5.8.8.1.4.1,1.3.7,1.6.7.4,1,.7,1.8.6.3.9.4,1.5,1.1,2,.5-.9,1.1-.8,1.4-.5-.3.8.2,1,.5,1.1-.2.2-.5.3-.6.9,1.3,0,2.1.3,3.1,1.2-.6.7,0,1.6.9.8,0,.5.2.9.5,1h1.4c-.1.9.3,1.7,1.2,1.8.6.4.8.9.5,1.6,1.3,0,2,.8,1.4,1.8,1,.1,1.5.7,2,1.2.3-.7.8-.5,1,0-.2.9.1,1.4.3,1.8.5.8-.4,1.1-.4.9.8,1.8,1.6,2.5,3.1,2.5-.3.9,0,1.4.4,1.7l1.4,2.2c.3.5,1.1.9.9,1.9l1.6,1.4c0,1.1.9,1.6,1.5,2-.1,1,.4,1.5,1.3,1.8-.4.5-.4.9-.3,1.2.2.3.4.5.8.7.4.2.9.8,0,1.3.4.3,1.1.8,1.1,1.4-.1.8,0,1.4.9,2l-.8.9c1,0,1.3.4,1.3,1.2.6,0,.9.3,1,.4l.3,1.2.2,2.1.6,1.4,1.2,2.9c.9.3,1,.8,1.2,1.9.8-.3,1.2,1.2,0,.8-.2,1,.1,2.4,1.5,3.3-.2.2-.5.4-.6,1.1.9-.2,1.8.1,1.6,1.2,0,0,.4.6,1.4,1.2-.6.4-1,.8-1.4,1.3,1,.6,1,1.2.7,2,.9-.2,1.2.2,1,.9-.7.2-1.1.8-1.1,1.3.4.3.6.4,1.2.4-.4.6-.5.8-.4,1.7.7-.2,1.2.3,1.1.9l-.6.6c.6,1.1.9,1.6,1.8,2.3l-.6.7c.3.2.6.4.8.9l-1.5,1.7c.8-.2,1.3,0,1.2.8.3.6.8,1.1,1.4,1.6.2.4.2.8,0,1.4.7.4.8.8.9,1.4,0,.2-.4,1.2-1.4.7-.5.4-.1,1.4.9.9,0,.7,0,1,.6,1.3-.1.4-.2,1,.8,1.2-.5.5-.4,1.1.5,1.2l-.5.8c.1.2.6.3.4,1.1.5,0,.9.9.1,1-.8-.1-1.1,1.1,0,1.2-.2.9.2,1.5,1.2,1.3-.3.4-.4.6-1,1.2.8,1.1,1.2,2.1,1.1,3.4.6.2.7.7.4,1.1-.6.2-.8.6-.7,1,0,.3.2,1,.9.9.6-.1.6.9-.2.5-.7.5-.4,1.4.2,1.7,0,.7.1,1,.4,1.6-.3.4-.6.9-.6,1.3.2,0,.7.4.6.8,0,1.1.7,1.6,1.2,2.1-.7.3-.6.8-.1,1.1.6.4-.2,1.4-.6.4-.3,0-.7.5-.6,1.2.7,1,1.2,2.1.6,3.6.8.9,1.2,2,.9,3.1-.1.2,0,.5.3.6l-.7,1c.8.3,1,.9.8,1.4,0,.4-.1,1.1-1,1.4.3,1.1.5,1.6,1.1,2.4-.8,0-1,.2-1.2.4-.2.3-.1.8.4,1l.5.8-.5.7c1,.6,1.3.8,1.4,2.4.4-.6,1.2-.2.8.4-.5.3-.7.6-.9.8l.5.8c-.7.2-.8.7-.7,1,0,.3.2.6.6,1l.7.8c0,.2.1.9-.9,1.2.2,0,.5.2.7.6,0,.2-.4.5-.7.8.1.8.2,1.1.8,1.6-.6.2-.9,1.4.2,1.5.6.3,0,1.8-.7,1.5-.9-1-1.6.9-.2.8,0,.9.3,1.3.7,1.7.3.7.6,1.1.6,1.6,0,.4-.4.9-.6,1.4-.2.9-.2,1.5.7,2-.4.6-.2,1.1.5,1.4-.5.2-.9.3-1.1.6-.2.6-.3,1.3.6,1.6.1.6-.2,1.1-.7,1.4.9.4.8,1.3.2,1.6-.5.2-.7.6-.7.8.2.3.6.4,1,.3.2.8.2,1.3-.6,1.9.1.3.4.6.6.8l-.9,1c.5.6.9.6,1.4.8-.6.6-.7,1.3,0,1.8-.2,0-.6.4-.5.9,0,.7-.4,1.1-.8,1.7.9,0,1.7.4,1,1.6.4,0,1.2.5.7,1.1l-.6,1c-.9-.4-1.3.6-.3,1l-.8,1.1c0,.4,0,.8.5,1,0,.7.3,1.1.7,1.4-.7.3-.7.8-.5,1.1.2.1.5.3,1.2.4-.3.8-.9,1.2-1.6,1.6,0,1.2.6,1.6,1.4,1.5-.3.8-.5,1.4-1,2.1l1.4,1.4c-1.2.4-1.3,1.9,0,1.9-.4,1-.6,1.9-.4,3.4-1.1,0-.5,1.8.3.5.3.1.7,1-.3,1.5l.6.6c-.2.2-.5.4-.6,1l-1.5,1,.9,1c0,.3,0,.6-.6,1.1.5.3.6.8.5,1.2l-.6,1c1.4,1.2,1.4,2.8.5,4,1,.4,1.8.5,1.2.6-1.5.7-1.5,1.6-2.1,2.5.6.6,1.1.5,1.6.4-.6.7-.8,1.4-.2,2.1,1.1-.2,1.1,1.1-.2.9.5.6.7,1.2.6,1.9,0,.5-.5.9-.9,1.2,1.2.2,1.1,1.3.3,1.6-.2.6-.1,1-1.1,2,.4-.2,1.1.3.7.8-.5.5.3,1.4,1.2.5.2.6.2,1.8-1.2,2-.8.4.2,1.5.8.5.9.1.8.8.6,1l-.6.9c0,1-.7,1.4-1.6,1.4.4,1.2,1,1.9,1.7,2.6-.7.6-.8,1.2-.6,2-.6.4-.9.6-1.2,1.2.9,0,1.1.4,1.1,1.2-.5.2-.9.6-.3,1.4.5-.4,1.5.2.4.8.3,0,.8.6.2,1.1-.2.4-.6,1-.1,1.8-.3.5-.8,1-1.3,1.4,1,0,1.4.6.7,1.2.8.5,1,1,1.1,1.7l-1.2,1.2c.8.4.6,1.1,0,1.4.2.9-.3,1.4-1.2,1.3.4.8.4,1.3,1.4,2.1-.5.2-1.3.6-1.2,1.5-.3.8-.8,1.2-1.7,1.7.9.4.9,1,.5,1.4-.5,1.2-1.3,1.8-2.1,2.9-.5.5-1.4,1-1.6,1.8-.4,1-1.4,1.5-2.4,1.8-.2.9-1.3.6-1.2-.1-.3-.7-1.1-1.2-2.1-.2-.2-.9-.1-1.2-1-1.9-.4.8-.9.9-1.2.8-.2-.2-.4-.4-.6-.9-.9.2-1.4-.2-1.3-1.1-.6.4-1.5.3-1.7.1.2-1.3-1.2-1.2-1.5-.7-1.2,0-1.2-.3-1.4-1.1-.4-.8-.6-1.4-1.1-1.7-.5-.3-1-.4-1.8-.2.2-.6,0-1.1-.6-1.4.1-.6.1-1.2-.5-1.9l.5-.7c-.3,0-.8-.4-.3-1-.6-1-1.6-1.3-2.6-.2.5.5.8,1,.6,2.1.8-.4,1.3.3.9.7-1,0-1.4.6-1.6,1.1.2,1,0,1.7-.2,2.4.4,1.4.3,2.4.1,3.8l.5.8-.7.9c1.1.8,1.1,1.8.8,3-.4.8-.8,1.7,0,2.7-.6.5-1.1,1-1.1,2l-1.2-.5c0,.8-.1,1.1-.6,1.5-.2.3-.8.2-1-.4-.4,1.2-.9,1.7-1.7,2.2-.3.4-.6.8,0,1.7-.9.6-1.5,1.3-1.8,2.5-1,0-1.6.5-2,1.3.6.2.6.8,0,.9-.3.5-.7.6-1,.5-.3-.3-.3-.5-.3-1.4-.5.6-.9.8-1.4.7-.2-.2-.2-.5-1-.8.2-.3,0-.8-.4-.9-.3.6-.7.6-1.1.6l-.8-.8c-.8.5-1.4,0-1.6-.4-.2-.2-.3-.6-.3-1-.8-.3-.4-1-.4-1.1-.8-.7-1.1-.8-1.7-.4l-1.7-.8c.5-1.3.2-1.9-.6-2.6-.4,0-.8,0-1-.4-.1-.2-.1-.9.7-1,.3-.7,0-1.8-.6-2.1l-1.2-.9c-.6.2-1.4-.4-1-1.2-.4-.2-.8-.7-.7-1.3l.5-1c-.9.2-1.5.3-2.1-.7,0,.2-.3.7-.9.7-.8-.4-1.8.3-.9,1.5-.9,0-1.5-.2-2.5-.6,0,.9,0,1.2-.7,1.7l.4.6-.6.7c-.4.4-.5.8-.5,1.2-.8.1-.8.9,0,1-.6.6-.7,1.4-1,2.3-.3.9-.3,1.7-.2,2.8-.9-.2-1.5.5-1,1.2-.3.9-.2,1.6.4,2.2-1,0-1.4.4-1.3,1.3-.1.5-1,1.1-1.2,0-.7.2-1.4.3-2.2-.2v2.2c-.9-.5-1.6-.5-2.4-.1-.8-.3-1.5,0-2.1.5-.7-.5-1.5-.6-2.9-.4,0-.8.4-1.2.8-1.6l-1.3-1.1c.8-.3.8-.8.2-1.2-.8.3-1.3.2-1.3-.9-.8.6-1.3-.4-.7-.7,1.1.2.5-1,.2-.8-.3-.5-.8-.4-1-.2.2-1.4-.4-1.7-.9-2.5l-2.3-2.2c.8-.2.8-.8.2-1-.7-.1-1.1-.8-.7-1.6-.6-.8-.8-1.3-.9-2.5-.5.6-.9.6-1.8,1.2-.4-.3-1.5.3-.4.9,0,.2-.5.9-1.4.9-.4.4,0,1,.8.9-.8,1.2-1.8,1.9-2.8,2.9-.7-.1-1.1.4-1.2.8.2.2.4.5.4.6-.5.7-.9,1-1.8.7.2-.3.6-.4.7-1.2-.9,0-1.1.4-1.8,1.1,0,.5-.1,1-.6,1.2,0,.6-1.5.6-.9-.5-.5-.6-1.6-.6-2.5-.4,0-.6.3-.9.4-1-.3-.3-.5-.4-1.3-.4-.2.5-.7.9-1.2.4-1.1-1.4-2.1-2.7-3.9-3.4,0-.6-.4-1.4-1.5-.9l-.5-2c-.2.6-.9.9-1.2.1-.9,0-1.8-.7-1.7-1.7,1,.2,1.1-.8.2-.9-.8-.6-1-1.6-.8-2.9-.7,0-1.2.6-1.1,1.2-.4.8-.4,1.5.3,2.1-.3.4-.6.7-.5,1.5-1-.3-1.6,0-2.2.8.3.6.5,1.4,1.1,1.9l-2.2,1.8c.4.6.1,1-.4,1.2-.4,0-.8,0-1.2.8.5.6,0,1.3-.7.6l-1.4,2.3c-.6,0-.8.3-.9.5-.2-.2-.4-.4-.9-.5.2.7.2,1,0,1.5l-1,.7c-.5.3-1.4-.3-.7-1.3-.7-.3-1.4,0-2.3,0,.2-.7.3-1.4-1-1.9-.1.6-.7.9-1.2.8-.2-.2-.4-.5-.3-1.1-.9,0-1.7-.4-1.8-1.2-.4-1.2-1.5-1.5-2.3-1.5-.5-1.5-1.2-1.9-1-3.7-1,.2-1,.6-1.2.9,0-.2-.3-1.1-1.1-.4-.5-.5-1-1.6-.6-2.6.2-.6,0-1-.4-1.4-.2-.2-.7-.1-1.2.6-.9-.8-.6-1.8-.3-2.4-1.6-1.5-1.6-2.6-1.5-4.6.4-.2.7-.8.4-1-.4.3-1-.1-.5-.7l-.9-.8.4-.8c-.9,0-1.6-.5-1.2-1.6-.5-.8-1.9,0-.4.8-.7.9-1.1,1.4-.7,2.5.5-.2.9,0,1.1.2,0,.1,0,.7-.9.9.3.8,0,1.6-.9,1.9-.2.4-.1,1,.5,1.3-.6.7-1,1.4-.6,2.7-.7.1-1,.6-.4,1.2.5-.2,1.1.1.8.7-.8.3-1.1.9-.9,1.6.6.2.8.6.7,1l-.9.8c.2,1,0,1.7-1.2,2.1.3.6.7,1.2,1.4,1.9-.6.3-.8,1-.7,1.8-1,.2-1.1.8-1.3,1.5-.6-1.1-1.8.2-.4.6-.5.7-.9,1.3-.5,2.4-.7-.2-1.1,0-1.2.6l-2.4,2.3c-.2.9-1,1.6-1.8,1.8-1.3.9-2.5,1.5-4,1.2-.6-1.1-1.5-1.5-2.5-1.5-.5-.8-1.1-1-1.5-1.3-.5.6-1,.3-1.1-.1-.3-.1-.4-.7.3-.8-.2-.5-.6-.6-1.1-.7.7-.3.4-1.2-.3-.9-.6-.6-1.8-1.4-2.6-.8-.3-.6-.4-1.3.4-1.9-.6-.4-.9-1.2-.4-2.1-.3-.7-.8-1-1.6-.5l-.6-2.7c.4-.3.8-.8.7-1.3-.2-.2-.5-.8-1.2-.9-.7-.3-1.4-1-1.6-2,.2-1.2-1.5-1.5-1.5-.1-.7.3-.8,1,.1,1.2-.4.4-1,.8-1.1,1.5-.3,1-1.1,1.2-1.8,1.5,1,.6,1.4,1.4.6,2.3.6,1.2.4,2.3-.7,3.1,1,.4.9,1.3.2,1.6,0,.8-.3,1.2-1.3,1.2.7.5.7,1.2.1,1.8,0,.8-.4,1.2-1.2,1.1-.4,1.4-.9,2.4-1.8,3.6-.6.4-.8,1-.6,1.6-.9.4-1.2.9-1.6,1.5-.8,0-1.1.6-1.1,1.2-.7.5-1.2,1-1.4,1.6h0ZM107.9,61.6c.5-.5,1.2-.9,1.5-1.9.9-1,1.8-1.8,2.2-2.9.4.6.8.5,1.1.2.5-1.2,1-2,2.2-2.9-.1-.2-.4-.4-.7-.7.3-.1.7-.4.6-1,.6-.4.9-.9.4-1.7.8-.5,1.1-1.1,1.2-1.6l-2.5-1.4c.2-.1-.6.2-1.4.3.3.8-.5,1.5-1.2.8-.9,0-1.6.5-1.9,1.2-.8-.4-1.2,0-1.4.2-.2.3-.3.5-.4,1.2-1.2-.2-2.2.2-3,1.2-.7,0-1.2.3-1.2,1.2-1.7-.2-2.4.6-3.6,2.1-.3.6.8,1.8,1.8,1.5.7,0,.9.4,1.2.8-.2.2-.5.3-.5.9,1.4-.2,2.6.2,3.4,1.1-.4,1,.5,1.6,1.2,1.1-.1-1.2,1.1-1.2.9.2ZM137,62.1c.8-.8.3-1.5-.6-1.2.2-1.3,0-2.4-.9-3.2-.6-.3-.9-.5-.9-1.8.2,0,.8-.7.3-1-.1-.4-.8-1-1.2,0l-1.8-1.9c-.7.6-.4,1.2.2,1.4.3.5.1.9-.2,1.1-.2,0-.8-.2-1,.6-.8-.4-1.3.4-.9,1,.4.6.8,1.3,1.9,1.4,0,.6.4,1.3,1,1.6-.2,1,.8,1.1,1.2,1,.4.9.9,1,1.6,1.3-.1,1.5,1.9,1.1,1.3-.3h0ZM157.6,62.7c1-.3,1.1-.6,1.4-.9-.2-.2-.5-.5-.6-.8.4-1.6-.5-2.5-1.8-2.8.4-1.1-.3-1.8-1.5-1.3-.2-.8-.3-1.7-1.7-1.7-.4-.7-1.5.3-.4.5.6.4.3,1.7.2,2.3,1.4.2,1.4,1.6,1.3,2.3.6.2.7.4.8.6-.5.3-.5.7-.4,1,.1.2.4.5.7.8-.5.6-.6,1-.7,1,.4.5.9.3.9.3.4-.3.5-.8.1-1.3.4-.7,1.1-.8,1.6,0h0ZM188.8,65.7c-1.3,0-1.2-.8-1.5-1.3-.1-.6-.2-1-.7-1.4-.2-.2-.8,0-1.1.4-1.1.2-1.5-.4-1.2-1.2-.9-.2-.9-1-1.1-1.2-1.2-.5-1.7.1-1.5,1.1.4.7.9,1.6,2.1,1.8,0,.4-.1,1.1.4,1.8-.5.8,0,1.4.4,1.6.3.2.6.3,1.2.3-.4.7-.1,1.4.9,1.2-.2-.6-.1-1.1.4-1.5,0-.1.6-.1.9.2.9-.4,1.1-1,.7-1.7h0ZM97.5,106c-.8,1,0,1.8.5,2.1.8-.4,1-1,.7-1.8,0-.6,0-1.1.4-2,0,0-.4-.3-.7-.6,0-.2.2-.4.5-.9.7-.6.7-1.4.1-2,.4-1.2,0-2.1-.6-3l1.5-3.1c-.7-.5-.7-1.2,0-1.7-1-1.1-.4-2.7.6-3.6-.6-.6-.2-1.1.2-1.4-.3-1.4-.3-2.3.1-3.3.5-.2.6-.5.8-.7-.2-.2-.3-.5-.8-.7-.3-1,.1-1.7,1-2.4-1-.1-1.3-.5-1.5-1.1-.5-.3-.8-.7-.9-1.2-.2-.5,0-.9.5-1.2-.6-.5-.6-.8-.6-1.5-.5.2-.7.4-.8.6-.1-.2-.4-.7-1.1-.5-.4-.4-.6-1.2-.8-1.7.7-.9.6-2,0-2.7-.2.8-.9.7-.9,0-.1-.6-.6-1.1-1-1.5-.6-.4-1.3.2-.7.9l-1.4,1.7c.8-.2,1.1.3.9.7-.6.5-.7,1.1-.9,1.8l.4.8c-.1.1-.5.4-.3.9-.5.5-.4,1.2.5,1.3l-1,1.2c.7.2,1.1.6,1,1.3-.1.1-.4.2-.6.9.7-.2,1.2.2.8.8-.5.4-.2,1.1.2,1.2.7-.1.9.5.5,1-.5.4-.6.9-.1,1.5,0,0,.4-.3.7.2-.5.4-.7.7-1,1.2.1.2.3.4.8.9,0,.8-.5,1.2-.9,1.6,1,.2,1.4.5,1.2,1.5.7.7,1.5,1.8.6,3,.3.2.6.6.5,1.2.3,1,.6,2.1-.8,3.1l1.6,1.4c-.2,1.1.6,1.4,1.1,1.8-1.2.9-1.5,2.2-.5,3-.8.1-.9.8-.1,1.1h0ZM132.1,118.9c-1.3.2-.8,1.4,0,1.2.7-.8.8-1.4.5-2.5,1.5.3,2,.7,3.1,1.3,0-1.2-.6-1.4-1.3-2.5,1.4.1,1.7.9,2.4,1.8.9-1.2.6-1.9.8-2.9,0-.7,0-1.2.4-1.6-.8-1.4-.6-3,0-4.2-.7-.2-.8-.7-.6-1.1.2-.3.6-.5,1.1-.2.1-1.2-.7-1.6-1.6-1.3,0-.8-.2-1.3-.3-1.7.3-1,.6-1.2,1.4-1.4.1-.8-.1-1.1-1-1.2.5-.5.7-.9,0-1.3.1-.2.4-.4.6-.7-.2-.1-.7-.4-.4-1-.5-.3-.7-.8-.6-1.3,0-.2.6-.4.2-1.3.4,0,1.1,0,1.5-1-.6-.6-.9-.8-1.5-1.9-.4.6-1.4,0-.5-.6-.4-.5-.4-1.4.1-2l-1.7-.6c-.5-.7-.9-1.2-.6-2,.2-1.4-.7-2.4-2-2.8.4-.8.2-1.2-.5-1.6.3-.3.1-1.2-.7-.9-1-.6-1.5-1.8-.7-3.2l-1.7-1.5c.6-1-.1-1.6-.9-1.5-.5-.6-1.2.3-.5.8,1.1-.2,1,.9,0,.7.1.5.4.8,1.1,1.2l-1.2,2c.6.2.7.8,0,1,.3.4.6.8.6,1.6.3.4.5.7.6.9l-.5.6c.6.4.5,1.3,0,1.6l-.4,1.6c.6.2.7.9-.2,1,.4.3.8.7.7,1.5.6,0,.7.7,0,.8.2.3.4.6.5.8,0,.3,0,.7-.4,1-.1.9-.3,1.3-.7,2.2.8-.2,1.2.3.9.8-.3.5-.5,1.2-.5,1.7.3.5,0,.8-.4.9l.7.9c-.4,1.2,0,2.1.5,2.8l-1.2,2c.7,0,1.1.1,1.2.7,0,.4.3.7.6.9-.1.2-.4.5-.9.8-.3.5,0,1.2,1,1-.3.7-.2,1.5.6,1.9-.9.3-.9,1.3,0,1.5-.2.8.2,1.3,1,1.3l.2,2.3.4.8c-.1.2-.4.3-.4.9.9,0,1.6.4,1.7,1.1h0ZM173.3,98.9c.2-1,1.1-1.2,1.6-.3.5-.2.6-1.1-.3-1.2.1-.7,0-1.1-.5-1.5.6-.3.9-.7,1-1.1,0-.4-.2-.9-.6-1.3,0-.9.2-1.3.4-1.9.2-.7.3-1.3,0-1.8-.2-.3-.6-.7-1.7-.5.2-1.5.3-2.4-.5-3.8l.6-.9c-1-.4-1.3-1-1.3-1.8-.9-.4-1.1-.9-.9-2.2-1.1.5-1.7.3-2-.1,1.4,0,1.1-1.2,0-.7-.8-.4-.7-1.7-.4-2.3h-1.9c.1.3.3.5.5.7-.2.2-.4.3-.4.9.6-.5,1.5.3.6.8,0,.5-.1,1.2-.8,1.5-.9.3-1.2,1.4-.7,2.1.7-.3,1,.4.3.8.2.2.5,0,1.1.2-.5.8-.4,1.3.3,1.8-.5,1.1-.1,2,1,2.5-.1.4-.4.6-.6.8l.7.9c-.4.8.1,1.4.9,1.4,0,.7.6,1.2.9,1.3-.1,1,0,1.4-.3,2.1.5,1,.7,1.6,1.6,2.4-.6.7-.5,1.5.3,2-.5.4-.2.9-.2.9.6.8,1.2.6,1.2.7.6-.7.6-1.2.2-2.2h0ZM206.6,89.1c1-.9.8-1.2,1-1.8,1.1.4,1.1-1,0-.6-.8-.4-1.1-.9-.7-1.9-1-.8-1.5-1.5-1.5-2.8-.6.5-.9.6-1.3.4-.4-.1-.8-.3-1.1-.8-.4-.4-.9-.2-.9.2-.1.3,0,.7.4,1-.1.6,0,1.1.8,1.3-.3.2-.5.4-.5.7-.3.2-.1,1.1.6.6.4.4.6,1,.6,2,.5-.7,1.4-.7,1.7,0,.4.9.9,1.4.4,2.8.5.6,1.4-.3.5-.9h0ZM227.7,169.1c1.3,0,1.2.7,1.3,1.1.5.6,1.1.6,1.7,0-.1-.4-.4-.8-1.3-.5,0-.6.2-.9-.2-1.8l.9-.8c-.2-.1-.8-.4-.5-1-.7-.7-1-1.8-.7-2.8.7-.3.8-1.1,0-1.5l.6-.8c-.9-.4-.8-1.3,0-1.7-1.7-1.3-2.4-3.5-1.2-5.7l-1.3-1.7.4-3.3c.8-.2,1.1-.8,1-1.2,0-.5-.3-.8-.7-1.8-.1-.4-1,0-.5.9-.9-.2-.8-.8-1.1-1.5.2-.4.4-.8.4-1.2,0-.5-.2-1-.7-1.4.2-.7-.2-.9-.4-1l.8-1.2c-.8-.2-1.1-.9-1.3-1.9,0-.3.3-.5.5-.6,0-.4-.2-.7-.6-1l-.6-.8.6-.8c-.3-.8-.1-1.1.4-1.7-.7.3-1.4-.4-.6-1-.2-.4-.7-1-1.1-1.5.2-1-.3-1.6-1.1-1.9-.1-1.3.5-2.2,1.4-2.8-1.1-.2-1.5-.2-2-.6,1.6.2,1.6-1.6.2-1.3-.3-.6-.3-1.3-.2-1.7.9-.2.7-1.2,0-1.4-.9.4-1.8-.2-1.1-1.4-.6-.4-1.5,0-1.8.5.5,1.3.9,2.1,1.6,3.2-.6,0-1,.2-1.2.5.8.3.8.8.7,1.3,1.1.4,1.1,1,1,1.5l-.8,1.6c1.1.7,1.2,1.3,1.1,2.4.8-.5,1.3.3.9.6-.9-.4-1.1.7-.8,1,0,.8.2,1,.8,1.2.8,0,1.1.9.1,1.1.8.5.7.9.8,1.2l-.9,1c.7.4.9.9.9,1.4,0,.2-.1.6-.5,1-.7.5-.8,1.3-.2,1.9.5.4.7.9.6,1.3,0,.3-.2.5-.5.8.8.5.9.6,1.4,1.6-.3.2-.7.3-1.4.4.4.9.9,1.2,1.8,1.3-.4.5-.5.9-.4,1.3.2.2.6.5.6.8-.3.9.2,1.3.6,1.6-.8.4-.9.8-.5,1.4.4.3.9.6.9,1,0,.2.1.6-.5,1.1.4.2.8.6.5,1.1-.1.2-.4.3-.4,1,1.2-.4,1.5.9.2,1.1.4.8,1,.7,1.5.9-1,.5-.9,1.4,0,1.8l-1.3,1.3c.2,0,1.2.6.2,1.2.7.5,1.5,1.8,1.4,2.7-.4.7-.4,1.2-1,1.7-.6.4-.6,1.2-.1,1.6.3.2.6.6.6,1.3-.1,1.1,1.7,1.3,1.4-.4h0ZM166.2,138.9v-1.4c-.1-1,0-1.7.6-2.6-.9-1.1-1.2-2.3-.5-4-.9.2-1.5,0-1.9-.4v-4.1c-.6-.4-.6-.7-.8-1.4-.6.9-.7,2.1.5,3.1-.9.4-.9,1.1-.7,1.6.4.3.3.9.3,1.4.2.8.2,1,.6,1.4.4.1.5.5.5.7l-.4.7c.7.1.8.6.6,1l-.5.6c.9,1.4,1,2.8,1.3,4l.4-.4h0ZM136.4,139.3c-.2.9.3,1.4.9,1.4.4.1,1-.1,1-.9-.3-2.3-.1-4.4.4-6.3-.3-.7-.8-.9-1.1-.6l-.5.6.5.6c-.5.7-.9,1-2.1.7,0,1.2.2,2.1.9,2.9-.9.4-.9,1.3,0,1.5h0ZM166.2,139.6c0,.3.1.6.3.9.3-.2.7-.1.9.4-.7,0-1.1,0-1.4.8.6,1,.2,1.8-.5,2.2.7,0,1.2.2.9,1,1,.5.7,1.5.6,2.2.4,1.2.4,1.9,1.5,2.6-.1,1-.5,1.9-1.1,2.6.7.2,1.1,1,.1,1.6.4.3.9.5,1.6.6-.5.4-.5.8-.2,1.1.2.3.4.5.9.6.1.5,0,.8-.3,1.3-.7,1-.8,2.1.5,2.8-.6.7-.3,1.3.4,1.5.9.3.8,1.3-.5,1.1.4.5.4.8.2,1.1l-1,.8,1,1.2c1.4-1.4,1.7-2.7,1.3-4.1-.5-1.2-.6-2.3-.3-3.8-.7-.6-.9-1.3-.6-2.3v-1.8c0-.4-.3-.7-.5-.9l.7-1.1c-.5-.2-.9-.8-.3-1.3-.3-.3-.5-.7-.4-1.5-1.1.4-1.6-.4-1.3-1.2-.4-1,0-1.8.6-2.1-.7-.9-1.3-.9-1.8-1.2v-1.8l.7-.8c.1-1.4,0-2.1-1-3.3l-.6.8-.4.3h0ZM190.9,170.1c.1.1.8-.2.9-.7-.1-.2-.4-.4-.2-1.2-.6.2-1.4-.7-.3-1.2,0,0-.5-.5-.6-.6,0-.3,0-.7.5-1.1-.3-1-.7-1.7-1.2-2.7-.6-.2-1,0-1.4.4-.3.2-.2.8.5,1.1.5.2.5.8-.2.8,0,.7,0,.9-.5,1.7.8-.5,1.5.4.5.9.5.6,1.3.9,2,2.5h0ZM195.6,194.7c1.1-.2.8-1.4-.1-1.2.2-.6,0-1-.6-1.2,0-.8.1-1.2-.3-2.4.4-.1,1.2-.8.2-1.5,1.1-.2,1-1.2.3-1.5-.4-.9-.8-1.9-1.5-2.8.2-1.7-.1-2.9-1.3-4.3-.4.4-.8.8-1.6.8.5.8.9,1.1,1.8,1.5-.5.8-.3,1.3.5,1.6-.4.1-.9.7,0,1.1-.1.2-.4.5-.6.7.2.2.4.4.5.7-.9.2-.8,1.5.1,1.4.3,0,.5.8-.4,1.1.9.6,1,1,1,1.5-.2.3-.8.9,0,1.5-.5,1.2-.3,2.5.6,3.4-.3.7.5.8.7.5.3,0,.5-.5.5-1.1h0ZM95.1,265c.2,1,.7,1.3,1,1.6.3,0,1,0,.8-1,.4,0,1-1.1-.2-.9-.2-.5-.5-1.6-.1-2.3.1-1,.2-1.8,0-3.1.5-.2.9-.6,1.2-.9.2-.3-.1-1.2-.9-.6-.5-.5-.5-1.1-.3-2.2l1.1-1.5c-.3-.9.3-1.4.7-1.7-1-.3-1.3-.6-1.5-1.6.8,0,1.2-.4,1.4-.8.4-.6,0-1.4-.5-1.6-.8.3-1-.5-.6-.9-.7-.2-.6-.7-.2-.9l-.9-2.6c.7-.7,1-1.6.6-2.6,0-.6-.1-1.1-.3-1.6-.3-.2-.4-.6.1-.8,0-.9.3-1.4,1.4-1.3-.3-.4-.7-.6-1.3-.4.2-1.1,0-1.6-.6-2.2.5-.3.6-.7.5-1.1,0,0-.3-.2-.5-.8.7.2,1.2-.3.8-.8-1-.5-1.2-1.4-.7-2.3-.9-.9-.9-2.1-.2-2.7-.9-.6-.6-1.4-.3-1.9-.3-.9-.3-1.1-.8-1.6.5-.8.9-1.9.8-2.8l-1.4-2.6,1.1-1.2c-.5-.3-.5-.8,0-1l-.4-.7.8-1.1c-.4-.1-.9-.4-1-.9.1-.5-.2-.8-.4-.9.2-.2.4-.4.6-.8.4-.3.5-.6.5-.9l-.7-.8c.3-1-.1-1.8-1.1-2v-4.7c.2-.5.1-1.1-.6-1.3.2-.8.1-1.6-.9-2.2-.5.5-.4,1.7.5,2.2-.3.7.2.9.4,1-.2.2-.5.3-.8,1.1.6,0,1.1.8.2,1.3.7.9,1,2.3,0,3.6.3.3.5.7.6,1.2,0,.2-.1.6-.7,1.1l1.2,1.3c-.8.4-1,1.1-.6,1.7,0,0,.4.3.6.8-.7-.2-1.3.2-.8,1-.3.6,0,1.6.9,1.6.6-.2.6.7,0,.4-1.1.3-1.4,1.2-1.1,2.1.2.4.5.9,1.1,1.4-.6.2-.9.2-1.1.5.1.1.5.4.4.9.3.6.7.9,1.1,1.4l-1.8,3.4,1.3,1.5c-.6.5-.9,1.1-.5,1.8.1.4.3.9,1.1,1.1l-1.1,1.3c.7.4.7.9.4,1.4,0,.7.2,1.3-1,2,.6.5,1.1,1.5.9,2.3-.9.3-.7,1.3.3,1.2-.3.7-.8.9-1.2,1.4.7.3.7.8,0,1-.2.9.5,1.6,1.2,1.9-.6.5-.7.9-.7,1.2l.5.7c-.6.3-.7.8-.6,1.3-.7.4,0,1.1.5.8.3.8.5,1,.8,1.5-.9.2-.9.9,0,1.1-1.2.8-1.6,2.3-.8,3.5,1.2-.2,1.1.8.9,1.3-.3.2-.5.2-1.2.4.2.7.5,1,1.2,1.2-.1,1,.3,1.3,1.2,1.4l-2.4,2.5c.6.1.9.4.9.9.3.7.2,1.2-.5,1.7l1.9,1h0ZM178.1,267.2c.7-.4.8-1,1.1-1.5l.5,1.4c.7-.7.8-1.1.8-1.5,0-.3-.2-.5-.6-.9-.7-.4-1.1-1-1.1-1.6,0-.6.3-1.2,1.2-1.8-.5-.5-1.4-1.5-.7-2.4-.1,0-.7-.7.2-1.2-.6-.4-.8-1.1-.9-1.9l-.2-2.1-.5-1.6c0-.7-.2-2,0-2.6.7-.5-.2-1.5-.9-1,0-1.1,0-1.3-.8-2,1.1-1,1-2.3.1-3.4.6-.6.4-1.2,0-1.5,0-.3-.5-.7-1.1-.2-.4.8-.1,1.6.5,2-.7.7-.7,1.2-.8,1.8.2.2.6.3.9,1.1l-2.2.8c-.1,1.2.5,1.5,1.1,1.4-.3,1,.2,1.3,1,1.6-.7,1-.9,1.5-.6,2.6-.5.6-.6,1.2-.1,2,.1.3.6.4,1.2.7-1.5,0-1.2,1.3-.1,1.1.7-.4.8.4.5.6l-.8,1.2c.8,0,1.3.8.4,1.2,0,.8.6,1.8,1.7,1.6.3.5.1.9-.1,1.2-.1,0-.7,0-.7.5-.5.9-.5,1.7.4,2.4-.5.6-.7,1.3.4,1.9h0ZM154.9,285.5c-.7.3-.8,1-.6,1.5l1,1c.2-1.3.6-1.8,1.5-2.5l-.6-1c.1-.1.6-.4.3-1l.8-1c-1.1,0-1.3-.3-1.5-1.2-.1-.5-.1-1.4,0-1.9l.3-1.3c.1-.1.4-.3,1.1-.6-.5-.6-.7-1.3-.8-2-.6-.5-.1-1.1.7-.9-.3-.2-.6-.5-.4-1-.3-1-.1-1.6.4-2.5.9-1.2,1.5-2.6.6-4.1,0-.9.2-1.4,1.5-1.4-.5-.1-.8-.7-.3-1.1,0-.2-.2-.6-.3-.7.1-.2.3-.3.4-.9-.7.4-1.3-.2-.8-.7.4-.3.7-.6.9-.8-.3-.1-.6-.5-.6-.9,0-.9-.4-1.6-.8-2.4.6-1.2.3-2.2-.5-2.9l-1.2-2.7-1.4.4c0-.2-.3-.9-.9-.9-.7-.3-.8-1.4-.3-2.2-1.5,0-1.7,1.3-.8,2.3l-1,.6c-.3.3-.5.6-.2,1.4.5.1.9,0,1.2.1-.8.2-1,.3-1.3.8,1,.1,1.1,1,.9,1.3-1.3,0-1.1,1.8-.1,1.8.8.2.2,1.1-.4.7l-.8.9.5.7c-.9.4-.8,1.2-.1,1.6.7.3.7,1.2-.4,1.1.3.4.6.8,0,1.4.4.2.5.6.3.9l-.6.6c-.2-.2-.3-.7-1.1-.5.3.4.5.8.2,1.4l-.6.8c.7,0,1,.1,1.1.5,0,.2.1.7-.6,1.1.2.4.6.5,1.1.3-.3,1-.4,1.2-.2,2-.9,1.5-.8,3.2.7,4.3,0,.4.2.8.7,1.1l-.4.7c.3.3.6.3,1.1.4l-1.2,1.3c.6,1.4,1.3,1.7,2.3,1.9,0,.7-.1.9-.5,1.4.8-.2,1,0,1.2.3,0,.3.1.8-.6,1.1,0,.5.5,1.3,1.2,1.2.6-.5.7.6,0,.3h0ZM98.1,273.5c0-.8-.6-1.1-1.2-1.5l.6-1.1-.5-.7c.6-.3.6-.7.6-1.1,0-.2,0-.5-.7-1,.6-.8-.2-1.5-.9-1.1-.1.9-.7,1.3-1,1.5,0,1.4.2,1.9.8,2.4-.6.3-.5,1,.2.8,0,1,1,1.9,2.1,1.7h0ZM129.4,282.9l1.7-1.9c-.7,0-1.1-.3-1-1-.6-.4-1.1-.9-1.2-1.8-1.2.6-1.6,1.2-2.3,1.9.4.8.5,1.2,1,1.8,0,.8.5,1.7,1.6,2.1.5-.2.6-.7,0-1ZM171.2,298.5c1.1.4,1.6,0,2-.3l-.9-1.1c.1-.2.4-.5.3-.7-.2-.6-.8-1-1.4-.2-.3-.1-.6-1.4-2.3-.6,1,1,1.3,2,1.1,2.8-.5.3-.9,1-.4,2l1.9-.7c-.3-.1-.8-.5-.4-1.1h0Z"/>
  <path class="st0" d="M0,353.8v-.6h.9c.4-.1.6-.7,0-1.1-.3-.5.2-1-.2-1.5v-5.7c.7-.2.7-1.2-.1-1.4-.2-.6,0-1.2.8-1.6-.4-1-1-.8-1.5-.7v-3c.2,0,.7,0,.6-.6v-5.3c.5,0,.5-.4.5-.5-.9-.8-.7-1.9.4-2.5-1.3-1.1-1.1-2.6-.3-3.4-.8-.5-.3-1.1,0-1.2-.7-.3-.6-.8,0-1.2-.7-.6-1-2,0-3,0-.1-.3-.5-.5-.6.2-.2.5-.4.8-.9-.4-.8-.9-.7-1.4-.6v-.6c.6,0,.8-.6.6-1.2-.2-1,0-1.7.5-2.1-1-1-.7-2.4,0-3.2v-2.6c-.1,0,1.3-1.5,1.3-1.5-.4-1.1,0-1.8.5-2.5,0-.8,1.3-1,1.2.2.7.2,1.4-.1,1.8-.7-.3-.6.3-1.1.8-.6,0,0,.4.3-.2.7-.6.5,0,1.2.5.7.6-.4.7-.8.7-1.3.8-.3,1-.8,1.4-1.3.5.5.8.7,1.9.4.2.4-.1,1-1.1.9l1.5.8c.2.5.6.6.8.6.3-.2.4-.5.4-1,.9,0,1.2-.4,1.2-1.4,1,0,1.7.6,2.1,1.4.2.6.8.5,1,0,.7-.3,1.1,0,1.5.5.6-.2.8.2,1,.5.2-.2.4-.5.7-.6.2.7.8.7.9,0,.2,0,.6-.1,1.2.4.3-.5,1.1-.7,1.2.2.8,0,1.4,0,2.4.7l.9-2.6c-.9.5-1.3-.5-.7-.8,1.1.5,1.2-1.1.3-1-.5.3-.8-.2-.5-.6,1.3.4,1.4-1.6,0-1.2-.3-.3,0-.8.5-.5.7-.3.7-1,0-1.5.6-.9.7-2,0-2.9-.5-.2-.6-.6-.6-.8.2-.3.7-.3.9-.3.8-.5.5-1.4-.5-1.2-.1-.7.2-1.3.9-1.6l-.9-5c.5-1.3.6-2.9-.5-4.2l1.4-1.3-.5-.7c.1-.2.4-.4.4-.9.5-1.1.2-2.2-.5-2.9-.6-1-.4-1.7-.2-2.5-.5-.3-.1-.8,0-.8-.3-.2-.6-.5-.6-.8-.1-1,.3-1.4,1.3-1.5-.9-1.3-1.3-2.6-1.6-4.1.7-.1.6-.8.1-1-.2-.5,0-1,.9-.9,0-.9.3-1.5.6-2-.6-.5-.3-1.1.3-1.3-.8-1-.9-1.4-1.1-2.3-.6.1-1.2-.5-.5-1.1-.4-.3-.7-1.1,0-1.8-.5-.4-.5-.8-.7-1.7.2-.7.6-1.6,1.3-2.5-.3-.3-.7-.8-.5-1.6,0-.4-.3-.6-.4-.8l.7-1.1c-.8-.4-1.2-1.3-.4-1.9-.4-.5-.7-1.1-.4-2,.6-.1.6-.7,0-.8v-6.5s.5-1,.5-1c-.4-.3-.5-.8.2-1.1-.5.1-.9-1,.2-.8.6-.9,0-2.2-1-2.9.2-.7-.2-.9-.3-1.1.2-.2.4-.4.5-.9.5-.3.8-1,0-1.4l.5-.7c-.3,0-.8-.4-.3-.9-.3-1-.5-2.3.2-3.1.4-.5.7-.6,1.5-.6l-2-2.1c.3-.6-.2-.9-.3-1,.1-.3.5-.5.7-.6.3-.4.3-.8-.2-1.1.5-.6.4-1.4,0-1.9.6-1.1.5-2.1.6-3.3-.6-1.1-.6-1.8-1-3.2l1.1-2.1c.2-1,.5-1.9-.2-2.7-.9.4-1-.6-.9-.8-.6-.7-.1-1.3.7-1.6-.4-.3-.6-.7,0-1.2l-.5-1.7c.7.5.9.7,1.9.6-.3-.6-.7-.9-.5-1.9-.6-.3-1-1.2-.2-1.8-.2-.7,0-1.5.7-2.1-.1-.6.3-.8.5-.9l-.8-.7c-.3-.3-.5-.8.3-1.1-.5,0-.8-.7-.3-.9.9.1.9-1.2.1-1.1-.8-.2-.9-1-1-1.5.2-.3.3-.7,1-1.1-.5-.6-.8-1.4.1-2.1-.6-1.2-.8-2.2-.7-3.5,1,.1,1.4-.4,1.5-1-1,0-1.2-.9-.7-1.5-.3-.4-.6-.7-.7-.8.2-.3.8-.7.6-.6,0-1.1,0-1.3-.4-2.1,0-.8.6-1.6,1.5-1.8.7,0,.8-.9.2-1-.7.7-1.3,0-1-.8.5-.7.9-1.3.7-2.4.2-.5.5-.7,1.3-.7-.7-.8-1.1-1.9-.8-3,.3-1.3.3-2.5.2-3.9-.6-.1-.5-.9.2-.7l.4-1.4c.3-.6,0-1.4-.5-2,1,0,1.4-.4,1.2-1.3.8-.2.8-1.1,0-1.4-.1-1-.1-1.8,0-2.7,1.4-.8,1.6-2.2,1-3.7.8-.2,1,.6.7,1.1.8,0,1-.6,1.2-.9.2-.3,0-1-.7-.8-.8-.5-1.2-1.5-1-2.3,1.3-1.5,1.2-3.1.6-4.6.8-.4,1.4-.5,2.1-.2,0-1.1.5-1.4.9-1.6-.8-.8-1.5-1-1.9-1.2-.3-1.1-.2-1.7.6-2.3-.2-1.3.2-2.4,1.2-3.6-.7-.7-.8-1.7-.4-2.7.7-.4.7-1.1,0-1.6.4-.6.7-1.4,2-1.5.5-.8.5-2.4-.2-3.3.4-.4.6-.7.6-1.3.6,0,.9-.3,1-.4.2-.5,0-1.1-.5-1.2-.7.5-1-.3-.5-.7.4-.3.5-.7-.1-1.1.3-.2.6-.7,0-1.2l1.8-1.9c-.4-1.6-.1-2.4,0-3.9l.4-.9c-.6-.7-.2-1.5.3-1.7.5-.3.8-.4,1.7-.5-.5-.5-.7-.9-.8-1.6-.7-1,.1-2,1-2.2-1-1.2.2-1.9,1.2-1,.7-1.5-.6-1.9-1.4-1.6.1-.9.7-.7,1.1-.9-.6-.4-.6-1,.2-1.2l-.7-.8c.8-.1,1-.3,1.1-.5.1-.5,0-.9,0-1.4,0-1.3.2-2.1.6-3,.5-.9.6-1.5,0-2.4,0-.6,0-1,0-1.5.2,0,.6,0,1.3-.2-.3-1.2,0-1.7.5-2.5.5-1,.9-1.8.5-3.1.4-1,1-1.8,1.8-2.4,0-.8.6-1.2,1-1.4-1-.2-1.3-.4-1.5-.6.8-.7.4-1.4,0-1.8.5-.5.4-.9,0-1.3.8-.2,1.1-.4,1.7-1.1-.7-.6-.9-1.6-.1-2.4.7.4,1.2.2,1.4,0-.1-.2-.2-1,.8-1,0-1-.6-1.2-1.4-1.4,1.2-.1,1.2-.9.4-1.3.1-1.1.6-1.5,1.5-1.3.6,0,1-1.2.3-1.6-.5-.6-.2-1.7,1.1-1.8-.3-1.1,0-1.5.3-1.9.2-.9.2-1.5-.5-2.1.1-.3.5-.8,1-.9,1,0,1.5-.4,2.5-.9-.2-.9-.1-1.7.5-2.8.3-.3.8-.8.1-1.3.5-.9,1.3-1.6,2.5-1.9.4-.4.4-.7,0-1,.1-.3.3-.6.6-.9.5-.2.5-.7,0-.9.6-1,1.2-1.5,2.3-1.8-.9-.6-.3-1.4.5-1.1l-1.1-1.4c.7-.2.6-1,0-1-.5.8-1.4,0-.5-.5.2-.2.3-1.3.4-1,1.2-.7,1.4-.8,2.7-.5-.2-.9,0-1.3.5-1.7.2-.2.5,0,1.4.3-.5-1.3-.2-2.5,1-3,.6-.3,1-.7,1.6-.5l1.8-2.1c.2-.4.8-.5.9.3.4-.2.5-.7.5-1,.4-.7.8-1,1.7-1,0-.7.2-1.1,0-1.8,0-1,.7-1.7,1.6-1.7-.5,1.1.5,1.5,1.1.8-.3-.8-.3-1.2-.3-1.7,0-.2.6-.7,1.3-.2,1.3-.8,2.2-2,2.1-3.8.4-.5.9-.1,1.1.2.2-.5.5-.7,1-.5.8-.6,1.4-.8,2.5-1.1-.7-.9.1-1.5.5-1.1.2.4.8.3.8-.3-.7-.5,0-1.5.6-.5.6-.4.7-1.2.6-1.9,1.2-.2,1.4-.6,2.1-1.4.5.8,1,.8,1.3.5-.6-1.1,0-1.7.4-1.8.4-.2.8-.2,1.3,0,.2-.8.8-1,1.3-.8.8,0,1.3-.6,1.6-1.3.5-.4.8-.4,1.5-.3-.5-.9.3-1.5.9-.8.4-.5,1-1.1,1.9-1.1.2.6.8.7,1,0-.6-.5,0-1.5.6-.5l2.6-1.9c.8,0,1.3-.7,1.8-1.2.7.3,1.1.1,1.4-.6.8.4,1.4-.1,1.3-.8.8-.3,1.3-.3,2.1-.3.1-1.2.9-1.8,1.7-2.3.4.6.8.4,1.2,0,.6.9,1.4.1.9-.7.9.3,1.3.1,1.9-.5.1-.5.7-.8,1.1-.3.7.3,1.1,0,1.8-.2l1.4-1.4c.4.6.7.9,1.5.4-.5-.5.4-1.5.7-.3.2,0,.9-.8,1-1.2.9-.2,1.2.1,1.2,1,1.1-.5,1.6-1.2,2.1-1.9,1.1.1,1.5.4,1.8,1,1-.7,1.6-.8,2.3-.8.3.6.8.6,1.1.5.2-.2.3-.6.1-1.2,1.1-.4,1.5.4,1.7.7.9,0,1.1.1,1.8,0,0,0,.2-.5.7-.7,0,.8.9,1.4,1.6.4.4.2.7.8.8,1.2.9-.4,1.1.2,1.6-.2.9,0,1.4-.1,2.1-.8,0,.7.2,1,.5,1.2.3.5,1.2.2.8-.7,0-.8.9-.7.6,0,.2.8,1.1.8,1.4.1-.4-.6-.6-1-.6-1.1.3-.5.7-.3.8-.3.3.4.3.6.2,1.3,1.5-.5,2.5.3,2.5,1.8-.1.7.8.6.5,0,0-.7.9-.8.8.2.6,0,1.3-.3,2,.5,0-.2.3-.8,1-.4.7-.6,1.3.2.4.6.8,1.1.7,1.8,2,2.2-.2-1-.1-1.4.3-2,.4.8.6,1.1,1.1,1.3.2-.2.4-.3.8-.5.3.7,0,1.1-.5,1.5l2,.5c.4.6.8.9.8,1.5-.1.5.6.9,1,.3,0,0-.3-.3,0-.8.8.5,1.2.6,2,.5-.2,1,.5,1.4,1.4,1.1.7-.3,1.4.2.7,1,.9,0,1.4.6.5,1.3.9.2,1.1.3,1.8.8.5-.5,1.1-.6,1.4-.4l.8,1.2c0-.4.4-.8.8-.5.3,0,.7.6.2,1.1-.5.4-.3,1,.2,1.1.3-.7.8-.8,1.1-.7,0,.1.3.4.7.6.3-.6.8-.4.8,0,.1.8.5,1.3,1.2,1.8-.4.6,0,1,.3,1.1.3.3,1,0,.9-.5-.4-.5-.1-.9.3-1.1l.8.6c.2.8.8,1.4,1.8,1.2,0,.8.4,1.2,1,1.5-.8.7.2,1.2.6.9,0,0,.3-.3.7-.6.7.9,1.3,1.3,2.3,1.7.9-1,1.4.5.4.7.2.5.6.6,1.1.4-.3.9,0,1.1.3,1.4.3,0,.7,0,1-.6.9,0,1.1.2,1.1,1.1-.2.6,0,1.4.9,1.2,0,0,.3-.3.7-.6.1.5.2.9.8,1.2-.2.8.2,1.4,1.2,1.2.4-.4,1.1-.1.8.6.3.7.6,1.3.5,2.3.5-.2.9-.2,1.4,0,.1.1.4.6.2,1.2.4.9,1.1,1.3,2.1,1.6.4.5.4.8.5,1.1.2.3.6.4,1.2.3.6-.2,1,0,1.2.2,0,.2.1.9-.7,1.2.2.2.6.5,1.2.4.2,1,1,1.3,1.9,1,.7,0,1.1.1,1.5.6.2.2.3.6-.2,1.2.7-.2,1.6-.1,1.7.8.3.4.9.8.5,1.7.7-.1,1,0,1.2.3l-.3.7c.5.4.9.8,1.1,1.4.2.8.8,1.3,1.8,1.3-.2.6,0,1,.6,1.3.2,1.2.7,2.3,1.7,2.9,1.1-.1,1.6.3,2.5.8-.4.2-.7.6-.7,1.2.2.2.3.5,1.1.8-.2.5-.1,1.2.5,1.4.3.3.6.6,1.6.6l-1,1.2c1.3-.3,1.6,0,1.6,1.1.6-.2,1,.1,1.1.3,0,.5,0,.9-.1,1.5-.2.8.5,1.5,1.1.6.4.7.3,1.1.2,1.7,1.3.2,1.9,1.3,1.8,2.3,1,1.8,1.6,3.1,3.3,4.3l-.8,1c.2.3.6.4,1,.4.6.7.8,1.2.9,2.3.8-.3,1.2.4.5.9.6.4.6.7.6,1.1-.1,0-.3.3-.6.7.6.3,1.1.2,1.5.2l-.3,1.9c.4-.5,1.5,0,.7.7,0,.2.4,1,.5,1.4.6.2.7.8,0,1,.5.6,1.1,1,2,1.4.3.4.3.7-.2,1l1.1,1.3c-.6.3-.5.7-.1,1,.5.4,1,1,1.1,1.4.8-.3.8.5.5.7.6.9,0,1.4-.3,1.7.4.3.6.4.8,1,.4-.5,1.1-.1.8.5.2.6.4,1.1-.2,1.9.8.5,1.3,1,1.8,1.5-.4,1.2-.2,2,.1,2.7.3-.8.8-.6,1-.2-.1.6.3.8.5,1-.2.2-.5.2-.5,1,.5-.4,1.2,0,.8.7.5.6.6,1.4.4,2.2,0,.8.2,1.3.6,1.5.2.2.5.4,1.1.5-.6.7-.5,1.3.1,2.2.4,0,.8,0,.9.3,0,.2-.5.3-.3,1.1-.5.2-.7.8-.4,1.1.2.3.4.5.9.7-.1.7.1,1.2.7,1.6-.4.9,0,1.4.8,1.8,1-.1.9,1.1-.1.7v2.4c.8.1,1.1.6,1.6,1.5-.3,1.5,0,3.2,1.6,4.1-.6.8-.5,1.8.8,2.3,0,.9-.2,1.8.2,2.5.2.1.1,1.1.3,1.3,1.1.7,1,2.1.2,2.8.7.8.7,1.8.9,2.9,0,.5-.3.8.4,1.8.4-.4,1,0,.7.5-.2.3-.3.6-.4,1.3.5.2.9.7.7,1.3-.1.1-.4.4-.5.7.6.5.3,1,0,1.2.9.8,1.2,1.1,1.6,1.8-.4.3-.5.8.2,1.1-.5.7-.5,1.7.4,2.3.8.5.9,1.4.5,2,.8.4.8.9.8,1.3-.9-.5-1.5.6-.5.9-.4,1.6,0,3.2,1.2,4.6l-.6,1.9c-.6.4,0,.8.3.8,0,.3.2.7-.3,1.1l1.3,1.4c-.5,1-.7,1.5-.7,2.6.5-.5.9-.4,1.1-.4.4.3.4.6.5.7-.4,0-.9.3-.4.9-.2.4-.4.9,0,1.4,0,0,1.1.1.5,1.1.2,0,1.1.6.8,1.3-.2.1-.6.4-.7.8-.3.5-.4,1-.2,1.3l1,.9c-.7,0-1.1,0-1.2.7.8-.3,1.3.3.8.8-.2.9.5,1.5,1.1,1.9-.7.3-.8.8-.1,1.2-.4.3-.5.7-.2.9.2.2.4.5.9.7,0,1,.2,2-.4,3.1.5.4.8,1.2.1,2.1,1,.7,1,1.4.8,2.1-.8-.1-1.2.6-.7,1.1.3.2.6.4.9.7l-.6.6c.7.9,1.1.9,1.8,1.2-1,.4-1.2.5-1.4,1.8.4,0,1,.6.8,1.2-.1.1-.4.4-.6.9-.6.2-.8.7-.5,1.2.6.7.7,1.5.4,2.3.9,0,1.2.2,1.4.8-.3,1,0,1.6.7,2.3-.7.8-1.1,1-1.2,2.1-.4,0-.9.7-.6,1.1.1.3.3.6.9.6,0,.5,0,.9.7,1.1,0,.7,0,1.2.8,1.9-.8.5-1.2,1.3-.5,2.4l-1.6,1.4c1.3.8,1.5,1.3,1.4,2.6.7-.5,1.5.3.6.7,0,.6-.2,1.2-1.1,1.2-.6.6-.7,1.2-.2,2,0,0,.7.2.5,1,.4.4.8.9.7,1.4l-.9.8c.9,1.1.9,1.8.9,3,1.2-.4,1.4.9.3.8-.5.2-1,.8-.9.8.8.6,0,1.2-.5.8-.1.9.2,1.2.5,1.8.6.9.7,1.6,0,2.3.8,0,1,.2,1.2.4-.8.4-.8,1.2.1,1.7-.9.8-1.1,2.1-.2,3,0,.7.4,1.2,1.4,1.1-.4.6-.7.5-1.5.9-.4-.2-1.3.3-.4.8,0,.8,0,1.6.7,2-.9.1-.9.9-.2,1,0,.3-.2.5-.4.7l.7.8c.6.4.6,1.1,0,1.6.5.7.8,1.6,1,2.8,0,.3-.3.7-.5.8-.2.2,0,1.1.9.7.6.4,0,1.2-.7.7-.5.9,0,1.2.3,1.6-.7.4-.7.9-.2,1.5-.4.5,0,.8.1.9-.1.2-.3.5-.8.8-.9-.1-.9,1.1.2.6-.2,1.3-.1,1.6.2,2.6l.6.8c-.1.1-.4.3-.7.9l1.4.2c.1.1.5.3.4,1-.8-.5-1.1,0-1,.6,0,.9-.2,1.6-.8,2,.6.6.5,1.2.2,1.8.4.5.9,1.2,1.2,2,.5.4.4.8,0,1.6-.8.2-1.5.5-1.9,1.9.7.3,1.4,1.1,1.7,2,1,0,1.1,1.1.1,1.3.2.5.5.7,1.2.6-.5.8-1,1.2-1.6,1.7-.3-.8-.9-.5-1,0,0,.7,0,1.1.8,1.5-.4.7,0,1.6.7,2,.6,1.2.8,2.1-.4,3.2-.5-.4-1.4.2-.5.7.6-.6,1.6,0,.7.6,0,.6.5,1.5,1.5,2.1-1.3,1-1.6,1.8-1.5,2.9.7.1.7.9-.2.9,0,.6.1,1.7,1,2,.4.3.2,1.3-.1,1.8.7.2.6.9,0,1-.2.6.1,1.3,1.1,1-.1.7-.7.7-1,.6-.7.4-.7,1-.4,1.2.8-.2.8.6.6.8l-.6.8c0,.9.1,1.1.7,1.5.2.4,0,.9-.4,1.1-.2.5-.2.9.2,1.2,0,0,.5-.2.8.3-.6.3-.9.7-1.1,1.1-.1.5.1,1,.8,1.4.6.4.6,1,.1,1.2-.2-.8-.9-.5-.8,0,0,.9.2,1.4,1.1,1.5-.6.8-1.1,1.2-2.3,1.7.2.6.5.9,1.4.8-.5.9-.3,1.3.1,1.8,0,0,.4-.7.9,0-1.2.5-.4,1.9.4.9.6.1.9.4,1.1.5l.7-.6c.2.9.5,1.2,1.5,1.3.2-.5.6-.7,1.2-.7,1,.8,2.6,1,3.7.2l1.1.3c.6.5,1.1,1.2,2.3,1.5.4-.7.9-1,1.4-.9.2,0,.7,0,1,.9.6-.5,1.2,0,.6.7.9.5,1.3,1,1,2,.7,0,.8-.4,1-.5.3.1.5.3.6.7.7.2,1.1.7.8,1.5.7,1.4.8,2.7.6,3.9-1.1,0-1.4.8-1.5,1.6-.5.4-.4,1.1.3,1.2v4.2c-.7.6-1.1,1.7,0,2.6-.4.2-.7.7-.6,1.2,0,.5.2.9.6,1.5.3.7.5.9.4,1.9-.4,0-.8,0-1,.3-.1.3-.1.8.6,1.1-.2.4-.6.6-1.1.3v2c0,.4.3.7.5.8-.3.2-.6.5-.6.8,0,.9,0,1.4.7,1.9-.2,1.1,0,2,1.1,2.6-.6.3-1.2.8-1.2,1.8l.3,1.3c-1.5.4-1.1,1.9-.3,2.4-.7-.3-1.4,0-1,.9-1,.7-.9,2,0,2.8,0,.7.5,1.1,1.1,1.6-.3.4-1,.6-1.5-.3-.6.6-.4,1.7.3,2.3-.1,1,.8,1.1,1.4.9.4,1-.3.9-.7,1-.6.9-1.1,0-.8-.5-.8-1.1-1.6.1-.9.6.2.8.4,1.2,1.3,1.3.5,0,1,1,0,.9-.4.5-1,1.5-1,2.5-.4.5-.7.9-.6,1.5l1,1c-.8.3-1.1.8-1,1.5-.5.4-.6.5-.8,1.5.6.3.1,1.4-.5.6-.9.2-1.7-.2-2-.9l-.9,1c.3.2.5.4.5,1.2-.1.1-.5-.2-1.1-.4l-2.1-.9c0,.5-.4,1.1-1.1.8,0,0-.4-.2-.7-.4-.4.4-1,.5-1.5.2-.9,0-1.8.1-2.7.9-.2-.4-.6-.7-1.2-.6-.5,0-.9.2-1.4.6.3-.8-.4-1.4-.9-.7-1.4.4-3,.1-4.4.1-.1.7-.8.7-1,.2,0-.6-.8-1-1.1-.2h-2c-.6-.6-1.5-.7-2.3.1l-.8-.8c-1.3.5-2.2.4-3.1-.7-.9,1-2,1.1-2.9.1-.8.7-1.6.6-2.2.2-.3.5-.8.5-1,0-.2,0-.5.4-.7.5l-.9-.6c-2.1,0-3.9.3-6-.2-.7.2-1.6.3-2.2-.6-1.1.5-1.8.5-3,.5-.5-.7-1.4-1.2-2.4-1.1l-3.6.3c-.4-.4-.6-.5-.9-.6l-.7.4c-.4-.7-1.1-.7-1.6,0-.6-.5-1.1-.8-2.3-.3-.2-.5-.8-.9-1.3-.2-.4-.4-1.1-.8-2.2-.6-.7-.5-1.5-.8-2.4.1-.5-.4-1.1-.6-1.8.2-.4-.8-.9-1-1.6-.7-.4.3-.7.5-1,.6-.4,0-.7-.1-.9-.8-.7.2-1.1.3-1.9-.3-.2.5-.6.8-1.1.5-.3-.4-.5-.6-.8-.7-.2.2-.3.4-.9.6-.3-.7-1-.9-1.4-.1-.3-.3-.8-.5-1.5-.5,0-.7-.6-.7-.8-.2-1.2.3-2.2,0-3.4-.1-.9,0-1.8-.3-2.6.2l-2.8-.7c-.5-.2-.9-.4-1.4-.2-.5.3-1,.2-1.4-.2-.3.8-.8.8-1.4.6-.6-.4-.9-.6-1.9-.6-.2.2-.9.6-1.3,0-.9,0-2,.2-3-.6l-.6.6-.6-.6c-.4,1-1.1.9-1.6,0-.6.8-1.8,1.3-2.5-.2-.2.6-1.1,1.2-2.1.4-.8.5-1.3.5-2-.6-.1.8-.6,1-1.2.9-.1,0-.5-.2-.7-.4-.8.9-1.8.5-2.4,0-.3.6-.8.6-1.2.3-.2-.4-.7-.4-.9-.1.3.1.4.7-.2.8l-1.2-1.1c-.6.5-1.4.4-2.2.1-.2.8-.6.8-.8.9l-.9-.5-.9.6-.9-.9c-.6.6-1.1.6-1.8.5-1.3-.4-2.5-.2-3.5.3-1.1,0-2,.2-2.7-.9-.7.8-1.7,1-2.9.7,0,.8-.7,1.1-1.2.4-.1,0-.5.3-.7.4l-.8-.6-2.3.6c-.3-.5-.6-.5-1.1-.4,0,.1-.4.4-.7.5-.5-.8-1.2-.8-1.7,0-.5-.6-1.4-.7-2.1,0l-3.9-.5c-.3.3-.8.3-1.6.4-.8,0-1.4-.3-2.4,0-.6-.3-1.5-.4-1.8-.2,0,.8-1.1.6-1.3.3-.6-.4-1.1,0-1.4.4-.3-.6-.8-.5-1.1-.1l-1.6-.2c-.6,0-1.1,0-1.5-.7-1.1.8-2.4,1.2-4,.6-.5.3-1,.5-1.8-.2-.3.6-.9.8-1.4.2-.2,0-.6.5-.7.5-1.6-.9-3-.8-4.5,0-.5-.2-1-.4-1.4-.4l-.8.6c-.1-1-.9-1-1.3-.5-.9-.1-1.1-.2-1.7-.7.2.8-.4,1.2-.9.7-.3-.2-1.2-.3-1.4-.2-.7.8-1.5.6-2.1.2-.4-.3-1.1-.4-1.5.2h-4.6c-.5.1-1.3.2-2.1-.4-.9.6-2,.6-2.9.4-.7.9-1.6.3-1.9-.4-.5.2-.7.4-.9.6-.2-.2-.4-.4-.9-.6-.9.7-2.1.9-3-.2l-.8.8c-.1-.2-.4-.5-.9-.5-.8-.5-1.5-.6-2.3,0-.6-.9-1.4-1-2.1-.4-.4,0-.9,0-1.2-.4-.1.2-.4.6-.9.5-.5.2-.9.3-1.5,0l-.9-.8c-.6.6-1,.8-1.5.8l-1-.9c-.4.6-.9.6-1,.5-.3-.2-.7-.3-.8-1.2-.5.1-1,.4-1.4.8-.3-.7-.9-.8-1.4-.2-1.4-.5-2.4-.3-3.5.2,0-.8-.3-1.1-1-1.1l-.9.5c.2-.7-.2-1.1-.8-.8-.2.6-.5.8-.8.8-.2,0-.6,0-.9-.5-1.8.1-3.4,0-5.1-.6-.3.6-.7.5-1,0l-.7.5c-.4,0-.8,0-1.1-.6-.2.2-.5.6-.9.7-.7-.4-1.3-.4-1.9,0-2-.5-3.9-.4-5.9,0-.9-.4-1.5-.2-2.3.3,0-.9-.4-1.2-1.4-1-.4.3-1,.7-1.4.6-.3,0-.7-.1-1.1-.7l-.8.7c-1-.5-1.3-.5-2.1-.6-.3-.1-.6-.4-.8-.7-.1.1-.3.7-1.1.4-.2.5-.8.9-1.3.7-.4.2-1,0-1.3-.7l-1.1.7c-.2-.2-.5-.3-.9-.9-.8,0-1.2.4-1.5.8-.4-.4-.8-.4-1.2.1-.4-.5-1.1-.9-2.2-.3-.6-.7-1.5-.6-1.9.2-.7-.2-1.1,0-1.7.5-.8-1.4-1.5-1-2.4-.6-.5.2-1.1.5-1.4-.6-.4.5-1.4.5-1.5-.4-.4-1-.8-1.9-.5-3,.9-.2.7-1.2,0-1.3-.7.2-.9-.5-.7-.9l.6-.8c-1,0-1.4-.4-1.3-1.3.3-.5,0-1.2-.6-1.2h0ZM122.8,106.1c1.2.7,1.7.2,2,0-.2-.2-.4-.4-.9-.9,0,.4-.6.7-.9.3-.3-.2-.6-.6-.2-1.1.8-.4,1-1.3.4-2-.8.3-1.3.1-1.5.1-.2-.5-.2-.8-.3-1.7.3-.4.6-.9.2-1.8.8-.5,1.2-1.2,1-2.1,1.1.6,1.6-.7.6-1.1-1,.6-1.6-.2-1.4-.6,0-.6.4-1,1.1-1,.6-.3.8-.8.5-1.3-.8,0-1.1-.7-.9-1.2.2-.1.6-.4.7-.8.2-1.1,0-1.8-.9-2.4.4-.6.6-.9.7-1-.1-.3-.4-.6-.9-.4-.2-.7,0-1.1.5-1.7.4-.5.9-.8.8-1.8.4.2.8,0,.9-.3.4-.3,0-1.1-.6-.6-.4.3-1.1-.4-.3-1.1-1.1-.7-1.8-1.5-2-2.6.7.4,1.2,0,1.1-.8.8.3,1.7-.4.8-1.4,0,.4-.6.9-1,.5,0-.1-.4-.3-.4-.9.6.5,1.3.2,1.2-.6.9-.4.3-1.7-.6-.6-.3-1.2,0-1.8,1.2-2.6-.5-.2-.9-.7-.2-1.3l-1.8-1.9c1.1-.7,1.3-1.2,1.8-2.3l-.4-.6.6-.8c-1.1,0-1.6,0-2.1-.4.8-.3,1.2-.3,2-.2.3-.8.3-1.4,0-1.9-1,.4-1.3-.6-.7-1,.6-.2.4-.9-.2-.8-.9.5-1.5-.6-.3-1-.6-1,0-1.5.8-1.3l.8-2.1c-.4-.2-1-.4-1.1-1.4.7.5,1.4-.5.5-.7-1.2.8-1.5-1,0-.5.4-.6.5-1.2.7-1.7l-1.8-.3c.8-.5.9-.8,1.3-1.2,0-.5-.2-.9-1-1.4.7-.9.6-1.5-.3-2.1.5-.5.9-.7,1.1-1.4-1.3.3-1.4-1.2,0-.9-.1-.3,0-1.1.7-1,.6,0,.7-.8,0-.7-.8.5-1.4-.2-1.2-.7,0-.3.2-.5.5-.6-.7-.8-.1-1.4.6-1.6-.4-.8-.5-1.3-.7-2.4.6-.7,1.4-1,2-1.3l-.6-1.5c-.9.3-1.4-.3-.7-1.2-1,0-1.2-.5-1-.9,0-.6.5-.8.9-.7-.6-1,.1-1.2.5-1.4.3.2.5.4.7.7.4-.9.3-1.4.2-1.8-.5-.4-.3-.9,0-1.2-.8-.1-1.1.1-1.7.3l.4-1.3c-.3-.2-.4-.7-.2-.9l.9-.9c-.4,0-.7-.8,0-.9.9.4.9-.9,0-.5-.6-.5-.4-1.3,0-1.8-1.4.2-1.4-1.1-.2-.8,0-.8.4-1.2,1.5-1.1-.3-.6-.5-1.1-1.6-1.1v-2c.3.2.8.2,1.1-.5.1,0,.4-.5-.2-.7-.6.1-.8.5-1,.6-.3-.3-.3-.5-.5-1.1-.9,1-1.9,1.5-3.2,2.1-1.2.1-2.2.6-3,1.7-.7-.5-1.2-.2-1.5.4-1.9-.3-3.8.5-5.1,2-.8-.5-1.4.4-.7.9l-1.9.2c-.7-.3-1.3.3-.5.9-.9.2-1.2.5-1.6.8-1.6.5-2.5.9-3.9,1.8.6.8-.2,1.5-.8.5l-.8,1.6c-.3,0-.8-.1-1.2,0-1.2,1.3-2.5,1.5-4.2,1.5l1.1,1.6c-.9,0-1.5.3-1.8,1.3-.7-.1-1.3,0-1.9.4.2.7-.2,1-.6,1.2-.8.2-1,.4-1.2,1.4-.4-.6-.8-.7-1.2-.4-.2.1-.6.4-.4,1-.5.4-.8.8-.7,1.6-.9,0-1.2.4-1.4,1-.9,0-1.3.6-1.6,1.2.7.2.7.8.3,1.1-.2.4-.4.7-.6.8-.3-.3-.7-.9-.6-.7-1.1,0-1.5.5-1.5,1.1,0,0,.3.3.5.7-.8.1-1.2.5-1.2,1.3-.4.3-.7.6-1.2.7-.7,0-1,.8-.2,1.2,1,.7-.5,2.2-1.1.5-.4.5-.7.7-1.7,1.4l.9,1c-.6.8-1,.7-1.4,1,1,.1,1.5.5,1.1,1.5-.4-.5-.8-.6-1.1-.3-.5.2-.7.8,0,1.2.9,0,1.6.5,1.3,1.5.9,0,1.3.4,1.1,1.2l2.1,2.3c-.5.7-.4,1.6.6,1.9-.1.8.4,1.7,1.6,1.7-.1.8.1,1.2.5,1.6.2.2.7.2,1.1-.4,0,1.2.4,1.6,1.1,2.1,0,.5.2.8.8,1.2-.2.2-.6.4-.6,1,.8-.5,1.6-.2,1.9.7.2,0,.8.8-.2,1.3.6.9,1.4,1.4,2.4,1.2.2,2,1.3,3.1,2.1,4.1,1.2-.2,1.7.9,1.9,1.7l3.4,3.5c-.8.7,0,1.6.8.7.2.8.5,1.1.8,1.5-.3,1.3.4,2,1.4,2.4,0,1.2.6,1.9,1.9,2.4,0,.7.1,1.7.7,1.9,1.3.5,1.6,1.6,1.4,3.1.7-.2,1.4,0,1.6.6.2.2,1.1.8,0,1.4.5,1.1,1.2,2,2.4,2.6-.4,1.3.5,1.9,1.3,2.2-.4,1.2,0,1.5.4,2.1.5.7,1.2,1.3,1.1,2.4,0,.5.7,1.1,1.3,1.2.5,0,1.2.5,1.1,1.3.5.6,1.3,1.3.9,2.5l2.6,2.3c.5.8,1,1.6,1.1,2.3,1.2,0,1.5.7,1.9,1.4,1.1-.9.8-1.8,1.2-2.4-.8-.4-.7-1.2,0-1.6-.3-.7-.4-1.4-.7-1.9-.5-.6-.5-1.8,0-2.4h0ZM154.1,99.6c0-1,.5-1.1.9-1.3.5-.2,1.3-.5,1-1.6.9-.3,1.5-.7,2.4-1.9-.1,0-.5-.3-.7-.7,1.8-.5,2.8-1.6,3.3-3.1,1.2.2,1.1-.9,1.1-1.2,1.1,0,1.4-.6,1.6-1.3-1-.1-1.5-.3-1.9-1.1.7,0,1,.2,1.5,0l.9-.8,1.2,1c.6-.3.6-.8.5-1,0-.3-.2-.5-.5-.7.7-.4.7-.9.6-1.3l.9-.7c.2.2.3.5.9.5-.2-.8-.2-1.5.5-1.9.3-1.1.7-2.3,1.8-2.8.9-.4,1.4-.7,2.6-.4,0-1-.8-1.1-1.3-.9.3-.7.7-1,1.2-1.6.7-.9,1.7-1,2.7-.6,0-1.1,0-1.4-.3-2.5.4-.2,1.2-.6,1.2-1.2-1.2-.7.2-1.7.5-.9-.5,1.1.8.9.7.3.3-.3.1-.8-.4-.9.9-.7,1.4-.9,2.4-1.1-.1-.9.1-1.8,1.3-2.2-.4-.9.3-1.4,1-1,.6-.9,1.1-.9,2.1-.9-.3-.8-.8-.6-1.4-.8.9-.4,1.3-.4,1.7-.7.3-.6.3-1.1.2-1.8.7.1,1.1,0,1.3-.7,1.3-.3,2.4-1.3,2.6-2.4l2.2-.8c-.5-.3-.6-.7-.5-1,.1-.3.3-.5.6-.7.2.3.4.6.8.7.2-.8-.1-1.3-.8-1.8l.9-1c.3-.4-.1-1-.6-.7-.7,1.1-2-.1-.8-.9,0-.4-.5-1.2-1.2-1.3-1,.7-1.4-.7,0-.6,0-.8-.7-1.3-1.6-1.2-.6,0-1-.4-1.1-.8l.4-.6c-.5-.8-.9-1-1.8-.9.1-.7.3-1,.7-1.6-1.1,0-1.5-.4-2-1.4-.6.2-1.4.1-1.7-.4.6-.7.2-1.1-.2-1.3-.1,0-.3.3-.8.5-.2-1.3-.9-1.7-1.9-2,.8-.6.2-1.3-.5-1.1-.7-.8-1.4-1.2-2.6-1.1.4-1.1,0-1.7-.8-2l-2.7-1.1v-1.6c-.7,0-1,0-1.4-.2l-.4-1.1h-4.2c.2-.6.6-.8,1.4-.6-.2-.6-.6-.8-1.3-.6.3-.9.1-1.4-.3-1.8-.3.7-.8,1-1.6.4-.5.8-1.7-.2-.4-.6-.4-.4-.7-1-2-1,.6-.9-.3-1.6-1.1-1-1.3-1-2.4-1.6-4.1-1.4.1-.7-.1-1-.3-1.2-.4,0-.7,0-1.6,0,0-.5.5-.8.8-.9-1.1-.1-1.4-.5-1.5-1.4-.8.7-2,1-2.9,0-.4.2-1.3-.3-.4-.9,0-.2-.5-.9-1.5-.7v-1.6c-1.1.4-1.7.2-2.3-.4h-3.8c-.2-.8-.8-.8-1.2-.6-.5-.9-.2-1.1.5-1.7-.9.1-1.4,0-2-.7-.7-.3-1.2.4-.3.9-1.1.1-1.4.5-1.2,1.5,0,.4-.4.7-.6.8.2.1.6.4.5.9,0,.4.4.7.7.9-.2.2-.4.4-.8.9.5.5.5,1,.2,1.5,0,0-.6.1-.5,1-.4.3-.9.8-.2,1.4-.4.3-.6.7-.5,1.2.1.2.4.4.4,1,.6.4.9.9.8,1.4.1.6-.4,1.1-.9,1.3l1.5,3.1c-.8.2-1.2.1-1.8,0-.4,1.3.1,2,1.1,2.7.2.7-.2,1.2-1.2,1.2.7.8.7,1.6.6,2.7.6.3.6.8.6,1.1-.3.2-.5.3-1.4.5l2.2,2.2c-.7.6-.9.8-.9,1.8-.6-.5-1.4.2-.7.7-.1.5-.6,1-1,1.3,1.2,1,2,1.7,2.4,3.3-.6-.4-.9-.8-1.9-.5.7.7,1.1,1.2,1.5,2.3-.5.5-.7.9-.7,1.4l.6.9c.9.2.7,1.5-.2,1.2-.7,0-1,1.1-.1,1.7-1.1.5-.5,1.3,0,1.3.8.6,1.1,1.2.8,2.4-.3.4-.7.8-.6,1.4l.9.9-.8.9c.3.3.5.3,1.2.5-.6.5-.7,1-1,1.6-.1-.9-.4-1.3-1.1-.8.6,1.8,1.1,2.5,2.4,3.9l-2.5.9,2.4,2.6-2.5,1.7,2.1,2.8c-.7-.1-1.2.3-.8.9.8.2,1,.8.8,1.3-.2,0-.6.4-.3,1-.7.8-.9,1.2-.9,2.6.4,0,1.2.6.6,1.6-.2-.5-.7-.6-.9-.4-.2.1-.5.4-.6.8,1-.1,1.4.5,1.7,1,0,.5.3,1.2-.8,1.7,0,0,.5.8-.3,1.2l1.8,1.9c-.8,0-1.1.2-1.3.5.8.3.7.9.7,1.1-.3.3-.5.4-1.3.3l2.1,2.4c-.7.5-1.2.6-1.4.8-.1.3,0,.8.6,1v3.4c-.7-.1-1.1,0-1.4.5,1.2,0,1.4.6,1.5,1.2.6.2.7.6.6,1,0,0-.4.4-.6.6.9.6.3,1.4-.6,1.1.4.4.7.8.6,1.5.7.2.7.7.6,1-.2.3-.6.4-1.2.2-.3,1.7.3,2.9,1.2,4.1l-2,.3c.8.7,1,1.3.6,2.3.3.5.5,1,1.6,1.2-.2-.6-.3-.9,0-1.4.1.2.6.4.9-.1-.8-.6-.2-1.4.8-.9-.2-1.1,0-1.7,1-2-.2-.6.4-1.2,1-.4.4-.3.5-.9-.2-1.3-.6-.5.2-1.4.8-.4.4-.4.6-.9,1.9-1.2-.3-1.1.3-1.7,1.2-2,.7,0,1.2-.7.7-1.3-.5-.5,0-1,.6-.7.3-.7.9-1,1.7-.2.2-.4.3-1,.3-1.6-.2-.8.4-1.3,1.2-1,.9-.4,1.1-1.2.2-1.9l1.5-1.5h0ZM85.5,126.9c.2-.3.5-.5.8-.6.2.1.3.4.9.4.3.5.9.6,1.2.3l.8-1c.2.3.5.5.7.6.2.1.9,0,.8-.6-.2-.6.8-.7.6,0,0,.7.6,1.2,1.2.9-.2-1,0-1.4.5-1.7,0-.2.8-.4.5.4,1,.8,2.1.9,3.2,0,.2-.5,1.1-.7,1.1,0-.3,1.1,1.5.8.9,0-1-.7.7-1.6.7-.7.6,1.2,2.2,1.5,3.2.9-.8-.9.2-1.7.7-.9.3.3,1-.4.5-.8.7,0,1.2.4,1,1.1.4.4.7.8.8,1.8.6-.3.9-.7,1-1.1-.9-.4,0-1.1.4-.6.4.4.8.5,1.1.4.3,0,.8-.6,0-1.2.6-.8,0-1.6-.7-1.5-.4,0-.8-.4-.8-.9.4-.8-.5-2-1.4-1.3-.6,0-1.4-1.2-.3-2-.4-.2-.8-.7-.7-1.5-.2-.6-.4-.8-1.3-.7-.5.7-1.4,0-.7-.5.8.4,1-.5.4-.7-.3-.7-.6-1.3-.5-2.4-.3-.2-.9-.8-1.3-1-.4.9-1,.1-.5-.3.4-.8,0-1.2-.1-1.3-.5-.5-.8-.4-1.3-.2.6-.6.7-1,.2-1.5-.8.5-1.2,0-1.4-.5.2-.2.4-.4.6-.7-.9,0-1.2-.6-1.1-1.4-.7-.7-1.1-.7-1.7-.9.7-.8.8-1.1.7-2.5-.6-.2-1.8-.5-2-1.4,0-.8-.7-1.3-1.2-1.7.3-.8,0-1.2-.6-1.4.2-.6,0-1-.3-1.1-.4-.3-.7-.4-1.5,0l.7-2.3c-.7,0-.8.3-.9.5-.3-.3-.4-.5-.6-.9-.9,0-1.2-.7-.8-1.5.2-.6.2-.9.3-1.5,0-.2-.5-.6-1.1-.2-.5-.6-.5-1.1-.4-1.8-.6,0-.8.3-.9.4-.2-.2-.3-.4-1.1-.7.4-.7.4-1.4,0-2.1-.2-.3-.6-.7-1.4-.8l.6-1.2c-1.4,0-1.9-.5-2.3-1.6.8.3,1.2-.4.8-.7-1,.4-1.2-.5-1.3-.6-.3.8-1.2.4-.6-.3-.4-.2-1.4-.5-1.4-1.6-.3-.3-.7-.8,0-1.4-.2-.6-1.5-.6-1.1.5-.4.7-1.3-.1-.5-.7.2-.8.2-1.2.2-1.4-.5-.5-.6-.6-1.8-.7.5-.2.9-.7.4-1.2,0-.7-.4-1.3-1.3-1.1-.3-.7-.6-.9-1.1-1.5.5-.3.7-.8.3-1.1,0-.4-.5-.7-1-.5-.7-.1-1-.6-1-1.2,0-1.3-.7-2.2-1.7-2.7.2-.9,0-1.4-.6-2.1-.5.4-.8.9-.4,1.8l-1.2-.6c0,.9.5,1.4.4,1.8-1.3-.9-2.2.3-1.5,1.2-.1.6-.5.9-1.3.8.5.7.7,1.4,0,2.3-.3-.2-1-.2-1.1.5.7-.1.9,0,1.3.3,0,0,.3.3.3.8-1,.8-1.8,1.7-1.6,3.1.8-.4,1.3.4.9.7-1,.4-1.3.6-2.2.7.3.7,0,1.3-.2,1.6l.4,2.3c-.5.3-1.5,1.3-.8,2.4-.3.4-.7.9-1.2,1.2.8.6,1,.9,1.3,1.2,0,.5-.1.9-.9,1.5-.2-.5-.8-.6-1-.3-.6.3-.7.9-.2,1.5-.9.5-.8,1-.8,1.4,0,.2.4.3.4,1.2.4,0,.9.8,0,1-.5.2-.7.8-1.1,1.4.8.8-.5,1.5-1,.4-.7.6-.5,1.6.2,2.1l-1,1.2c.4.7.3,1.5-.5,2.1.5.9.5,1.5.3,2.3,1,.2.8,1.2.2,1.4-.7.3-1.1.9-.8,1.7.9-.5,1.4.3,1.1.7-1.3-.3-1.6.3-1.9.5-.4.4-.4,1.2-.4,1.7-.5.6,0,1.1.9.9-.7.7-1.1,1.5-1.3,2.9-.8,0-1,1.5.2,1.3.1-.3,0,.5-.6.8-.4,0-.7,0-.8.4-.3.2-.1,1.3.8.8.6.3,0,1.3-.7.6-.4.7-.8.7-1.3.7-.4,1.3-.3,2.2.3,3.4-.8-.6-1.3.4-.7.8.6.5,1,.7,1,2,.5-.7,1.2,0,.8.3-1.3.4-1.6.7-2.8.7.2.5.3.6,1,1.2-.8.4-.7,1.2.3,1.2-.2.5,0,.9.3,1.1.3,0,.7,0,1-.6.7-.1,1.1.2,1.8.4.8.4,1.7.3,2-.3-.2-.7.9-.7.9-.1.2.6.8.9,1.4.9,1,.5,1.6.5,2.9.1-.2-.7.4-1.2.9-1.4.5-.2,1.2-.4,1.7.5l.9-.7h2c0,0,.9-.3.9-.3,0,.3.3,1,.9.4.4,0,.8.6,0,.8.2.4,1,.5,1.3-.2,1,.1,1.8-.3,2.4-1.2.6-.4,1.4.2.5.8.1.6,1.2.6,1.1-.3.4-.5,1-.7,1.8-.5-.3.9.4,1.4,1.1,1.1l1.5-.7c.5.8,1.5.8,2,.2.5.8,1.2.8,1.7,0,.2.3.7.7,1.1.1h0ZM183.4,123.1c.8,1,1.6,1,2.2.8.2-.9.6-1.1,1.2-1.3,0,.9.4,1.3,1.5,1.3.3,0,.9-.7.3-1.5.5-.4,1-.3,1.3-.1l.9,1.6c.3-.4.7-.7.9-1.6.4-.4,1.4,0,1.2.8l1,1.3c.8-.7.9-1.2,1.2-1.8l1.2,1.3,1.3-.8c.2,1.2,1.6.8,1.2,0-1-.3-.2-1.7.4-.6,0-.1.8-.5.9-.2-.3.9.4,1.2.7,1.3-.3,1,1,.7.6,0-.8-1,.9-1.5.6-.1.4.2.8,0,.9-.3.4.8,1.1.6,1.3.2-.6-.4-.6-.9-.5-1.2.2-.3.4-.7,1.4-.4.2.5,1,1.5,1.8.8,1.1.4,2.2.3,3.2-.7,0,.9.2,1.4.5,1.7.4.2.8.3,1.6-.2.5.8,1.6,0,.5-.6.2-.6,1.1-.7,1.4.3.4-.4.8-.5,1.5-.6,0-.8,1-.4.4.2.4.8,1.5.8,2.1.2-1-.5-.2-1.2,0-1.2.6-.4,1-.3,1.5,0,.5,1.1,1.7,1.4,2.8,1.2.4.4.9-.3.5-.6,0-.4-.4-1-1.2-.4-.4-.4,0-1.2.6-1h1.4c0,.2.3.3.5,1.4.6-.6,1.4-.6,1.9.2.3,0,.6-.2.8-.4.3-.2.4-.7-.3-.9.7-.6.8-1.5.2-2.4-.2-.1-.5-.3-.6-.6,0-.2.2-.4.4-.7-.6-.3-.7-.8-.5-1.4-.7-.2-.8-.6-.8-.9l.6-.7c-.6-.4-.8-.7-1.1-1.2.2-.1.4-.4.4-.7-.2-.5-.1-.8-.6-1.5-.3.4-.8.6-1.3.2.3-1,.4-1.5,0-2.7.8,0,1-.8.6-1.2l-1.1-.2c.2-1.3-.2-2.1-.8-2.8l-1.1-2.5c-.4-.1-.6-.3-.8-.6.1-.1.4-.4.3-.7,0-.9-.3-1.5-.7-2.2l-.7-1.8c-.3-1-.9-1.9-1.4-2.7,0-1.8-.6-3-1.7-4,.6-.3.5-.8,0-1-.5-.8-1.1-1.2-2-1.7.2-.4.4-.7.6-.9-.3-.1-.7-.4-.4-.9l-1.6-3.5c.2-.9,0-1.6-1-1.9.2-.9,0-1.5-.3-1.9.1,1.4-.9,1.5-1.1.4-.1-.7,0-1.3-.6-2.2.6-.9.2-2-.8-2.4-.2-.5-.4-.6-.6-.8.2-.2.4-.4.6-.8l-1.9-1.8c.2-1,.1-1.7,0-2.3-.5-.7-1.3-.4-1.1.4,0,.6-.7.7-.7,0,.6-.6,0-1.4-.6-.9-.3.5-.6.7-.8.9l-.9-.8c.5-.6-.2-1.4-.8-.6.4.9.3,1.6,0,2-.4-.8-.9-.7-1.2-.6-.2.2-.6.6-.2,1.2-.4.8-.8,1.3-1.9,1.3l.2,1.6c-1.4-.2-1.8.8-1.8,1.7-.6.7-.9.9-2,.8.2.5.4.6.7.8-.2.2-.5.3-.7,1.1-.6-.4-1.2,0-1.4.3-.3.4-.4.6-.3,1.4-.6-.4-.9-.7-1.7-1,.2,1.6,0,2.3-1.1,2.9.1.6-.2,1.1-.8,1.4-.9.3-1.4.8-2.2,1.6-.3,1-.4,1.8-2.1,2.3.4.2.2,1-.4.7-1.1.5-2,1.8-2.3,3.3-.9,0-1.2.4-1.3,1.1-.6,1-.9,1.5-2.4,1.5l.6.8-.7.7c.2.8-.4.9-.8.9-1,.4-1.5.7-2.1,1.7-.4-.2-.8,0-1,.3,0,.4,0,.6.4,1.1.5.6,0,1.2-.6.6-.6-.4-1.3,0-1.2.9,0,.7-.4,1.2-1.2.9-.5.2-1,.7-.6,1.6-.7.3-1.3.5-1.8.8-.4.7-.6,1.1-.5,2.3l-1.2-1.2-.9,2.5c0,1.2-.9,2-1.9,2.5.1.9-.8.9-1.2.5,0,1.6-.4,2.1-1.1,2.9-.5.4-.8.8-.8,1.6-.8-.1-1.2,0-1.6.9,0,0,.4.5.2.8-.7.1-1.1,0-1.2-.5l-.8.8c.4.5.3,1.2.2,1.5-.4.5-.5.7-1.6.8.7.3.2,2.1-.7.8-.8.5-1.1,1.4-1.2,2.5-.2-.8-1.1-.6-.9.2l-1.9,1.8c.3.5.6.8,1,1.1.1-1,1-1.5,1.7-.7.3-.5.6-1,1.4-1.5.7.5.7.7.7,1.5.6-.3.7-.6.7-1.3.5.5.8.9,1.6,1.3,0,.7.7.7.7,0,.9,0,1.3-.2,1.8-.4l-.2-1.6c.4-.4.9-.1,1,.2.3.3,0,.7-.4,1.1,1.2.3,1.9-.6,1.9-1.7.7,0,1.1.6.9,1.2.2.8.6,1.3,1.4,1.8,0-.7,0-.9.4-1.2.4.7.8.8,1.1.8.2,0,1-.2.8-1,.1-.6,1.2-.8,1.3.4.6-.2.7-.8.4-1.2h1.7c0,.6.1.9.7,1.2-.5.8.5,1.4.9.5-.4-.7,0-1.4.8-1.1,0,.4,0,1,.8,1.5.3-.8.8-1,1.3-1,.2,0,.5,0,.9.4l.2-2.3c.7.3,1.1.8,1.2,1.6.3.4.6.6.8.7.3-.2.7-.4.4-1.2.6.2,1,.2,1.4-.6.2.3.3.5.6,1.3,0-.3.4-.8,1-.8h0ZM164.4,217.6l1.9,1.1c.5-.6.8-.8,1.4-1.1-.3.7.3,1.3.8.7.5-.4,1.3,0,1.5.5.7-.2.9.2,1,.4.2-.2.5-.4.9-.5.5,0,.7-.3.9-.5.1.2.5.5.9.4-.1-1.1,1-1.1,1.2,0,.5-.9.8-.9,1.4-.9.3,0,.7.1.9.6.5.6,1.4,0,.7-.8.8-.1,1,0,1.4.6.3-.2.5-.4.8-.7.1.2.5.6.8.5-.2-1.3,1.2-1.1.7.2.7.2,1.2-.3,1.6-.6l1.1,1.1,1.5-.7c-.1-.8.4-1.3,1.2-1.1.7.3,1.1.8,1.7,1.3.2.6.7.6,1,.5.2-.1.7-.6.1-1.3.3-.3.7-.4,1.2-.3.7.7,1.4,1.6,2.5,1.8.8.1,1.5-.4.7-1.2h2.3c.1.5.5.9.9,1.1.3.1.9,0,.9-.8.4-.6,1.3-.4,1.5.1.4-1,1.2-.7,1.6-.2.8.4.9,1.2.2,1.9,1.1.1,1.1-.6,1-1.1.6.2,1.6.2,1.6-.9-.3,0,.6-.2,1.1,0,0,.4.2.8.6.9.2,0,.6,0,1.1-.6l.7.6c.7.2.9-.4.9-.3.4-.6.2-.9.2-1.5.3.5.4,1,.8,1.1.4.1.8.3,1.6-.1.3.8,1,.9,1.3.8.2-1,1.3-.3,1.2-.4.9-1.3,1.6,0,1.7.3.7-.7,1.2-.2,1.1.7.4-.5.9-.6,1.1-.1,0,.9.6,1.1.9,1.3.7-.7,1.3-.9,2.1-1l2.1-1.9c.1.9.4,1.1.8,1.5.2,0,.7-.2,1.4.6.3-.2.6-.9.6-1.3.8-.5,1.2.1,1,.8l1.5.3.7-.7c.4.8.8.7,1.2.9-.6.4-.4.9,0,1,1.5.4,2.4-.2,2.9-1.6l2,1.6c-.3-.9.2-1.4.8-.9.1.1.7,0,1-.6l1.7,1.7c-.4.1-.6.6-.2.9.1.4.7.8,1.1.1-.4-.9-.3-1.6.4-2.2-.6-.5-1.1-1.1-1.6-1.8.4-.5.4-.6.8-1.6-.1-.2-.4-1.1.2-1.3.4-1,0-2.1-1-3,.6,0,.9-.2,1.2-.8-.6-.7-.7-1.5-.3-2.4-.9-.5-1-1-1.2-1.5.1-.5.4-.9.8-1.2-.6-.3-.6-.9,0-1.1-.1-.2-.3-.5-.5-.7l.7-.9c-.4-.6-.6-.8-.4-1.9-.5.7-1.5-.2-.5-.6,0-.9,0-1.9.9-2.8-.9-.8-.9-1.2-1-2.5.5-.5.8-1.5-.3-1.9-.3-.8-.2-1.7-.2-2.6-.7-.4-.8-1-.6-1.6l.6-.7c-.7-.7-.7-1.2-.3-2-1.1-.7-1.1-1.6-.1-2.3-.7-.4-.9-1-.3-1.5-.3-.3-.5-.7-.5-1.6.1-.6.1-1,.3-1.9-.4-.8-.7-1.8-.3-2.8-.6-.2-.9-.7-.4-1.5-.6-.3-1.1-.9-.4-1.8l-.8-.9v-1.4c-.2-1-.2-1.6-.8-2.2.9,0,1.2-.6,1-1.2-.3-.5-.2-.9.4-1.3-.7-.6-.8-1-.9-1.5.2-.2.4-.3.6-.9-1.1.2-1.3-.7-.5-1.2-.9-1.3-1-2.6-.1-3.9-.4-.7-.5-1.6-.6-2.5-.4-1.2-.5-2.4-.5-3.8-.5-.4-.8-1.1.1-1.5l-.6-.6c.3-.2.6-.5.6-.8,0-1,0-1.6-.5-2.2.7-.4.6-1.2,0-1.6-.4-.2-.5-.6-.5-.8,0-.2.4-.6.3-.6-.4-.8-.4-1.4.3-2.2-.7-.6-1-1.2-.9-2.2-1.1.3-1.8.3-2.8.3.8-1-.6-1.5-.9-.5l-2.4-.4h-2.3c-.7-.2-1.2.8-1.4,1.1-1.2.4-1.6.7-2.6.6-.3-.9-1-1.2-1.9-1-.5-.3-.8,0-.9.2-.2,0-.3-.5-1.2-.3.2-.5-1-1-.8.1-1.1.6-2.2,1.3-3.8,1.6-.2.2-.8.9-1.2.1-.7,0-1.5-.1-2-.7-.3.7-.8.7-1.3.6-.2.9-1.2.8-1.4,0-.9,0-1.3-.3-1.3-1.2-.4.4-.8.8-1.6.5,0-.6-.8-.4-.5.1.1.5-.5.9-1,.6l-1-.9c-.4.7-1,1-1.8.8-.9.2-1.6.3-2.4-.8-.4.8-.9,1.2-1.9.7-.5.5-1.1.9-1.9.8-.1-.1-.9-.4-.8-1.4-.7-.6-1.6-.3-2.1.6-.8.6-1.1.9-2.4.9-.3-.5-.8-.9-1.3-.7-.5,0-1,.3-1.4.6-1.4.2-2-.2-2.5-1,1.1-.4.1-1.3-.4-.6-.7.4-.9,1.1-1.2,1.8-1-.3-1.2-.3-2-.1,0-.7.6-.8,1.1-.6,0-.8-.5-1-.8-1.1-.3-.1-.8,0-1,.5-.8,0-1.2.4-1,1.2h-3c1-1.1-.3-1.6-.7-.7-.9,0-1.1-.2-1.2-.9-.8-.1-1.4,0-1.8.2,0,.8-.4,1-.7,1.4h-5.3c.3-.5.2-1.1-.4-1.2.5.9-.4,1.4-.8.9.6-.9-.8-.9-.4,0-.5.9-1.9.6-2.1-.2-.9.9-1.7,1.2-2.9,1.4-.6-.2-.8-1.3.4-1.4.4-.5-.4-1.3-.9-.7-.8.4-1.4.6-1.9,1.4-.8-.2-1.5,0-2.1.9l-1-.9-.8.7c-.7-.7-1.1-.7-2.1-1.1-1.4.8-3,1.4-4.5.7,1.3-.5.4-1.9-.5-1l-2.2,1.2c.7.6.9,1.1.9,1.6,0,.5-.2,1-.8,1.3-.6.3-.8.7-.5,1.5.5.5,1.2,1.7.9,2.4-.4.9-.5,1.9,0,2.7.2,1.1.3,2,1.1,3.1-1,0-1.4,0-1.9.4,1.1.8,1.5,1.4,1.1,2.8.6.3.9.8.2,1.4.8.5,1.2,2.2-.2,2.7-.4.2,0,1.5.8,1.9.2.7-.2,1.3-1.1,1.2.4.7.9,1,1.8,1.2.2.7-.4,1.5-1.3.8-.7.1-.8,1.4.1,1.4,1.4.6,1.5,2,.9,2.9-.7-.9-1.5,0-.9.6,0,1,.3,1.6,1.1,2,.1.5-.2.8-.4.9h-1.4c-.2.9.3,1.3.9,1.8-.4.9-.2,1.5.5,2-.8.9-.8,1.7-1,2.7.2.5.6,1.1,1.5,1.7l-1.5,1.6c.8.6.9,1,.7,1.8.6.3.7.7.8.9-.3.3-.6.3-1.2.5.7.6,1.3,1,1.2,2.1-.7-.1-1.1,0-1.5.5-.2,0-.4.8.3.6.5.4.7.9,1.1,1.6l-1.7,1.5c.6.8.8,1.5,1.1,2.3.9,0,.9.7.7.9-.3.3-.5.4-1.2.3.9,1.1.7,1.9,0,2.8,1.3.8,1.6,1.9,1.1,3.2-.5-.2-.9,0-1.1.3,0,.3,0,.8.6,1.1,0,.8-.2,1.6.5,2.5-.6.4-.6,1.1-.6,1.9-.6.8.2,1.8.8,2.4l-2,.3,1.6,1.7c-.7.7-1.1.7-2.1.7.8.8.8,1.7.7,2.7.5.6,1.3.4,1.3-.6,1.3.4,2.1,1.3,2.5,2.6.3-.8.3-1.1.9-1.5,0-.4.9-.3.4.3,0,.7,1,.9,1.4.3l.6-.9c1.6.6,2.8.3,3.9-.6.1,1,.5,1.3,1.4,1.3,1.1.2,2-.7,1.9-1.8.7.3,1,.7,1.4,1.1.4-.7,1-.6,1.4-.3.6-.5,1.1,0,.9.5,0,.5.3.9.6,1.2.4,0,.8-.2,1-.7.9,0,1.1.2,1.1,1.1.9-.2,1.2-1,.7-1.8.2-.5.6-.7,1-.7,0,.9.8.9.9,0h0ZM80.3,218.6c.4.9,1,.7,1.2.7.4-.2.5-.4.5-1.1.6.7,1,1.1,2.1,1.1-.3-1.1.7-1.3,1.1-.4.7-.2.9.3,1,.5.2-.1.6-.1,1.1-.9.3.4.7.8,1.2.9.1-.1.3-.3.8-.4-.4.6.4,1.2.8.5.5-.3,1.1-.6,1.7-.7l1-.5c.2.9,1.4.8,1.3-.2.1-.9,1.7-.4.7.5.7.6,1.2,0,1.5-.4,0,1,.5,1.4,1.5,1.1.6.5,1.6.4,1.9-.6.6,0,1.1-.1,1.5-.6.3.8.7,1.1,1.1,1.3.1-.3.5-.6.8-.6.8.3,1.2.3,2.1,0-.3-1,.2-1.2,1.2-.5,0,.4,0,1.1.7,1.2.3.1.8.2,1-.6.7.4,1.4.2,1.8-.6.5-.5,1.3.3.6.8,0,.5.5.8.8.6.4.1,1.1,0,1.1-.9-.8-.5,0-1.3.4-.9.1,1.7,1.6,1.5,2.4,1.2,1,0,1.8-.3,2.6-.6.6-.2,1-.3,1.6-1.1.6,1,.9,1.2,1.8,1.4-.3-.6,0-1.1.6-1,.9-.1,1.5.1,1.9,1.2.8-.5,1.3-1.1,1.8-1.9.7,0,.6-1.1-.3-.9-.5,1.3-1.7.1-.5-.4.4-1.2.2-2.3.3-3.3.9-.6.8-1.8-.2-2.1-1,0-1.5-1.3-1-1.8.3-.9.7-1.2,1.7-1.5.5-.6.3-1.1,0-1.4-.3,0-.7,0-1.1.5-.4-.2-.7-.5-.8-1,.8-.6,1.2-1.6.6-2.5.7.1,1,0,1.2-.4.2-.3,0-.9-.6-.9-.2.6-.7.6-1,.4-.2-.1-.7-.5,0-1.2-.3-.3-.3-1.1.6-1,0-.8.6-1.5,1.3-2.1.5-.5-.2-1.3-.6-.4-.8-.4-1.2-1.2-.8-2.4.4-.2.9-.4,1.4-.6.2-.4.2-.9-.2-1.5l-1,.8-.7-.8c-.4-.5,0-1.4,1-1.1,0-.4.3-1,.2-1.5,0-.6,0-1.1-.2-1.5-.2-.2-.4-.4-1.2-.5.7-.4.9-1.1.2-1.8-.3-.6.1-1.3,1-1,0-.7,0-1,.6-1.4.5-.6-.3-1.3-.8-.5-.6,1.1-1.6,0-.6-.5l.8-1.7c-.9,0-1.4-1-.6-1.5l.4-1.2c1.1.7,1.6-.2,1.6-.7-.1-.2-.4-.6-1-.7,0-.7-.2-1.2-.8-1.5l-.7-.8c.2-.2.4-.5.5-.9.2-.4.5-.6.7-.8-.2-.2-.6-.3-.5-1-.5-.2-.7-.8-.5-1.1.2-.3.5-.5.9-.9-1-1.1-.9-2.3.2-3.1-1-.2-1.3-.3-1.7-.6-.3,0-.2-1.1.6-.4.3-.9.6-1.9.6-3-1.3,0-1.1-1.4-.1-1.4-.2-.9,0-1.3.9-1.8-1-.6-1.2-.9-1.4-1.6.7,0,1.3-.3,1.4-1.6-.6-.2-1.4-.8-1.6-1.5,0-.9.3-1.2,1.4-1.1-.2-1.2-.6-1.6-1.2-2.2.2-1-.3-1.5-.8-2.1-.4-1-.7-1.9-.1-2.5,1.7-.3,1.7-2.2.9-3.1-1.2.6-2,0-2.1-1h-1.8c-.4,0-.6.3-.8.5l-.8-.6c-.5-.5-1-.6-1.6-.4-.1.1-.4.4-.8.6l-1-1.2c-1.3.7-1.7.9-2.7,2-.3-.7-.9-1-1.4-.3,0,0-.5-.3-.6-.5-.2.2-.4.5-.8.6-1-.9-1.8-.9-3.1-.7.4-1.6-1.7-1.5-1.2,0-.5,0-1-.1-1.4-.9-.1,0-.6.2-1.2.2-1.4,1.4-3.5,1.8-5.1.5-.7.2-1.1-.3-1.2-.8-.7,1-1,.9-1.6.7,0-.7-.6-1.1-1.2-.9,0,.1-.4.5-.8.6-.5,0-.8.3-1,.5-.3-.3-.3-.5-.9-.7.2,1.1-.3,1.5-1.1,1.4-.2.8-1.2.8-1.4,0h-1.7c.2-.8,0-1.1-.2-1.3-.3-.1-.9-.1-1,.6-.5-.1-.9,0-1.2.6h-4.6c0,1.1-1.5.8-1.1,0,.6-.5-.3-1-.5-.6-.4.2-.4.6-.2.9-.9-.3-1.3,0-1.5.9-.2-.4-.4-.5-.7-.5-.2,0-.6,0-.9.4-.6.1-1,.2-1.8-.1.5-.4.8-.8.6-1.6-.5.2-1,.5-1.1,1.2-.3.7-1.2.7-1.7.3-.9.6-1.6,0-1.4-1-.5.2-.6.6-.5,1.2-1.6-.4-2.4.2-3.2,1.1l-2.2-1.3c-.6.9-1.7,1.1-2.6.2-.2.4-.7.7-1.4.4-.3.9-.7.9-1,1.2l-1.1-.7c-.3.6-.8.9-1.3.9l-.7-.6c-.4.9-1.2.8-1.7,0-1.2.7-2.5,1-4.2,0-.5.6-.7,1.8.2,2.7-.2.3-.5.6-1.1,1,.2.6.1,1.1.2,1.8-.1.8-.8,1.2-1.6,1.5,1,1.2,1.1,1.8,1.3,3.1-.5.5-.7,1.1-.7,1.8-.8-.4-1.2.1-1.3.5,0,.1-.2.8.6.9-.4.9.1,1.4,1.1,1.3-.1.6-.5.8-1.2.6l.9,1.2c-1.1.6-1.6,1.2-1.8,2.4.7.4.8.9.9,1.4-.2.1-.5.4-.7.9.3.8-.2,1.4-1.1,1.3,0,1.4.2,2.4,1.5,3.5-.9.8-1,1.4-.9,2.3-.7.1-.7.8,0,1l-1.4,1.2c.8.4.7,1,.7,1.7-.4.8-.6,1.1-.9,2.6.3-.2,1.2.4.5.9-.2.6-.3,1-.8,1.6.8,0,1,.2,1.2.4,0,.3,0,.8-.5,1-.4.4-.6.6-1.5.6.4.5.6.9.7,1.7,0,.5,0,.9.3,1.2.2,0,.6-.2.9.4-.8.5-1.2,1.1-1.1,1.7,0,.4.2.9.6,1.4-1.2,1.1-1.1,2.2.2,3.1l-1.7,1.1c.8.6.7.9.7,1.4-.3.4-.5.9-.4,1.4l.6.6c-.6.4-.5.9-.5,1.1.2.4.4.5,1,.5l-1.9,1.8c0,.5,0,1-.5,1.5.9.2,1.3.6,1.6,1.1-.8.5-.7,1.4-.3,1.8l-.7,2c-.2.5-.1.9.2,1.2.1,0,.6-.1.8.4-.7.8-1.2,1.3-2.2,1.9,1,.6,1,1.1,1,1.8.9.2.9,1.1.1,1.4-.2.6,0,1,.5,1.4-1.3,1.6-.4,3.4,1,3.9.6-.8,1.2-.2,1,.6.5-.4.7-.6,1.7-.5.1.5.5.9.8,1.1.5,0,1-.5,1.3-.7.9,0,1.2-.3,2-.6-.1-.4,0-.8.3-1,.2,0,.8,0,.9.6.7.5,1.5.9,1.8,1.8.1.6.9.4,1-.1.8-.9,1.3-1.2,2.5-1.2-.4-1.4,1.7-1.5,1.1.2.8,0,.9-.6.8-1.3.6.5.6.9.6,2l1.6-1.4c.8.1,1.1-.5.8-1.1l2.1,1.9c1,0,1.4-.3,1.6-1.3.4.6.5,1.1,1.7,1.5.4-.7.6-1,1.9-1-.7-.7.3-1.4.6-.5-.9,1.4,1.3,1.8,1,.2.6,0,1-.2,2.1,0-.1-.1,0-.9.7-.6,0,0,.5-.1,1,.4.8-.9,2.3-.9,3.2.2.2.4.7.4.8-.2.8.1,1.2-.2,1.4-.8h0ZM86.1,304.9l1.4.5c.1-.2.4-.5.9-.6.5,0,.8-.3.9-.5.2.2.4.4.8.6.3-.8,1.1-.9,1.5,0l.7-.5.9.8.9-.7.8.8c.7-.9,1.2-.9,1.6-1,.5.1,1,.4,1.4.8,1.2,0,2,0,3.1.5l.8-.6.9.8.9-.7c.1.2.4.6.9.3.7.3,1.5.2,1.5-.8.7-.1,1.4-.1,2.3.3.1-.3.7-.5.9,0-.1.8.7.9.9.7.3-.2.5-.5.3-1.1,1.3.3,1.8.7,3.2.5.7.8,1.9,1,2.9,0,.8.7,1.6,1,2.4-.2.6.6,1.2.5,1.5-.2.4.4.7.6,1.2.5.2-.1.4-.6,1.1-.4.4-.2.6-1-.5-1,.3-.6.5-1,.4-2.4.8.4,1.4-.1,1.1-.8-.7-.8-.6-1.7,0-2.4-.7.1-1.1-.4-.8-.8.3-.8.6-1.1,1.3-1.3.5-.3.8-.8.2-1.3-1,.2-1.5-.2-1.8-.8.9,0,1.4-.4,1.2-1.3l.4-1.4c-.9.1-1.4-.3-1.5-.9,0-.3-.3-.9.7-1.4-.5-.8-.1-1.5.9-1.3-.2-.6-.6-.7-1.3-.6l1.3-1.5c-1.2-.2-1.7-.6-2.4-1.5.2-.5.7-.5,1-.7-.7-.7,0-1.2.6-1,0-1.4,0-2-1.4-2.9.8-.5,1.1-1,.8-1.9.5-.5.7-1.1,1.2-1.9-.3-.5-.8-.8-1.7-1.2.5-.3,1.3-1,.7-1.6v-3.5c.5.2,1,0,1-.6.3-.8,0-1.5-1-1.5v-2.1c.4,0,.7-.3.8-.6.3-.1.2-1-.5-.6-.7-.3-.7-1.4-.2-1.9.4-.5.9-.6,1.7-.9-.9,0-1.3-.5-.9-1.1l-.6-1.5c-1.4.3-.8-1.4.2-.5,1.1-.1.4-1.4-.3-.7l-.7-1.8c.7.4,1.3-.3.7-.8-.2-.2,0-.6.3-.8l-.7-1.1c.6-.5.8-1.1,1.2-1.8.1-.6.2-1,.8-1.5-.8,0-1.1,0-1.5-.8-.5.4-1.2-.2-.6-.6.4-1.4,1.4-1.9,2.6-1.9-.7-.7-.7-.8-1.2-1.7-.6.7-1.5,0-.7-.6.2-.9.8-1.8,1.9-1.9.3-.5.3-1.2-.8-1.6,0,.4-.8.6-.7.2,0-1.2-.2-1.8.5-2.9-.2-.5-.7-.9-1.5-.4,0,0,0,.4-.9.5.4-.5-.2-1.3-.7-.6-1,.3-2.1.7-3.2.4-1.1.6-2.8.9-4.2,0,0,0-.4.2-.6.4l-.8-.6c-.3-.6-1.1-.7-1.4.2-.8-.2-1.5,0-2,.5-.5-.6-.8-.7-1.5-.7-1.3,1.2-3.2,1.3-4.3-.5-.4.5-.7.9-1.6,1.5l-1.2-1.1-.9.8c-.2-.2-.4-.5-.9-.5-.5,0-.8-.3-.9-.5-.2.3-.5.6-.8.6-.9,0-1.2.5-1.7,1,.2-.7-.5-1.4-1-.5-.5-.3-1.2-.5-1.6-.9,1.3,0,1.3-1,.2-.9-.7.5-1.2.7-1.8.8-.7.6-1.2.7-2,1,.1-1.1,0-1.8-1.3-2.5-.4.2-1,.3-1.6.1,0,1.3-.7,1.9-1.9,2-.8-.2-1.4-.3-2.3-.1,0-.7,0-.9-.6-1.5.6-.3.6-.8.3-1-.4-.3-.8-.3-1.2,0,0,0-.5.5.3.9-.5.8-1.2,1.1-2.2,1.5-.3-.7-.6-.9-1.4-.6.6-.8-.4-1.5-.8-.5-1.2-.2-2.5.1-3.3,1.4-1.2-.3-1.8-.9-2.3-1.5-1,0-1.5,0-2.1.6-.7-.2-1.3,0-1.7.6l-.8.6-.7-.8c-.9.6-1.3-.1-.9-.8-1,.5-1.5.9-3.1.3,0,.2-.5,1.2-1.2.2-.2.4-.7.8-1.2.6-.4,0-.9-.2-1.2-.4-2,.7-3.9.5-5.6.2.7-.4.5-1,0-1.1-.9-.1-1.5.2-1.3,1.3-.5-.2-.7-.4-.9-.7-.2,1-.6,1.3-1.4,1.3-.7-.2-1-.2-2-.1-.1.3-.7.8-1.1.1-.9-.1-2-.2-2.8.2.8.6,1,1.3.9,1.5-.4.9-.5,1.2-1.6,1.5.6.4.8.9.9,1.9.6-.1,1.3.7.2,1.1.4.2.7.6.6,1.1,0,.3-.4.8-1,1,.2.7.1,1.1,0,1.7.6,0,.9.2,1,.4.2.3.2.8-.3.9-.3.5-.7.7-1.4.5,0,1.2.2,1.8,1.3,2.6-.8.5-.9,1.5-.2,2.3l-.5.7c.2.2.4.3.6.8-.7,0-1,.1-1.3.5.8.3.9.7,1.1,1.1l-.5.8c-.5.3-.5.7-.5,1,.2.3.6.5,1,.4.3.5.2.9-.3,1.2-.2.7.2,1.2,1,1.1,0,.7,0,1.2-1,1.8.5.5.6.9.5,1.5,0,0-.5.2-.7.8.8-.2,1.2.5.9.8-1.4-.1-1.7,1-1.8,1.6,1,0,1.2.6.9,1.4.8.1,1.1,1,.8,1.2-1.2-.3-1.2,1-.7,1.3.1.2.3.4.9.7-.3.2-.7.8,0,1.2-.3.3-.5.7-1.5,1.2.3.1.6.3.8.6,0,.4,0,.9,0,1.1.9.1.9,1,.5,1.4-.3-.5-.8-.5-1-.1-.5.4-.9.7-.5,1.5.5-.5,1.4.2.5.8,0,0,.6.4.3,1,0,.5.3.9.6,1.2.2-.2.7-.2.9.3-1.5,0-1.5,1.6,0,1.6l-1.2,1.8c.2.3.5.5,1.2.5l-1.6,1.9,1.7,1.5-1.7,1.8c.8.4.9,1,.4,1.5.3.6.6,1.4,1.2,2-.9.5-1,1.3-.5,2-.3.8,0,1.3.5,1.7-.3.9.2,1.4.8,2l-1.6,1.9c.8.7,1,1.3.7,2.5l4.2-.9c.6.9,1.4,1.2,2.4.8.5,0,.8-.4.8-.6.4,0,.8,0,1.1.5.8-.7,2-.5,2.5.4.2-.9.3-1.1.5-1.4l1.1.7c.1-.5.8-1,1.3-.2.7-.6,1.9-.5,2.5.5.9-.5,1.2-.4,2-.4.7.3,1.5.6,2.3-.3.8.8,1.6.5,1.9-.1.8-.1,1.3-.2,2.3.1l.8-.9,1.1.9c.3-.8,1.2-1.3,1.8-.4l.7-.5c.2.4.4.7.8.6.8,0,1.2,0,1.6-.6.9.7,2.2.8,3.1,0,.3.5.8.7,1.5.4.3,0,.6.3.8.6.2-.1.3-.4.9-.4-.3.6.2,1.1.7.8.2-.6.6-.6.8-.7l.7.4c.2-.8.9-1,1.5-.5h0ZM214.7,304.8c.8-.8,1.7-.8,2.3,0l1.3-1.1c.3.7.8.9,1.5.5.6.4,1,.5,1.4,1.6.7-.2,1.1-.6,1.5-1.8,1.1.9,1.5,1.2,2.5,1.6.4-.6.7-.8.9-.9.4.1.6.2,1.2.8.1-.5.8-.9,1.2,0l1.3-1.2c.5.8,1,.8,1.6,1,.2.2.6,0,.7-.3l.9.5c1.7-1,3.3-.5,4.5.5,1.1-.6,2.1,0,3.2-.2,0,.5.4.9,1,.8.3,0,.7-.5.3-1-.4-.2-.5-.6,0-.8-.2-.9.2-1.7.8-2.1-.2-1.1-.1-1.4-.9-2.3.4-.2.8-.6.7-1.2,0-.2-.1-.5-.8-1,.8-.6.9-1.3.8-2.3-.6-.8-.3-1.8-.3-2.4l-.7-2,1-2.1c-.7-.1-1.3-.9-.6-1.4,0-1.3,0-2.5.5-4-1.6-.8-2-2-.8-3.7-.9-.5-1.1-1.4-.4-1.9,0-1.2.3-2.6,0-3.9-.3-.7,0-1.7.2-2.5.2-.7,1-.9,1.4,0,.7-.2.5-1.2-.3-1-.5-.2-.6-.7-.5-1.3.3-.6,0-1.5-1-1v-2.5c-.5-1.1-.3-2,.4-3,.4-.3.9-1-.2-1.4.2,0,.6-.2.8-.8-1,.1-1.5-.4-1.2-1.3,0-.4.3-.7.5-.9-.2-.2-.4-.5-.6-.8.4-.8,0-1.2-.4-1.6.9-.8,1.1-1.5,1.1-2.8-.8-1-1.7-2.3-1.6-3.6.4-.4,0-1-.1-1.2,0-.5.3-.9,1.1-1.2l-.4-.8c.1-.2.4-.3.3-.9-.5.4-1.2,0-1-.6-.2-1.1-.3-2.1.7-3l-.8-.9c.3-.3.6-.4,1.3-.4-.4-.5-1.3-1.1-2.1-.6l-1.6-1.3c-.4.6-1,1-1.7.7-.6-.2-1.2-.1-1.5-.4-.6-.1-1.3.5-1.7.9-.8-.3-1.2-.2-1.7-1.2-.4.1-1.2,0-1.3-.8-.6-.4-1.2-.4-1.9-.1,0-.8-.8-.7-.9-.3-.8.1-1.1.6-1.3,1.2l-1.9-.9c-.5,0-1.1.2-1.6.9-1.1-.4-1.8-.8-2.5-1.6-.4.6-.8.6-1.2.6,0-.1-.3-.6-.9-.4-.6-.4-1.4-.5-2,.5-.7-.2-1.4-.8-2.1-1.3-.8-.4-1.2-.4-1.8.2.1.7-.4,1.4-1.3,1-.1.6-.6.7-.9.6l-.9-.9c-1.4.5-2.7.6-4-.3-.2.3-.6,1-1.6.4-.4.4-.9.7-1.3.6-.2,0-.6-.2-.9-.8-1.4.3-2.1,0-3.2-1.3-.3.9-.7,1.4-1.4,1.6-.6-.7-1.5-.3-1.8.1-.9,0-1.2,0-1.7-.5-.4.8-1.3.8-1.5,0-.6,0-1-.1-1.5-.6,0,1-.5,1.4-1.4,1.1l-.9.7c-.1-.2-.4-.6-.9-.5-.5.1-.7-.3-.9-.6-.1.1-.4.6-1,.4-.4.5-1,.6-1.1.5-.5-.4-.8-.7-.6-1.9-.7.2-1.2.5-1.6,1.2-1.1.1-2.1-.2-3-1-.2.7-.2.9-.5,1.2l-.9-.8c-.4.2-.6.5-.9.8l-.8-.6c-.5-.5-1.1-.6-1.6-.4-.1.2-.2.9-1,.6-.2.3-.9,1-1.4-.2,0,.4-.5.9-.9.5-.1,0-.7-.4-.4-.9,1.3.2.9-1.2,0-.7-.7-.4-1.1-.1-1.4.3l.5.8c-.9,0-1.4.2-2.3,1.1-.5-.8-.9-1-1.4-.9-.1.2-.4.5-.9.5-.8,0-1.3-.1-1.7-.7-1.2.6-2.2.3-3.2-.7-.6.5-.4.9.2,1.4l-2.6-.2c-.5-.5-1.1-.2-1.5.2.2-.8-.4-1.4-1.1-.6-.3-.3-.7-.6-1.2-.5-.1.2-.4.6-.8.6-1.2,0-2,.3-3.1.9-.6-.4-1.1-.4-1.8.1-.4-.8-1-.9-1.4-.9-.4.1-.7.5-.9,1-1.4-.1-2-.5-2.6-1.7-.3.2-.5.7-.3,1.2-.8.7-.8,1.4-.2,2.1-.2.2-.4.5-1.2.5.6.6.7,1.2.2,1.9l1.3,2.6c-1.1.2-1.5,1-.9,1.7-.3.2-.5.7-.4,1.1.1.1.4.6.3.8-.3.7-.2,1.6-.1,2,1,0,.7,1.2.5,1.3-1.2-.1-1,.9-.8,1.3l.9.8-1.5,1.5,1.2,1.5c-.4.7-.6,1-.8,1.9.6.4.6,1,.5,1.4,0,.3-.4.6-.5.7.9.4.8,1,.5,1.4.3.5-.1.8-.4.9l.7.9c-.3.8-.7,1.5-.7,2.2.5,1.1,0,2-.4,3.2.8.4,1,.9.9,1.4-.2.1-.4.4-.6.7.8,0,.6,1.1-.2.7-.4.2-.6,1,.1,1.6-.5.4-.9.7-1.2,1.4,1.1,0,1.4.5,1.9,1.1-.8.4-1.2.7-1.6,1.3,1,.5,1,1.1.9,1.5-.3.3-.6.4-1.2.4l1.2,1.9c-.5.6-.6,1.2-1.1,1.9.8.1,1.1.6,1.2,1,.1.5-.2.9-.6,1.2.8.5.7,1.1.4,1.7l-1.1.5c.2.6.6.8,1.1.6l-.4.8c0,.3,0,.6.6,1.1-.4.3-.9.8-.5,1.6-.3,1-.6,2-.3,3,0,.7,0,1.4.8,2l-1.3,1.4c1,.5.9,1.1.8,1.7l-1.2,1c.6.5,1,.9,1.2,1.8-.1.7,0,1.2.7,1.8.4-.5.9-.5,1.2-.5l.9.9c.8-1,1.5-1.1,2.5-1,.6.1,1.1,0,1.4-.5,1,.5,2.1.7,3.2.4,0-.6.8-.6.8,0,.6,0,.9-.1,1.9.1l.7-.7.9.9c.3-1,1.1-1.1,1.4-.5l2.6.3c.5.5,1.2,0,1.1-.7.2,0,.8-.2,1.1.5.8-.1,1.8,0,2.4.4,1-.4,1.9-.1,2.8,0,.2-.7.6-.7.8-.8l1,.7c.8-.5,1.7-.9,2.6-.3.4-.4,1.1-.8,1.9-.6,0,.8.8,1.1,1.3.5.5.2.7.5.9.7.1-.2.4-.7,1-.4.3-.5.8-.8,1.3-.7l1.1,1,.7-.8c.2,0,.5.2.7.6.4.4.7.6,1.5.4-.2-1,.4-1.2,1-1.3.5-.7.9.1.4.4.8.9,1.2.7,1.4.6.3-.2.5-.4.7-1,.6.1,1,.3,1.7.9.7-1,1.7-.9,2.4,0,1-.5,1.7-.2,2.1.4.5-.7.9-.6,1.5-.6,1.6.1,3,.3,4.5-.5.2.2.8.7,1.2.5,1.2-.8,2.4-.6,3.6-.3.4.4.9.8,1.7.3,0,0,.3-.3.7-.4.7.5,1.1.5,2.2.5.5-.4,1.3-1,2.3-.5.6-.1,1.1-.3,1.9.5.3-.6.8-.9,1.3-.2.1-.2.4-.4.7-.4.2,0,.6,0,.9.5.7-.3,1.3-.3,2,.5h0ZM21.4,336.5c.7-.9.7-1.2.8-1.7,1.2.4,1.2-1.2-.1-.7,0-1-.1-1.6-.6-2.1-.4-.4-1-.7-1.9-.2l1.3,1.6c-1-.4-1.4.4-.9.8.9-.5,1.1.8.2.7-.2.8.5,1.5,1.2,1.7h0Z"/>
</svg>