<?xml version="1.0" encoding="UTF-8"?>
<svg id="Layer_1" data-name="Layer 1" xmlns="http://www.w3.org/2000/svg" viewBox="0 0 279.47 370.49">
  <defs>
    <style>
      .cls-1 {
        fill: #f6f3ef;
      }
    </style>
  </defs>
  <path class="cls-1" d="M72.54,333.94h-1.79c.13-.46.07-.94-.31-1.19-.46-.14-.78-.49-1.75-.32-.1-.53-.65-1.26-1.63-.73-.63-.57-.92-.98-1.3-1.98-.29.42-.58.78-1.31.27-.08-.49-.09-1.21-.8-1.64.04-.6-.28-1.16-.95-1.29-.14.04-.65.08-.96-.06.37-.79-.6-1.05-.71-.23-.41-.06-.75-.66-.26-1.15l-.62-.92c.13-.22.28-.52.75-.79.37-.48-.01-1.11-.85-.86.12-1.44-.19-2.45-1.03-3.52l-.94,2.46c.77.06,1.09.13,1.36.29.09.29.07.88-.67,1.04.06.88-.01,1.41-.73,2.29-.6-.56-1.51.3-.47.83-.65.61-.74,1.51-.54,2.6-.9,0-1.53.42-1.24,1.5-.79.25-1.38.77-1.95,1.4-.44.25-.57.82-.41,1.33-.86.18-1.35.11-1.77-.22,1.51-.87.04-2.03-.66-1.03-.72.49-1.64-.03-1.24-1.27-1.19.11-1.69.49-2.8.92.13-.76.04-1.14-.72-1.39.26-.78-.2-1.31-1.06-1.12.49-.88-.49-1.44-.93-.56-.54-.39-.9-.81-1.18-1.74-.69.82-1.2.24-1.18-.46-.43-1.03.24-2.13.74-2.85-.71-.95-.6-1.72-.59-2.75.1-.58.09-1-.43-1.4.3-.54.72-1,1.41-1.41l-.85-1.05c.13-.18.59-.31.38-1.13.45-.05.96-.75.18-1.12-.06-.96-.17-1.96.49-3.09-.51-.82-.77-2.06-.26-3.29-.53-.43-.64-.71-.76-.91l.59-.86c.77-.21.87-1.17-.15-1.39.24-.43.5-.6,1.21-.62-.46-.5-.98-.9-1.14-1.52-.05-1.39-.03-2.45.26-3.6l.08-3.04c.84.24.94-.63.3-.76-.13-.47-.26-.98,0-1.76-.53-.6-.77-1.55.26-2.33-.57-1.26-.76-2.59.19-3.85-.31-.25-.76-.66-.46-1.5-.31-.37-.45-.65-.54-.87l.65-.75c.39-.23.43-.68-.02-.93l-.46-4.07c.37-.95.35-1.88.27-2.93.23-.78.28-1.54.01-2.32.36-.52.21-.83.1-1.31l-.52-.82.52-.79c-.79-.76-.6-1.18-.82-1.74-.91.33-1.75.15-2.52.23.54-.78-.05-1.15-.25-1.28.23-.15.51-.46.26-.96.37-.48.48-1.02-.34-1.47.24-.17.54-.13,1.26-.36-.2-.41-.41-.59-.63-.79.2-.2.38-.44.47-.6-.64-.9-.74-1.76-.9-2.72-.09-.68-.39-1.12-1.07-1.79,1.44-.98,1.73-2.04,1.46-3.59l-.38-.86c.07-.21.17-.5.61-.9-.3-1.07-.82-1.48-1.41-2.29.76.22,1.38-.26.82-.81-.18-.55-.07-1.2-.85-1.94.41-.25.99-.7.48-1.67.6-.29.83-.88.58-1.48-.31-.4-.42-.75-.59-1.41l.72-2.94c.05-.53.21-.92.07-1.49l-.6-.88c0-.5-.32-.75-.53-.91.12-.22.23-.55.79-.89,0-1.22.28-2.1.84-3.17l-.31-.73.38-.86c-.72.33-1.34-.32-.64-.91-.7-.58-.76-1.68-.4-2.64,0-1.66-.04-2.61-.64-4.07.92.21,1.37-.5.92-1.11-.54-1.1-.85-1.94-1.13-3.39.47-.26.73-.77.48-1.12-.18-.3-.42-.5-.83-.88,1-.58,1.16-1.64.59-2.38.7-.45.69-1.18.03-1.6.13-.61.07-1.07-.31-1.69.27-.63.64-.81,1.4-.6-.15-.63-.6-.78-1.19-.55.08-.92.04-1.38-.5-2.03.2-.37.43-.71,1.01-1.22-.36-.28-.68-.8-.28-1.6-1.04-1.04-1.26-2.54-.38-3.82-.28-.26-.78-.69-.35-1.59-.65-.46-.79-.85-.82-1.78l.84-2.33c-.61-.94-.82-1.89-.84-2.76-.82-1.07-.51-2.06.17-3.3l1.77-.85c-1.07-.19-1.63-.54-1.95-1.41.12-.5-.23-.77-.47-.91l.72-.79c.61-.36.6-1.08,0-1.45-.72-.46-1.01-1.24-.66-1.89.2-.3.4-.7,1.09-1.21-.6-.47-.69-1.18-.73-1.97-.14-.83-.08-1.68-.51-2.58-.08-.86.27-1.3,1.22-1.39-.66-.84-.84-1.78-.26-2.65-.3-.83-.34-1.1-.76-1.55.33-.61.69-1.1,1.52-1.4-.31.63.37,1.25.82.64.42-.15.86-.29,1.05-.52.09-.27.16-.78-.56-1.11.5-.49.78-1.31,2.06-1.53.44-.66.54-1.78.23-3.08.75-.31,1.06-.87.81-1.41.01-.46-.28-.97-.86-1.33.4-1.1.16-1.74.09-2.31,1.13-.78.9-2.07.24-2.82l.55-.94c-.19-.6.23-.83.38-.96-.25-.25-.5-.39-.78-.94,1.04-.56,1.15-1.47.55-2.33.59-1.07.47-2.04-.15-2.81.43-.33.53-.65.49-1.08-.07-.08-.29-.31-.5-.73.68-.21,1.01-.38,1.68-1.05-.15-.19-.78-.66-.74-.68.18-1.34.42-1.68,1.32-2.28-.64-.47-.82-1.26-.6-1.97-.88-1.04,0-1.98.76-2.29.08-1.46.13-2.2-.23-3.12l-1.2-1.99c.65-.41,1.03-.95.52-1.89.7-.29,1.01-.79.82-1.69l-.81-1.82c.43-.41.7-.89.33-1.67.23-.2.56-.36.78-.59.24-.15.45-.63-.3-.92.34-.17.85-.75-.05-1.22.53-.63,1.1-1.58.73-2.71-.14-.84.07-1.57.46-2.19-.71-.27-.65-.77-.54-1.06.17-.23.5-.47,1.08-.35.33-1,.2-1.59-.79-2.36.71-.36.97-.94.27-1.46l1.17-1.43c.41-.88.61-1.54.6-2.33.69-1.2,1.14-2.18,2.59-2.52.46-.47.91-1.43,1.25-2.16.58-.22.95-.57,1.31-.85.46.95,1.25.12.67-.41-.34-.34-.2-.66-.03-.76.72.21.89.3,1.29.57l.1-2.91c.94.15,1.46.11,2.1-.69.11.35.67.83,1.12.04-.37-.49-.46-1.19.49-1.45-.48-.49.11-1.27.65-.6.39.72,1.52-.07.49-.65.63-.44.91-1.15.42-2.13.16-.47-.18-.75-.32-.89.22-.22.44-.31,1.13-.45-.42-.59-1.01-.81-1.87-.39,0-1.02-.41-1.38-.94-1.82-.48-.11-.91.1-1.27.6l-1.24-2.27c.6.02,1.08-.29,1.06-1.02l-.92-.91c-.16.2-.48.47-.63.53-.97-.8-1.58-1.29-1.95-2.32.27-.69.7-1.14,1.35-1.71.99.91,1.46-.55.48-1,.73-.13,1.14-.43,1.1-1.54-.35-.66-.35-1.47.55-1.91-.24-.78.04-1.52.44-1.93-.45-1.36.48-2.44,1.66-3.11-.51-1.18-.21-1.85.33-2.46-.11-.8.4-1.17,1.17-1.34-.59-.75.5-1.57.82-.33.49-.34.69-1.21.21-1.91.32-.91.35-1.2.84-1.93.64.09,1.21-.24,1.28-.98.74.02,1.17-.53,1-1.24.69-.14.65-.75.11-.99.34-.38.54-.78.66-1.55,0-.81.02-1.47-.14-2.43l.82-1.75c.42.76,1.02.8,1.79.55.23-.43.53-.93.16-1.85.73-.53,1.02-1.23.9-2.09.45-.37.59-.66.53-1.36.75.23,1.49-.51,1.02-1.25-.1-1.22,1.06-1.82,1.97-1.98-.23-.94.74-.86.82-.81.28-.34.38-.77.31-1.26l1.75-.92c-.91-.9-.68-2.1,0-2.8.4-.54,1.02-.78,1.47.03.54-.31.86-.71,1.49-1.38-.02-.84.28-1.71,1.18-2.3-.24-.92.2-1.56.78-1.92.31-.45,1.06-.4,1.37-.24l2.23-1.81c-.54-.97.15-1.58,1.09-1.21.67.31,1.51-.37.55-.97.41-.45.91-1.23,1.88-1.5l3.63-3.06.75-1.73c.35.73.82.64,1.15.25.23-.64.67-1.05,1.55-.95-.11-.75.19-1.12.47-1.46.4-.02.72-.07,1.49.28.6-1.06,1.14-1.76,2.24-2.58.67.83,1.61.07.74-.68.52.2,1.04.08,1.45-.43.34-.76.97-1.16,1.87-1.05-.06-.47-.26-.65-.41-.83.14-.27.4-.56.7-.59.67-.37,1.12,0,1.34.28,1.25-.43,1.76-.82,1.82-2.05,1.09-.08,2-.17,2.79-.77.69-.09,1.22-.35,1.23-1.31l2.47-.03c-.33-.83-.69-.87-1.58-.84.66-.67,1.56-.6,2.39.26-.07-.9.02-1.33.44-1.73.17.76,1.03.53.77-.17.02-.47.71-.51.89-.35.32.18.75.73.75.63,1.26.01,1.45-.52,1.42-1.3.96-.19,1.2.29,1.09,1.03.78.29,1.2.07,1.56-.38.24-.19.98-.3,1.23.52.48-.44.82-.9,1.18-1.39.5,1.17,1.42.16.76-.46.01-.95,1.3-.58.65.26.92.59,2.37.41,3.26-.69.32-.56.77-.79,1.27-.7l.76.71c.78-.28,1.06.4,1.07.63.65-1.19,1.03-1.33,2.1-1.56-.46-.7.3-1.25.66-.76-.32.92.54,1.08.81.9.16-.09.47-.27.89-.73-.24-.82.64-1.44,1.24-.36.75-.98,1.21-1.28,2.27-1.37-.34-.94.44-1.71,1.4-.96l1.51-2.14c.25-.29.63-.44,1.01.2.23-.26.73-1.12,1.74-.24.18-.59.62-1.26,1.75-.69.09-.74.84-.85,1-.51.29.84.46,1.19.43,1.62-.03.25-.22.57-.4.74l1.13,1.02c.63-.45,1.1-.19,1.15.57-.2.29-.61.8.04,1.38.96-.68,1.88-.22,2.13.6.61.18,1.04.59.83,1.45.89-.17,1.15.02,1.65.55-.29-1.42,1.28-1.21.83-.01.55.19,1.04.17,1.37.38.65.69.73,1.05.54,2.16,1.06-.41,1.96-.25,2.79.65.66.24.86.94.68,1.59.56-.07.7-.27.87-.38.27.15.43.32.8.63-.09.69.13,1.19.92,1.56-.65.97.09,1.45.73,1.41.95.51,1.52,1.09,1.17,2.25,1.64.6,2.29,1.59,2.68,2.89.57.23.69.72.55,1.16.9.36.88,1.1.78,1.59l1.08,2.69c.84-.03,1.52.38,1.8,1.2.09.61.5,1.04,1.06,1.18.19-1.17,1.82-.56.73.43.79-.13,1.43.46.59,1.07.39.42.76,1.33,1.83,1.46.35.26.76.79,1.39.71.11-.13.3-.38.75-.55.09.84.54,1.31,1.23,1.72-.49.85-.13,1.32.41,1.66.11-.05.4-.32,1.01-.45.48-.56,1.26-.01.63.64.39.58.57.87.41,1.88.7-.27,1.19-.16,1.52.26.62.23,1.2.54,1.52,1.13-.7.27-.57.89-.06,1.05.66-.74,1.32-.75,1.96-.35-.79.66-.18,1.68.76,1.02.16.25.42,1.35,1.67,1.13-.3.54-.03.98.35,1.31.2.31.49.64,1.23.46.02.54.17.88.48,1.36.36.24.74.19,1.23-.31-.15.81.24,1.24,1.02,1.26.05-.06.21-.43.77-.65-.02.72.2,1.17.67,1.72.45.62.62.88.87,1.95.13-.46.67-.82,1.14-.23-.6.68.04,1.52.81.82.12.41.11,1.28.74,1.57.67.39,1.02.68,1.84.63.29.91.44,1.47,1.14,2.05.48-.87,1.15-.75,1.37-.45-.32.76.24.97.5,1.1-.19.17-.48.35-.6.91,1.31.04,2.1.26,3.12,1.18-.55.68.07,1.56.85.8.08.48.17.87.52,1.05l1.42.12c-.13.79.28,1.55,1.22,1.69.64.38.8.92.52,1.61,1.31.06,1.96.85,1.38,1.83,1.03.14,1.47.68,2.01,1.22.32-.67.83-.49.98-.08-.2.87.15,1.42.28,1.84.5.75-.43,1.07-.42.95.84,1.75,1.57,2.52,3.11,2.48-.33.86-.06,1.37.38,1.67l1.35,2.22c.27.48,1.14.88.88,1.93l1.65,1.41c.08,1.1.86,1.55,1.47,2.01-.1,1.04.41,1.5,1.26,1.83-.42.53-.42.93-.26,1.19.17.32.4.47.81.69.43.2.95.79.07,1.35.35.31,1.06.75,1.06,1.43-.12.76.08,1.42.9,2.02l-.75.88c.99,0,1.34.4,1.34,1.25.61,0,.86.3.98.45l.3,1.24.17,2.05.56,1.42,1.17,2.93c.86.34,1.01.84,1.22,1.86.84-.28,1.19,1.18-.05.8-.21.99.12,2.38,1.53,3.27-.19.24-.54.36-.6,1.13.88-.25,1.81.12,1.63,1.23-.09.01.42.56,1.41,1.19-.61.45-1.02.84-1.36,1.34,1,.55.99,1.17.69,2.02.85-.24,1.25.24.96.9-.71.2-1.09.8-1.08,1.26.37.3.64.4,1.25.42-.35.55-.52.81-.37,1.65.66-.19,1.16.29,1.05.9l-.63.61c.56,1.14.88,1.57,1.82,2.26l-.57.73c.28.25.57.44.83.87l-1.54,1.65c.77-.17,1.26.07,1.24.82.26.58.77,1.15,1.42,1.59.16.36.25.77.03,1.43.7.4.8.84.89,1.35-.09.21-.38,1.2-1.44.66-.5.39-.13,1.37.88.87-.06.73.03.97.65,1.3-.12.44-.16,1,.75,1.21-.48.47-.41,1.15.48,1.25l-.53.75c.14.17.62.28.37,1.14.51,0,.86.86.11.99-.77-.15-1.08,1.09,0,1.16-.23.94.22,1.46,1.22,1.29-.26.44-.35.57-.99,1.16.79,1.07,1.19,2.08,1.06,3.41.56.25.66.67.38,1.15-.55.2-.75.64-.71,1.03-.04.26.19.97.93.89.65-.12.55.9-.16.47-.69.48-.39,1.39.22,1.72-.01.73.12,1.02.44,1.56-.32.39-.56.86-.59,1.33.25.09.69.43.56.84-.09,1.1.68,1.65,1.24,2.12-.68.33-.61.84-.1,1.12.56.39-.16,1.36-.65.45-.3.04-.67.47-.58,1.22.73.96,1.16,2.13.59,3.59.83.87,1.23,2.01.91,3.14-.12.16.09.51.31.64l-.68,1.04c.79.26,1.02.88.82,1.36.05.45-.11,1.05-1.01,1.41.28,1.09.47,1.58,1.06,2.36-.8.06-.97.22-1.21.43-.17.31-.12.77.41.98l.53.79-.48.67c1.01.62,1.31.81,1.42,2.35.4-.62,1.24-.23.82.35-.51.3-.69.57-.87.81l.46.75c-.66.23-.75.67-.72,1.04.07.29.22.64.62,1.02l.7.8c.03.24.15.89-.86,1.16.25.06.52.2.71.6-.09.18-.37.49-.7.78.12.82.24,1.07.83,1.62-.56.18-.89,1.4.21,1.54.55.34.09,1.75-.68,1.52-.91-.98-1.57.95-.19.79,0,.92.33,1.28.74,1.74.3.7.59,1.09.56,1.57-.04.44-.36.93-.64,1.41-.17.89-.19,1.47.66,2-.37.61-.22,1.08.49,1.39-.47.21-.89.34-1.07.62-.2.59-.27,1.26.62,1.61.13.57-.2,1.08-.68,1.36.93.44.84,1.27.22,1.63-.5.16-.66.58-.7.75.21.3.56.41,1,.28.25.79.16,1.33-.56,1.9.13.34.37.58.6.78l-.87.97c.47.58.92.61,1.43.81-.64.63-.74,1.28.09,1.81-.2.07-.65.42-.47.91-.02.74-.35,1.11-.79,1.67.91,0,1.68.36.99,1.58.41-.04,1.18.5.72,1.12l-.59.99c-.9-.36-1.27.64-.31.97l-.76,1.12c-.09.38.04.75.49.99-.03.74.32,1.06.7,1.42-.7.32-.68.8-.53,1.14.22.13.46.26,1.24.37-.34.83-.9,1.2-1.56,1.59-.08,1.16.55,1.56,1.36,1.47-.33.83-.53,1.43-1.03,2.05l1.41,1.45c-1.16.36-1.32,1.87.09,1.94-.39,1.01-.59,1.88-.37,3.44-1.15.03-.52,1.78.29.54.28.11.74,1.02-.29,1.48l.59.64c-.19.18-.51.37-.59.98l-1.51,1.02.9.98c-.06.28-.05.63-.65,1.11.46.32.55.8.48,1.21l-.62.96c1.35,1.22,1.35,2.78.47,3.99,1.02.44,1.83.54,1.23.57-1.53.69-1.52,1.58-2.07,2.46.65.62,1.07.51,1.58.39-.64.72-.81,1.41-.23,2.09,1.14-.18,1.11,1.08-.2.87.49.56.71,1.21.62,1.9-.04.54-.46.94-.87,1.21,1.23.24,1.07,1.33.33,1.59-.19.62-.11.98-1.1,1.99.41-.22,1.05.32.73.77-.48.5.33,1.43,1.19.47.25.61.22,1.83-1.19,1.99-.75.42.19,1.51.79.48.85.1.77.75.6.99l-.63.86c-.06.96-.67,1.44-1.64,1.38.44,1.19,1.01,1.88,1.74,2.61-.73.6-.79,1.21-.6,1.96-.63.4-.89.61-1.21,1.19.93.09,1.14.37,1.1,1.22-.47.21-.9.61-.29,1.36.46-.44,1.48.22.4.81.29.05.82.61.17,1.07-.23.38-.56,1.01-.12,1.79-.3.51-.84,1.01-1.27,1.42,1.01-.05,1.37.56.71,1.16.83.52,1,1.01,1.15,1.74l-1.16,1.2c.75.42.6,1.14-.06,1.44.23.94-.27,1.36-1.2,1.29.35.82.37,1.34,1.45,2.09-.52.16-1.33.56-1.22,1.51-.28.8-.82,1.19-1.71,1.68.86.44.92,1.02.48,1.37-.46,1.16-1.27,1.78-2.07,2.85-.49.54-1.41.95-1.61,1.84-.42.99-1.35,1.5-2.37,1.82-.16.86-1.26.65-1.16-.14-.29-.74-1.07-1.21-2.11-.25-.23-.87-.15-1.23-1-1.92-.38.75-.91.87-1.16.78-.23-.22-.42-.41-.65-.93-.88.23-1.38-.21-1.33-1.11-.57.36-1.53.33-1.74.13.2-1.28-1.16-1.22-1.54-.71-1.17.08-1.16-.33-1.4-1.08-.43-.81-.57-1.43-1.13-1.73-.47-.34-.96-.39-1.79-.25.18-.65.08-1.08-.61-1.37.11-.61.14-1.25-.52-1.88l.54-.66c-.26-.08-.76-.43-.32-.98-.57-1.04-1.57-1.34-2.65-.2.49.45.76.98.6,2.07.82-.41,1.29.33.93.66-1.02.03-1.37.61-1.62,1.06.2.98-.08,1.74-.18,2.38.43,1.41.28,2.36.15,3.77l.5.82-.73.93c1.11.83,1.12,1.78.78,2.95-.45.84-.75,1.71.06,2.67-.64.48-1.08.98-1.08,2.04l-1.16-.51c.08.78-.12,1.08-.6,1.49-.23.31-.79.24-1.02-.38-.41,1.25-.88,1.74-1.71,2.17-.26.43-.55.84-.08,1.67-.89.61-1.49,1.3-1.78,2.5-.96.07-1.61.52-1.97,1.26.64.2.57.79.04.92-.31.51-.74.56-1.03.51-.3-.32-.32-.53-.31-1.39-.53.64-.85.82-1.41.71-.17-.19-.23-.54-.99-.8.18-.3.09-.79-.39-.9-.31.56-.7.61-1.05.58l-.84-.82c-.82.5-1.36.04-1.56-.39-.22-.22-.34-.65-.31-1.04-.84-.27-.44-1.01-.36-1.09-.78-.73-1.09-.76-1.69-.39l-1.68-.83c.54-1.27.23-1.9-.63-2.58-.37.08-.81-.04-1-.35-.1-.25-.12-.87.66-1.04.27-.72.09-1.82-.6-2.12l-1.19-.88c-.62.18-1.38-.39-1.02-1.22-.37-.24-.82-.73-.72-1.26l.53-.97c-.9.21-1.49.26-2.13-.67-.08.22-.32.67-.91.73-.79-.39-1.78.32-.93,1.51-.87.02-1.48-.19-2.51-.6.03.92-.09,1.22-.68,1.68l.44.65-.61.73c-.41.35-.54.75-.54,1.21-.82.1-.77.9.08.97-.57.64-.73,1.41-1,2.32-.28.92-.31,1.67-.21,2.79-.89-.21-1.46.48-.99,1.23-.28.9-.22,1.62.37,2.2-.96-.04-1.36.39-1.33,1.29-.1.55-.97,1.07-1.2-.08-.66.25-1.35.32-2.17-.2l-.11,2.25c-.82-.48-1.45-.45-2.27-.14-.81-.26-1.53-.09-2.09.54-.74-.52-1.49-.65-2.87-.42.09-.82.45-1.19.75-1.61l-1.31-1.15c.81-.26.77-.82.18-1.19-.77.28-1.32.16-1.34-.9-.83.57-1.31-.41-.7-.68,1.14.21.53-.97.22-.8-.33-.52-.78-.38-1-.18.23-1.35-.36-1.7-.91-2.49l-2.3-2.16c.82-.18.78-.81.21-1.05-.68-.14-1.14-.82-.67-1.6-.65-.79-.79-1.32-.94-2.46-.49.63-.85.64-1.82,1.23-.4-.3-1.48.28-.42.88-.06.19-.5.92-1.45.9-.39.39-.04,1.02.82.85-.75,1.22-1.75,1.9-2.8,2.94-.73-.11-1.05.37-1.17.76.16.16.41.49.44.64-.51.71-.88,1.03-1.84.69.25-.27.59-.41.67-1.21-.87.06-1.11.37-1.77,1.06.06.47-.14.96-.62,1.2-.07.63-1.46.63-.92-.47-.5-.57-1.55-.64-2.5-.39-.04-.65.33-.86.38-.95-.34-.28-.5-.37-1.32-.42-.16.53-.73.86-1.2.39-1.11-1.41-2.12-2.66-3.89-3.42-.01-.62-.41-1.38-1.51-.87l-.5-2.04c-.23.57-.85.92-1.21.14-.93-.04-1.82-.66-1.68-1.72.96.22,1.1-.83.23-.87-.82-.64-.98-1.64-.75-2.85-.7,0-1.22.59-1.07,1.18-.4.84-.38,1.48.33,2.12-.33.35-.6.68-.5,1.53-1-.28-1.63.03-2.22.82.3.64.5,1.36,1.09,1.92l-2.23,1.83c.42.63.13,1.04-.42,1.23-.37.08-.78.07-1.2.82.46.63-.09,1.27-.74.57l-1.36,2.31c-.56.03-.76.33-.94.52-.21-.18-.35-.41-.87-.49.22.67.2.99.01,1.47l-1.04.73c-.47.33-1.35-.26-.69-1.29-.68-.32-1.39-.04-2.3.06.19-.74.26-1.43-1-1.86-.14.58-.66.93-1.24.81-.2-.2-.4-.45-.33-1.14-.9.03-1.67-.4-1.79-1.17-.36-1.24-1.54-1.45-2.3-1.49-.48-1.48-1.21-1.87-1.01-3.73-.96.16-.96.65-1.19.91-.05-.21-.29-1.09-1.09-.43-.53-.51-1.02-1.65-.59-2.56.21-.6,0-1.02-.42-1.39-.18-.18-.71-.14-1.25.58-.89-.82-.58-1.75-.31-2.37-1.59-1.48-1.55-2.63-1.46-4.62.39-.22.72-.76.39-1.03-.42.3-1-.15-.49-.72l-.88-.75.43-.79c-.9.07-1.63-.47-1.16-1.64-.47-.83-1.86.04-.43.82-.71.94-1.07,1.42-.7,2.52.49-.2.88-.08,1.13.25-.05.11.02.68-.89.94.27.84.03,1.57-.87,1.9-.18.43-.13.98.52,1.33-.59.66-1,1.42-.59,2.68-.68.11-.97.58-.45,1.22.53-.22,1.07.12.79.73-.77.33-1.05.92-.88,1.56.64.17.76.64.72,1l-.94.81c.24.96-.03,1.68-1.21,2.07.33.63.65,1.22,1.41,1.9-.56.31-.77,1.02-.69,1.79-1.03.21-1.12.78-1.34,1.46-.55-1.13-1.77.17-.45.62-.51.74-.87,1.32-.51,2.42-.65-.21-1.06.04-1.18.62l-2.38,2.28c-.25.88-.99,1.6-1.84,1.79-1.3.87-2.52,1.53-4.03,1.24-.55-1.14-1.52-1.54-2.54-1.51-.5-.84-1.07-1.01-1.51-1.33-.47.61-.96.26-1.14-.1-.32-.11-.44-.7.3-.77-.23-.54-.6-.56-1.06-.72.68-.31.44-1.2-.33-.86-.57-.58-1.77-1.39-2.63-.81-.3-.64-.36-1.28.43-1.92-.56-.4-.87-1.21-.37-2.13-.28-.72-.75-.98-1.58-.46l-.55-2.68c.44-.28.83-.75.7-1.3-.21-.24-.49-.79-1.21-.92-.74-.33-1.44-1.01-1.63-2.03.25-1.21-1.48-1.54-1.46-.12-.71.33-.76.98.11,1.24-.4.36-1,.75-1.13,1.5-.32.98-1.05,1.22-1.83,1.51,1.04.6,1.44,1.42.64,2.33.61,1.2.36,2.32-.74,3.07.99.37.95,1.28.23,1.59-.02.81-.32,1.2-1.34,1.2.65.46.65,1.23.13,1.8.09.8-.41,1.25-1.21,1.12-.4,1.42-.93,2.42-1.85,3.56-.6.38-.75,1.03-.63,1.6-.87.35-1.23.87-1.64,1.46-.79.09-1.06.65-1.11,1.24-.73.54-1.23,1.05-1.42,1.64ZM107.95,61.57c.49-.47,1.24-.89,1.46-1.92.86-.97,1.78-1.77,2.2-2.86.37.58.75.5,1.12.21.52-1.17.99-2.02,2.18-2.86-.13-.18-.37-.43-.68-.65.27-.14.68-.38.55-1.02.55-.37.92-.87.45-1.72.79-.46,1.06-1.07,1.15-1.62l-2.46-1.4c.18-.12-.64.21-1.36.27.28.75-.48,1.45-1.2.82-.92-.08-1.63.48-1.88,1.19-.78-.38-1.15-.04-1.4.15-.18.27-.35.55-.38,1.25-1.22-.16-2.15.25-3.03,1.2-.69.02-1.17.31-1.16,1.19-1.7-.22-2.45.63-3.63,2.13-.28.6.76,1.81,1.84,1.52.69.06.92.42,1.21.83-.2.16-.51.35-.5.89,1.38-.21,2.57.19,3.4,1.13-.39.95.48,1.6,1.2,1.12-.12-1.19,1.07-1.17.92.15ZM137,62.1c.83-.77.26-1.47-.65-1.21.16-1.33.07-2.39-.9-3.19-.61-.3-.95-.55-.88-1.76.25-.08.75-.65.33-.96-.12-.38-.77-.95-1.2.06l-1.84-1.92c-.7.57-.42,1.23.25,1.36.32.46.11.91-.2,1.09-.25-.1-.82-.18-1,.61-.82-.36-1.3.37-.94.95.45.59.82,1.33,1.91,1.43-.08.57.4,1.27,1,1.59-.18,1,.8,1.09,1.24.98.42.92.87,1.03,1.6,1.26-.14,1.55,1.88,1.11,1.27-.3ZM157.57,62.72c.97-.33,1.14-.57,1.44-.86-.21-.17-.5-.47-.57-.84.43-1.56-.53-2.53-1.76-2.82.35-1.06-.3-1.81-1.49-1.33-.16-.76-.34-1.74-1.69-1.71-.43-.71-1.46.26-.37.47.63.43.31,1.74.19,2.27,1.4.19,1.41,1.59,1.32,2.31.57.15.7.44.75.58-.48.35-.46.74-.41,1.02.12.23.41.49.66.83-.54.58-.65.96-.7,1.03.41.54.85.26.86.28.37-.31.48-.75.13-1.27.36-.69,1.13-.82,1.63.05ZM188.78,65.73c-1.29-.1-1.23-.81-1.52-1.34-.1-.56-.18-.95-.73-1.36-.18-.24-.76-.08-1.13.39-1.05.23-1.46-.36-1.18-1.18-.9-.21-.91-1.01-1.07-1.17-1.19-.47-1.7.12-1.46,1.07.39.71.87,1.61,2.12,1.78-.09.45-.13,1.07.45,1.76-.48.83.04,1.38.42,1.55.3.25.57.35,1.17.26-.44.73-.12,1.41.86,1.21-.19-.63-.15-1.1.45-1.5.07-.11.59-.12.87.21.85-.42,1.07-1.04.73-1.71ZM97.46,105.99c-.78,1.03-.09,1.83.51,2.11.77-.43,1-.96.74-1.76,0-.6-.1-1.06.4-2.03.07,0-.38-.28-.7-.6.05-.15.22-.44.46-.9.65-.59.74-1.43.12-2.03.41-1.17.05-2.12-.61-3l1.51-3.12c-.7-.49-.67-1.19.04-1.7-1-1.13-.44-2.74.61-3.59-.59-.61-.23-1.13.22-1.42-.35-1.36-.31-2.32.14-3.28.48-.21.64-.48.81-.71-.16-.23-.32-.52-.81-.69-.34-.99.11-1.72.96-2.38-.97-.14-1.31-.48-1.54-1.12-.54-.26-.83-.73-.89-1.18-.23-.5.06-.95.53-1.21-.6-.53-.62-.83-.62-1.49-.5.18-.65.39-.85.61-.14-.24-.38-.69-1.06-.49-.45-.4-.61-1.17-.83-1.66.67-.9.57-2.01.1-2.7-.19.84-.93.65-.92.06-.13-.55-.61-1.1-.97-1.5-.62-.44-1.34.22-.66.92l-1.37,1.74c.84-.16,1.13.3.89.71-.62.53-.66,1.07-.88,1.84l.45.79c-.13.14-.47.37-.33.92-.47.52-.41,1.19.47,1.34l-.96,1.22c.65.19,1.05.62,1.02,1.28-.11.12-.42.24-.57.86.69-.24,1.17.25.84.77-.47.36-.19,1.11.2,1.18.71-.11.89.5.52.96-.48.41-.63.95-.13,1.48.02-.02.42-.31.74.15-.48.37-.71.69-.98,1.18.14.18.28.44.82.9-.08.79-.46,1.22-.92,1.58.96.17,1.39.53,1.18,1.53.68.7,1.48,1.82.57,2.99.27.23.63.56.47,1.15.35,1.01.6,2.07-.82,3.11l1.64,1.36c-.24,1.12.58,1.42,1.06,1.75-1.15.87-1.48,2.19-.48,3.02-.84.14-.89.8-.13,1.06ZM132.1,118.9c-1.27.23-.77,1.4-.01,1.25.74-.8.77-1.44.52-2.54,1.52.31,2.03.74,3.12,1.27-.04-1.15-.55-1.45-1.27-2.48,1.36.11,1.74.9,2.43,1.85.89-1.2.62-1.91.81-2.93-.05-.73.02-1.24.36-1.56-.83-1.43-.55-2.98.08-4.25-.74-.16-.78-.72-.56-1.08.18-.28.57-.46,1.08-.19.12-1.2-.73-1.56-1.6-1.26.04-.82-.18-1.32-.31-1.71.32-1.03.65-1.24,1.37-1.44.15-.78-.13-1.13-1.02-1.17.48-.49.67-.91-.09-1.35.13-.18.35-.44.55-.66-.21-.12-.68-.36-.37-1-.5-.33-.7-.83-.6-1.29.03-.17.56-.4.25-1.33.45-.04,1.1-.03,1.54-.96-.61-.6-.88-.77-1.53-1.88-.38.61-1.44,0-.53-.58-.44-.49-.43-1.41.11-2.02l-1.72-.64c-.48-.73-.92-1.19-.56-1.96.17-1.37-.68-2.38-2-2.76.36-.8.19-1.25-.54-1.58.3-.34.1-1.15-.68-.93-1.03-.55-1.46-1.76-.74-3.2l-1.71-1.52c.61-1.03-.14-1.59-.9-1.54-.54-.55-1.25.28-.5.84,1.08-.19,1.03.86-.07.7.14.46.44.76,1.08,1.23l-1.19,2c.61.22.65.81-.05,1.04.33.38.64.79.57,1.59.28.38.46.66.59.87l-.52.58c.63.39.51,1.26-.08,1.56l-.41,1.56c.64.21.67.87-.15,1.04.42.28.77.71.65,1.47.64.1.65.69,0,.85.2.31.39.56.51.75.08.33.02.73-.38,1.02-.14.86-.34,1.3-.72,2.15.76-.24,1.2.3.86.78-.35.48-.52,1.16-.5,1.66.31.46-.07.81-.36.92l.66.86c-.39,1.21-.09,2.11.49,2.75l-1.21,1.97c.69-.09,1.07.12,1.2.71.02.45.33.72.56.88-.15.25-.35.54-.89.76-.31.5-.01,1.22,1.01.96-.29.73-.16,1.49.56,1.91-.93.31-.92,1.27-.08,1.53-.16.79.24,1.3,1.02,1.3l.18,2.29.42.83c-.11.19-.39.29-.38.94.89-.09,1.58.39,1.67,1.14ZM173.28,98.86c.19-1.02,1.1-1.21,1.59-.27.48-.25.58-1.05-.28-1.24.1-.73-.06-1.07-.47-1.53.64-.26.88-.65,1.02-1.13.07-.41-.19-.94-.58-1.35.06-.93.25-1.27.45-1.93.25-.68.32-1.31-.08-1.78-.25-.31-.65-.65-1.67-.52.17-1.5.28-2.41-.47-3.8l.65-.87c-.97-.42-1.28-1.04-1.29-1.82-.86-.41-1.15-.86-.9-2.21-1.07.49-1.67.29-1.97-.11,1.42-.01,1.08-1.23-.09-.69-.79-.42-.72-1.65-.39-2.32l-1.94-.14c.12.49.34.65.53.85-.19.2-.41.28-.43.86.6-.46,1.46.32.56.78-.02.51-.14,1.19-.83,1.51-.93.35-1.16,1.45-.68,2.06.69-.27.97.43.31.81.16.19.52.06,1.1.23-.51.75-.38,1.3.27,1.8-.52,1.08-.15,2,.98,2.5-.15.39-.4.61-.61.8l.7.89c-.39.81.14,1.44.86,1.41.06.74.6,1.15.94,1.31-.11,1-.06,1.4-.29,2.05.53.99.68,1.55,1.58,2.45-.58.73-.53,1.46.27,2.02-.48.39-.25.93-.19.94.57.77,1.2.62,1.2.66.59-.73.57-1.23.18-2.19ZM206.63,89.07c.96-.89.81-1.2.99-1.85,1.11.42,1.12-.96.08-.63-.75-.44-1.09-.95-.67-1.87-.98-.8-1.5-1.5-1.49-2.83-.55.51-.88.6-1.32.4-.42-.13-.78-.35-1.14-.83-.44-.43-.89-.18-.95.15-.12.29-.09.71.39.96-.15.62-.02,1.05.79,1.34-.29.16-.47.41-.52.72-.29.16-.13,1.06.61.58.45.44.58,1.04.58,2,.54-.65,1.43-.69,1.68-.05.37.92.85,1.42.45,2.8.53.6,1.41-.26.54-.9ZM227.67,169.08c1.34.07,1.21.68,1.31,1.06.53.55,1.09.62,1.71-.07-.1-.36-.42-.83-1.29-.52.09-.57.2-.94-.24-1.8l.9-.77c-.2-.1-.76-.35-.5-.99-.74-.71-.97-1.77-.67-2.77.68-.3.77-1.13-.01-1.53l.61-.76c-.92-.43-.82-1.27-.02-1.7-1.73-1.28-2.45-3.54-1.18-5.69l-1.33-1.69.37-3.33c.8-.18,1.06-.77,1-1.24,0-.53-.28-.8-.68-1.8-.15-.35-1-.02-.51.88-.87-.18-.83-.77-1.05-1.48.21-.36.42-.77.4-1.2.09-.51-.21-1.01-.73-1.36.23-.68-.2-.87-.36-1.02l.83-1.16c-.75-.23-1.07-.9-1.31-1.85.08-.27.31-.51.46-.59-.01-.4-.18-.72-.56-.99l-.57-.8.6-.83c-.27-.81-.11-1.11.35-1.71-.73.27-1.39-.41-.65-.98-.19-.42-.69-.98-1.12-1.46.23-1.04-.33-1.59-1.12-1.91-.11-1.31.53-2.19,1.41-2.76-1.1-.15-1.54-.15-1.98-.62,1.57.19,1.6-1.58.19-1.32-.33-.63-.3-1.26-.17-1.74.88-.25.74-1.18.05-1.37-.87.43-1.79-.25-1.12-1.38-.61-.45-1.47.06-1.79.53.49,1.31.86,2.05,1.55,3.15-.62-.07-.98.16-1.19.51.83.28.81.85.66,1.3,1.07.36,1.05,1.04.99,1.53l-.84,1.56c1.05.74,1.2,1.27,1.11,2.45.84-.47,1.27.32.86.64-.89-.38-1.1.73-.79.96-.02.75.25.99.8,1.17.79-.09,1.06.86.12,1.09.77.54.71.9.77,1.18l-.88,1.01c.7.35.95.87.85,1.37-.05.24-.14.55-.49.98-.7.47-.81,1.26-.24,1.85.52.39.69.87.63,1.29-.06.28-.24.54-.54.76.79.54.94.65,1.41,1.58-.34.22-.7.33-1.42.44.41.89.9,1.17,1.78,1.34-.4.53-.48.9-.44,1.31.23.18.59.52.58.81-.29.86.23,1.31.55,1.62-.8.35-.85.82-.5,1.44.43.29.88.6.94,1-.01.2.12.56-.5,1.11.45.16.79.64.48,1.11-.1.18-.35.34-.4,1,1.2-.35,1.46.85.2,1.14.41.81.96.71,1.54.89-.97.51-.9,1.36.04,1.78l-1.33,1.3c.22-.08,1.21.56.23,1.19.71.51,1.51,1.76,1.36,2.69-.4.7-.43,1.21-1.01,1.67-.56.41-.63,1.16-.12,1.59.27.19.62.63.61,1.27-.1,1.11,1.72,1.33,1.41-.38ZM166.22,138.91l.15-1.45c-.27-.96-.12-1.72.47-2.63-.93-1.07-1.22-2.34-.51-4.03-.94.18-1.5.05-1.93-.45l.03-4.13c-.61-.36-.66-.69-.84-1.4-.6.86-.69,2.05.51,3.06-.85.45-.95,1.09-.73,1.55.37.33.31.92.26,1.36.17.76.24,1.03.65,1.45.41.14.54.47.54.7l-.42.74c.74.15.81.64.65,1.04l-.52.58c.9,1.44.99,2.77,1.27,4.03l.41-.42ZM136.39,139.3c-.24.85.34,1.35.9,1.44.44.11.98-.14,1.03-.93-.34-2.26-.14-4.35.4-6.33-.3-.72-.84-.88-1.14-.59l-.52.64.47.64c-.53.7-.86,1-2.07.67-.03,1.16.22,2.14.9,2.92-.91.35-.86,1.28.04,1.54ZM166.2,139.56c.02.29.11.6.31.88.28-.16.72-.13.91.36-.72-.03-1.09.07-1.36.76.59.98.16,1.77-.46,2.22.67-.04,1.18.21.85.98,1,.53.7,1.49.62,2.2.42,1.16.44,1.91,1.46,2.58-.1.99-.53,1.92-1.1,2.55.69.25,1.1.99.12,1.64.35.29.86.51,1.57.59-.48.42-.5.81-.25,1.07.18.27.4.51.92.63.11.54-.07.79-.31,1.27-.67.97-.79,2.05.46,2.75-.61.71-.29,1.26.37,1.48.85.29.75,1.32-.46,1.11.42.46.45.8.25,1.05l-.99.77.99,1.16c1.39-1.36,1.72-2.68,1.34-4.14-.49-1.19-.59-2.33-.34-3.83-.67-.61-.9-1.34-.65-2.3l-.14-1.81c.1-.44-.19-.71-.37-.87l.67-1.06c-.54-.19-.88-.77-.31-1.29-.32-.34-.52-.72-.35-1.53-1.14.36-1.6-.41-1.28-1.17-.42-.97,0-1.76.55-2.11-.67-.86-1.33-.95-1.78-1.16v-1.8s.67-.78.67-.78c.14-1.39,0-2.13-.99-3.26l-.59.78-.35.29ZM190.94,170.07c.14.14.79-.24.9-.7-.13-.22-.42-.38-.19-1.2-.59.17-1.37-.69-.31-1.16,0-.05-.5-.49-.64-.63-.03-.33.06-.73.5-1.05-.26-1.02-.74-1.7-1.24-2.67-.56-.19-1.02-.05-1.38.37-.26.22-.18.84.53,1.07.46.25.48.82-.23.83.02.71,0,.91-.48,1.72.82-.49,1.52.38.53.92.53.65,1.34.89,2.02,2.48ZM195.63,194.68c1.12-.17.81-1.38-.15-1.19.16-.57.06-.99-.58-1.25-.02-.79.11-1.25-.33-2.45.43-.1,1.17-.77.24-1.54,1.08-.19,1-1.22.29-1.47-.38-.95-.76-1.88-1.48-2.75.21-1.69-.11-2.9-1.32-4.27-.41.45-.75.75-1.57.82.48.77.91,1.11,1.84,1.5-.48.8-.27,1.26.46,1.62-.35.14-.85.73.04,1.11-.11.21-.35.48-.59.69.21.2.39.39.54.74-.95.24-.81,1.49.14,1.42.3,0,.46.82-.44,1.15.87.6,1.01,1,1,1.54-.16.34-.76.88.02,1.48-.46,1.19-.26,2.48.65,3.45-.32.69.52.84.71.53.32-.09.54-.48.54-1.14ZM95.12,265.01c.17,1.02.67,1.28,1,1.59.26.02,1.01-.02.79-1,.45.08.97-1.07-.18-.86-.21-.47-.47-1.6-.11-2.33.13-1.01.25-1.84-.07-3.14.52-.21.92-.56,1.16-.9.21-.29-.12-1.17-.88-.61-.5-.52-.52-1.13-.35-2.18l1.12-1.53c-.28-.94.33-1.39.73-1.66-1.01-.33-1.34-.57-1.54-1.61.84.09,1.16-.45,1.37-.8.36-.57.08-1.36-.48-1.57-.78.31-1.03-.54-.62-.93-.73-.18-.6-.72-.16-.92l-.95-2.6c.71-.74.98-1.64.59-2.62.02-.61-.13-1.1-.3-1.63-.35-.21-.36-.65.11-.8-.08-.87.26-1.36,1.41-1.29-.28-.45-.69-.62-1.32-.39.22-1.14-.05-1.63-.55-2.2.49-.3.6-.67.5-1.12-.06-.07-.35-.24-.5-.79.66.19,1.18-.3.83-.82-.98-.48-1.22-1.35-.7-2.33-.88-.87-.94-2.12-.23-2.71-.89-.61-.61-1.41-.3-1.86-.27-.9-.31-1.13-.79-1.62.5-.75.95-1.88.83-2.8l-1.38-2.64,1.05-1.24c-.54-.3-.51-.75-.05-1.02l-.4-.7.82-1.12c-.4-.1-.89-.4-1.04-.94.13-.52-.19-.78-.43-.92.23-.2.44-.4.58-.84.42-.28.54-.61.52-.95l-.7-.82c.35-1.01-.14-1.75-1.12-1.96v-4.73c.19-.5.11-1.07-.6-1.32.17-.82.13-1.55-.9-2.22-.52.54-.44,1.7.5,2.23-.28.67.21.92.43,1.04-.23.23-.47.29-.84,1.11.62.08,1.1.8.25,1.28.71.86,1.02,2.34.06,3.59.3.26.53.68.58,1.18-.1.24-.14.59-.67,1.14l1.2,1.32c-.8.42-.97,1.07-.6,1.72.06.06.38.27.57.77-.69-.2-1.32.22-.8.96-.33.65.01,1.57.9,1.63.64-.25.63.74-.02.45-1.07.31-1.37,1.21-1.06,2.06.17.43.52.88,1.07,1.4-.6.16-.87.22-1.13.49.12.13.48.39.41.94.29.55.7.94,1.13,1.37l-1.85,3.35,1.35,1.49c-.58.47-.86,1.11-.51,1.79.14.4.33.85,1.06,1.15l-1.14,1.33c.68.37.73.92.43,1.45.1.68.23,1.32-1,1.97.6.54,1.11,1.54.94,2.32-.92.31-.66,1.3.29,1.23-.34.66-.77.95-1.21,1.36.71.27.66.81.08,1.03-.19.94.51,1.55,1.17,1.91-.64.46-.66.85-.67,1.21l.52.66c-.59.34-.67.81-.63,1.32-.68.42-.08,1.11.49.8.27.78.51,1.02.83,1.46-.89.19-.89.89-.05,1.14-1.16.82-1.56,2.33-.83,3.49,1.16-.22,1.13.83.86,1.28-.28.15-.54.25-1.18.36.16.68.5.98,1.15,1.18-.13.95.31,1.3,1.23,1.38l-2.37,2.54c.62.14.89.41.94.87.27.68.2,1.17-.54,1.72l1.89.98ZM178.06,267.21c.66-.38.76-1,1.06-1.49l.53,1.42c.69-.69.75-1.07.75-1.51-.06-.26-.2-.53-.56-.88-.69-.4-1.15-.99-1.09-1.6,0-.63.33-1.2,1.22-1.76-.5-.46-1.35-1.48-.66-2.41-.14-.06-.72-.68.17-1.18-.56-.42-.75-1.12-.88-1.89l-.17-2.12-.49-1.55c-.01-.71-.25-1.96.09-2.65.66-.54-.24-1.5-.94-.96.08-1.06-.04-1.34-.83-2.01,1.06-.96,1-2.34.1-3.42.57-.61.39-1.16.04-1.53-.08-.27-.51-.67-1.09-.18-.43.78-.11,1.6.53,1.98-.72.7-.69,1.18-.76,1.77.24.16.62.26.94,1.08l-2.21.79c-.11,1.17.46,1.5,1.15,1.45-.3,1.03.24,1.31.96,1.61-.72,1.03-.87,1.53-.59,2.61-.49.62-.58,1.25-.14,1.99.14.28.6.4,1.19.66-1.51-.02-1.17,1.29-.12,1.11.67-.4.82.44.51.57l-.83,1.16c.79-.06,1.3.78.43,1.21-.06.81.64,1.77,1.71,1.63.27.55.15.9-.15,1.24-.13-.05-.67.08-.67.55-.48.91-.5,1.68.45,2.39-.54.58-.68,1.34.37,1.94ZM154.94,285.49c-.74.34-.77.97-.65,1.54l1,1.05c.25-1.34.63-1.77,1.54-2.48l-.59-.95c.15-.14.58-.38.26-1.01l.84-1.05c-1.12.08-1.3-.31-1.46-1.16-.14-.52-.14-1.37,0-1.92l.33-1.34c.13-.13.4-.32,1.13-.58-.54-.57-.7-1.33-.77-2.05-.58-.48-.11-1.13.69-.88-.26-.24-.61-.55-.42-1.04-.32-.98-.1-1.61.37-2.47.95-1.19,1.51-2.62.56-4.14-.03-.86.18-1.43,1.47-1.38-.46-.11-.81-.66-.31-1.14.04-.23-.18-.57-.34-.74.14-.22.3-.29.36-.86-.68.41-1.28-.23-.79-.74.45-.29.69-.58.88-.8-.28-.15-.62-.46-.58-.85.02-.94-.41-1.58-.77-2.39.6-1.17.32-2.21-.54-2.94l-1.23-2.72-1.36.37c-.07-.23-.28-.87-.93-.86-.73-.28-.82-1.38-.26-2.21-1.52.02-1.71,1.33-.76,2.31l-1.03.61c-.27.27-.54.63-.22,1.43.48.1.93-.06,1.18.11-.8.25-.97.27-1.29.78.98.12,1.14.97.87,1.26-1.29.02-1.13,1.78-.1,1.75.75.24.22,1.12-.43.73l-.83.85.52.68c-.86.42-.75,1.21-.11,1.6.71.31.71,1.2-.43,1.09.32.44.65.8-.06,1.4.39.16.53.64.32.85l-.61.65c-.18-.24-.34-.67-1.1-.51.34.42.5.81.23,1.39l-.64.78c.66-.02.97.14,1.15.45.03.22.12.71-.56,1.12.2.38.63.51,1.08.27-.29.98-.4,1.25-.16,1.99-.92,1.5-.82,3.22.72,4.3.06.4.18.8.69,1.14l-.42.73c.29.28.55.34,1.13.43l-1.24,1.32c.63,1.42,1.26,1.73,2.27,1.86-.03.71-.1.93-.49,1.44.75-.18.98.05,1.22.3.09.28.1.81-.59,1.07,0,.53.54,1.29,1.17,1.23.61-.5.74.61.05.33ZM98.12,273.55c-.1-.8-.64-1.14-1.23-1.53l.61-1.1-.47-.72c.58-.33.61-.72.58-1.06-.08-.19-.1-.49-.72-.99.56-.75-.16-1.55-.86-1.07-.11.87-.65,1.31-1.03,1.47.05,1.38.22,1.9.79,2.42-.63.26-.51.95.21.84.1,1,.97,1.89,2.13,1.74ZM129.36,282.87l1.71-1.9c-.67-.05-1.08-.27-1-.98-.63-.38-1.11-.94-1.19-1.76-1.25.6-1.6,1.2-2.26,1.86.41.79.52,1.21,1.02,1.76.09.84.53,1.66,1.65,2.07.5-.21.59-.66.07-1.05ZM171.2,298.55c1.15.42,1.64.01,2.02-.28l-.87-1.07c.15-.16.38-.48.32-.72-.25-.58-.77-.99-1.39-.25-.33-.13-.56-1.36-2.26-.65.98.98,1.27,1.95,1.06,2.77-.47.26-.87.98-.38,2l1.9-.69c-.26-.13-.75-.51-.41-1.1Z"/>
  <path d="M0,353.77v-.6h.9c.35-.13.61-.74.02-1.07-.31-.45.25-1.05-.17-1.47l-.13-5.68c.85-.24.84-1.21.03-1.44-.19-.64.09-1.21.8-1.58-.45-.99-1.01-.76-1.45-.7v-2.99c.22.09.66-.07.61-.56v-5.3c.45-.05.55-.4.49-.53-.87-.75-.74-1.85.36-2.52-1.33-1.15-1.11-2.57-.3-3.36-.84-.49-.32-1.06.03-1.18-.66-.33-.64-.84-.02-1.17-.72-.63-1.03-1.97-.03-2.97-.04-.13-.3-.45-.54-.63.24-.22.5-.43.79-.92-.39-.75-.93-.68-1.38-.57v-.58c.55,0,.84-.57.6-1.17-.2-1.03.03-1.7.53-2.14-.97-1.04-.7-2.36.07-3.23l-.12-2.57,1.44-1.55c-.42-1.15-.01-1.78.52-2.55-.09-.79,1.28-.97,1.18.21.72.17,1.41-.14,1.77-.67-.34-.65.32-1.14.85-.65-.08-.09.41.33-.19.72-.61.45.05,1.25.54.71.55-.41.66-.84.65-1.29.77-.34,1.04-.83,1.38-1.28.51.48.83.73,1.89.44.23.35-.1.96-1.15.87l1.47.84c.25.46.62.58.79.65.31-.22.45-.49.38-.97.88-.01,1.24-.44,1.2-1.36.97-.02,1.66.58,2.1,1.42.18.58.78.53.99.06.66-.29,1.11-.08,1.52.48.61-.18.83.23.96.47.22-.24.44-.45.69-.6.17.68.79.66.94.06.25-.04.62-.15,1.17.42.27-.54,1.08-.68,1.25.2.77-.08,1.41-.07,2.44.68l.89-2.56c-.92.46-1.3-.49-.68-.8,1.11.47,1.2-1.08.29-1.05-.48.27-.84-.2-.5-.56,1.32.35,1.39-1.58,0-1.17-.32-.32.02-.8.48-.53.66-.29.73-1.05.05-1.51.58-.85.74-1.98.06-2.9-.49-.18-.6-.58-.65-.76.2-.31.66-.29.85-.3.79-.54.48-1.43-.54-1.24-.14-.71.24-1.27.87-1.63l-.93-4.96c.5-1.33.63-2.85-.53-4.17l1.35-1.29-.46-.74c.14-.17.42-.44.37-.88.5-1.14.21-2.2-.5-2.93-.57-1-.39-1.72-.19-2.55-.53-.29-.1-.78.09-.81-.32-.2-.63-.52-.6-.81-.14-1.05.3-1.41,1.28-1.46-.86-1.3-1.27-2.6-1.59-4.07.73-.13.57-.84.1-.96-.21-.53.09-1.03.86-.89.05-.86.27-1.45.59-2.03-.62-.48-.32-1.08.3-1.31-.78-1.02-.86-1.4-1.07-2.29-.58.12-1.18-.49-.46-1.07-.42-.34-.72-1.08.08-1.76-.46-.4-.48-.76-.71-1.69.2-.73.65-1.55,1.26-2.53-.26-.3-.66-.75-.49-1.57-.09-.39-.32-.65-.44-.84l.68-1.07c-.76-.35-1.17-1.26-.38-1.94-.4-.5-.71-1.13-.42-1.98.56-.11.57-.74-.06-.82l-.04-6.49.53-.96c-.4-.28-.49-.75.18-1.08-.45.15-.85-.98.16-.77.6-.87,0-2.22-1-2.91.18-.68-.2-.93-.33-1.11.18-.19.44-.38.54-.93.55-.29.8-1.01-.07-1.39l.51-.7c-.29-.07-.83-.41-.29-.93-.33-.98-.47-2.29.17-3.08.41-.54.7-.65,1.45-.62l-1.96-2.1c.28-.63-.17-.88-.27-1,.15-.3.46-.47.71-.58.26-.45.27-.78-.2-1.14.45-.61.4-1.4.06-1.88.58-1.1.48-2.12.62-3.28-.65-1.05-.59-1.81-.97-3.17l1.15-2.1c.25-1.04.46-1.9-.18-2.68-.94.37-.99-.6-.86-.82-.59-.69-.11-1.29.7-1.57-.35-.26-.65-.73-.06-1.19l-.55-1.7c.73.46.87.72,1.86.56-.34-.55-.71-.88-.49-1.9-.58-.28-1.04-1.18-.21-1.82-.21-.67-.04-1.5.69-2.09-.11-.57.27-.82.54-.95l-.82-.73c-.28-.27-.47-.77.34-1.05-.5-.03-.77-.68-.26-.93.94.11.87-1.16.15-1.12-.75-.22-.85-.99-1.01-1.53.16-.31.33-.66,1-1.15-.5-.56-.79-1.43.1-2.15-.6-1.25-.75-2.17-.68-3.51.98.12,1.39-.42,1.45-1.04-1.04-.05-1.23-.86-.66-1.46-.3-.4-.58-.66-.69-.84.24-.31.8-.7.62-.63.02-1.05.07-1.33-.36-2.13,0-.75.56-1.63,1.5-1.76.72.02.76-.86.24-1.04-.69.72-1.28.05-1.04-.76.49-.7.93-1.34.68-2.42.23-.49.54-.66,1.26-.71-.74-.82-1.14-1.92-.83-3.01.26-1.28.27-2.53.17-3.87-.6-.13-.49-.87.21-.67l.41-1.41c.27-.65.05-1.44-.55-2.03.97.03,1.36-.43,1.2-1.3.83-.21.78-1.15.03-1.37-.1-.98-.14-1.83.01-2.66,1.41-.84,1.6-2.24.98-3.73.79-.16,1.03.57.69,1.08.84-.02,1.05-.55,1.22-.87.24-.31.04-1.02-.66-.79-.79-.47-1.24-1.49-1.05-2.32,1.29-1.47,1.21-3.09.63-4.57.82-.45,1.39-.46,2.09-.25-.05-1.08.48-1.4.92-1.61-.81-.83-1.47-.96-1.94-1.23-.32-1.14-.18-1.74.6-2.27-.16-1.27.16-2.42,1.15-3.59-.66-.69-.77-1.68-.4-2.67.65-.36.69-1.13-.05-1.56.42-.56.73-1.36,2-1.54.5-.84.48-2.39-.15-3.35.43-.39.58-.69.59-1.3.64.08.94-.28,1.05-.44.18-.47-.08-1.1-.53-1.22-.69.46-1-.31-.47-.66.42-.34.5-.74-.11-1.06.31-.23.64-.71,0-1.18l1.84-1.92c-.4-1.6-.12-2.42-.07-3.89l.42-.88c-.57-.74-.19-1.51.26-1.66.47-.34.8-.42,1.71-.46-.53-.53-.69-.91-.79-1.55-.68-.98.12-2,.95-2.23-.95-1.25.23-1.87,1.19-1.04.7-1.53-.61-1.94-1.41-1.62.12-.86.67-.74,1.08-.86-.6-.4-.61-.97.2-1.19l-.73-.82c.8-.11.98-.35,1.14-.49.13-.46,0-.95-.02-1.36.02-1.28.16-2.1.61-3.03.45-.87.61-1.5.02-2.43.03-.56,0-.98.06-1.5.21-.06.59-.08,1.28-.2-.3-1.2.09-1.7.5-2.46.51-.98.88-1.8.49-3.06.42-.97.98-1.77,1.84-2.4.1-.76.57-1.22,1.02-1.45-.99-.24-1.27-.42-1.46-.6.78-.7.41-1.39-.01-1.76.49-.5.39-.88-.03-1.31.82-.2,1.12-.37,1.69-1.08-.66-.56-.86-1.62-.11-2.37.74.45,1.17.16,1.4,0-.12-.22-.22-1.02.81-1.02-.09-.98-.6-1.15-1.43-1.4,1.21-.12,1.25-.92.41-1.3.11-1.12.57-1.52,1.49-1.32.62-.07,1.04-1.21.34-1.63-.53-.63-.23-1.73,1.06-1.83-.35-1.09-.02-1.46.27-1.91.21-.94.18-1.51-.45-2.13.13-.34.53-.84,1.01-.89.99,0,1.53-.37,2.52-.9-.21-.92-.14-1.68.52-2.85.29-.29.81-.78.11-1.32.52-.93,1.31-1.57,2.5-1.89.36-.37.4-.74-.1-1.04.13-.31.31-.59.62-.89.46-.21.51-.69-.05-.93.56-1.01,1.24-1.52,2.26-1.83-.92-.62-.31-1.39.55-1.11l-1.08-1.43c.71-.21.64-1-.1-1.03-.45.76-1.37-.08-.54-.49.23-.23.31-1.34.4-.98,1.15-.66,1.36-.85,2.67-.51-.22-.94-.03-1.32.51-1.71.22-.17.5-.09,1.37.35-.49-1.34-.21-2.55,1-3.01.55-.32.99-.67,1.62-.5l1.83-2.08c.22-.36.78-.47.92.31.37-.15.54-.69.53-.97.45-.72.76-.98,1.65-.95.09-.71.16-1.1.05-1.82.07-.96.65-1.66,1.64-1.74-.5,1.06.52,1.52,1.05.79-.29-.81-.35-1.21-.35-1.69.09-.16.56-.73,1.32-.21,1.3-.75,2.18-1.98,2.14-3.81.43-.48.95-.14,1.05.18.19-.52.54-.68.96-.53.8-.65,1.45-.84,2.46-1.14-.66-.85.11-1.49.5-1.15.25.43.82.31.82-.3-.66-.46.04-1.46.59-.46.55-.44.73-1.22.57-1.92,1.21-.24,1.4-.64,2.11-1.39.48.79.97.75,1.29.52-.59-1.08.07-1.68.36-1.8.37-.21.77-.23,1.29-.09.2-.77.79-.97,1.28-.79.79.01,1.35-.62,1.56-1.34.49-.44.77-.43,1.46-.31-.49-.87.26-1.49.88-.79.44-.48,1.03-1.1,1.92-1.1.17.64.79.72.98-.09-.62-.51.06-1.51.64-.5l2.63-1.91c.84,0,1.31-.66,1.75-1.22.72.32,1.13.1,1.36-.55.84.4,1.4-.15,1.35-.84.81-.27,1.29-.33,2.09-.31.13-1.21.9-1.79,1.67-2.26.38.58.84.41,1.15-.04.63.86,1.37.13.92-.65.86.31,1.31.14,1.94-.47.13-.5.69-.76,1.05-.3.66.33,1.13-.03,1.84-.22l1.42-1.41c.37.63.73.86,1.53.43-.53-.5.37-1.53.74-.27.16.1.92-.82,1.03-1.17.94-.2,1.17.12,1.17,1.01,1.06-.55,1.56-1.17,2.14-1.91,1.11.11,1.47.39,1.85.96,1.05-.66,1.58-.81,2.35-.8.26.59.76.64,1.08.54.19-.23.32-.62.14-1.2,1.12-.36,1.51.37,1.69.73.91.03,1.15.14,1.75-.03.02-.04.25-.46.7-.66,0,.77.87,1.45,1.55.36.42.22.74.83.75,1.19.92-.35,1.14.17,1.65-.2.85,0,1.36-.11,2.06-.76-.02.67.17.96.46,1.19.3.46,1.25.15.84-.7-.09-.81.9-.67.63.08.19.84,1.13.78,1.4.14-.44-.6-.58-.97-.6-1.07.28-.49.71-.29.75-.28.31.38.32.63.18,1.31,1.49-.47,2.53.31,2.49,1.76-.14.65.79.61.53-.06-.04-.72.86-.82.77.15.59-.02,1.31-.28,2,.49.04-.18.31-.77,1.02-.41.68-.57,1.27.25.39.63.75,1.11.69,1.75,1.96,2.18-.22-.97-.14-1.44.26-1.98.38.85.64,1.13,1.12,1.35.16-.16.35-.35.76-.54.26.7.02,1.14-.5,1.54l2.02.49c.43.58.84.86.84,1.5-.13.52.61.9,1,.29.05.04-.29-.27,0-.75.81.47,1.24.61,2,.52-.19,1.03.49,1.44,1.4,1.13.68-.29,1.4.17.67.97.89-.02,1.37.58.46,1.3.93.23,1.14.3,1.79.76.53-.52,1.08-.6,1.38-.45l.75,1.19c-.05-.35.43-.83.84-.52.26.07.7.57.22,1.06-.51.41-.26,1.01.17,1.12.31-.71.77-.75,1.15-.7.09.15.32.44.67.61.27-.64.81-.44.83,0,.11.84.54,1.28,1.25,1.83-.39.63-.02,1.04.27,1.14.32.3.98.08.89-.52-.43-.51-.11-.94.27-1.08l.84.59c.18.8.75,1.38,1.76,1.17-.03.81.37,1.22.98,1.47-.75.71.17,1.24.59.87.03-.03.31-.33.72-.62.68.91,1.32,1.28,2.29,1.73.89-1.02,1.36.54.36.72.21.54.6.57,1.14.36-.31.87-.04,1.13.29,1.4.28.05.71-.07.97-.58.86-.09,1.11.24,1.14,1.15-.24.65.09,1.38.86,1.19.04-.05.27-.32.72-.57.12.52.22.87.79,1.23-.22.81.23,1.42,1.24,1.17.42-.35,1.14-.11.79.61.34.7.55,1.29.48,2.3.54-.17.88-.16,1.35.01.1.14.43.57.19,1.22.42.89,1.12,1.35,2.06,1.57.36.53.43.85.46,1.1.25.27.59.41,1.21.33.6-.19,1,0,1.19.25.06.25.15.88-.73,1.16.24.25.63.45,1.16.43.25.95,1.01,1.3,1.93,1.04.73-.04,1.09.11,1.51.63.24.25.29.57-.24,1.15.74-.2,1.6-.14,1.67.76.32.38.88.75.5,1.7.73-.13.97.05,1.19.26l-.34.7c.53.44.93.81,1.12,1.41.24.8.83,1.27,1.8,1.27-.21.57-.07,1.03.57,1.26.17,1.15.74,2.31,1.67,2.93,1.11-.13,1.59.32,2.52.81-.36.25-.71.64-.7,1.19.2.2.32.53,1.08.75-.2.51-.15,1.19.46,1.44.32.32.63.63,1.63.59l-.98,1.23c1.26-.26,1.63.07,1.57,1.09.64-.18.97.14,1.09.32.08.48-.05.88-.11,1.47-.17.83.48,1.45,1.11.58.36.73.27,1.13.22,1.73,1.34.24,1.85,1.3,1.76,2.26.97,1.82,1.61,3.11,3.3,4.28l-.83,1.01c.25.35.59.45.99.39.65.7.81,1.15.86,2.31.8-.29,1.23.42.53.91.61.38.63.74.55,1.14-.1.1-.33.32-.55.74.63.26,1.11.2,1.51.15l-.29,1.87c.43-.54,1.47,0,.74.74.02.18.38.97.46,1.43.58.18.66.77-.08.99.46.64,1.07,1,2.01,1.36.26.36.32.71-.22,1.03l1.15,1.31c-.59.29-.5.73-.13.98.53.41.96,1.03,1.15,1.38.78-.33.82.52.48.74.56.93,0,1.36-.3,1.66.39.31.55.45.81.98.35-.48,1.14-.12.75.51.17.57.36,1.05-.18,1.91.77.48,1.33.97,1.78,1.49-.38,1.24-.2,2,.14,2.66.31-.75.84-.55,1-.22-.1.59.26.82.48,1.01-.17.19-.47.24-.49.96.46-.39,1.22-.07.8.66.49.61.6,1.39.36,2.23.01.81.19,1.3.59,1.53.25.24.5.37,1.1.46-.61.67-.53,1.3.14,2.19.39-.05.76.06.93.34-.07.16-.54.3-.29,1.05-.47.24-.69.82-.45,1.05.2.27.37.51.91.68-.11.67.14,1.21.71,1.6-.35.94.07,1.39.82,1.75,1-.13.94,1.1-.15.65l-.08,2.43c.88.13,1.14.58,1.7,1.52-.3,1.52.08,3.16,1.64,4.12-.65.8-.53,1.83.75,2.31-.07.92-.24,1.81.16,2.52.2.13.11,1.06.3,1.34,1.14.7,1.04,2.06.2,2.84.74.75.69,1.78.87,2.87.03.49-.27.84.43,1.8.38-.35,1.03-.01.69.52-.24.33-.34.59-.4,1.3.5.21.86.73.67,1.26-.13.13-.37.42-.51.71.64.49.26,1.02-.04,1.18.86.75,1.23,1.12,1.64,1.81-.42.29-.51.8.19,1.07-.54.74-.48,1.73.45,2.29.82.47.88,1.35.49,2.01.79.4.75.95.75,1.27-.85-.48-1.47.59-.49.93-.36,1.59.06,3.23,1.22,4.6l-.55,1.92c-.59.37.02.77.27.82.03.26.17.66-.32,1.15l1.27,1.39c-.49,1.03-.67,1.51-.66,2.55.51-.46.92-.43,1.06-.35.38.3.45.57.48.68-.41.03-.89.34-.44.92-.24.36-.41.92-.06,1.41-.06-.03,1.11.13.49,1.1.17.06,1.05.62.8,1.28-.2.12-.63.35-.71.84-.32.54-.45,1.01-.22,1.3l.96.93c-.7,0-1.05.06-1.22.73.75-.28,1.3.33.76.83-.22.85.46,1.53,1.06,1.92-.7.28-.75.82-.12,1.16-.44.27-.53.74-.21.94.23.25.42.48.85.73.05,1.01.2,1.98-.43,3.14.48.43.77,1.19.15,2.09.97.72.99,1.45.78,2.1-.83-.14-1.19.56-.74,1.13.3.18.65.39.89.66l-.6.58c.69.89,1.14.9,1.83,1.2-.97.39-1.21.47-1.44,1.78.36.06.99.57.76,1.19-.13.13-.41.4-.63.88-.59.19-.75.68-.46,1.19.64.72.67,1.52.43,2.26.87-.09,1.16.24,1.38.77-.26,1.01-.06,1.64.7,2.32-.71.77-1.12,1.01-1.19,2.11-.44.09-.88.66-.55,1.06.11.27.32.55.89.61-.08.54.09.93.68,1.14-.07.72-.04,1.17.78,1.87-.76.54-1.21,1.27-.52,2.42l-1.62,1.41c1.27.79,1.48,1.31,1.43,2.59.65-.49,1.46.3.59.74-.06.63-.23,1.25-1.1,1.2-.57.57-.74,1.18-.17,1.96-.08,0,.67.17.49.98.44.39.82.91.73,1.41l-.87.84c.94,1.07.86,1.78.9,2.99,1.18-.45,1.35.87.28.78-.5.22-.98.81-.9.83.81.56.04,1.2-.54.8-.14.9.19,1.19.52,1.8.62.85.68,1.57-.04,2.27.77.03.99.2,1.2.41-.75.43-.76,1.24.1,1.71-.9.77-1.05,2.07-.25,3,.08.73.39,1.18,1.42,1.12-.4.56-.72.48-1.47.94-.42-.2-1.27.32-.43.84-.06.75.05,1.61.67,2.04-.86.11-.87.85-.16,1.03-.07.31-.21.54-.35.7l.67.77c.57.41.65,1.11-.06,1.59.55.69.79,1.55.95,2.76.05.32-.29.71-.47.84-.18.25,0,1.11.87.73.6.39.02,1.22-.69.7-.46.91-.03,1.22.32,1.56-.7.39-.67.95-.24,1.46-.43.54.02.8.14.92-.11.23-.26.49-.76.78-.94-.15-.9,1.11.16.57-.22,1.3-.1,1.64.21,2.65l.61.79c-.15.15-.41.31-.66.85l1.42.23c.1.13.49.28.38,1.02-.79-.53-1.14-.03-1.04.64.07.95-.22,1.61-.8,2.02.57.56.5,1.23.2,1.8.42.51.88,1.17,1.22,1.95.52.41.44.83.01,1.56-.81.22-1.48.51-1.94,1.89.74.3,1.38,1.07,1.68,2.05.97-.04,1.06,1.14.1,1.33.21.49.54.66,1.24.59-.49.82-1,1.17-1.59,1.67-.26-.77-.93-.49-.95-.08-.07.73-.02,1.15.77,1.49-.36.74-.02,1.56.71,1.99.6,1.23.81,2.1-.37,3.24-.46-.44-1.42.19-.49.73.62-.65,1.58.08.66.64-.02.63.55,1.47,1.55,2.11-1.31.95-1.65,1.76-1.48,2.91.69.13.66.94-.2.91,0,.6.13,1.66.97,1.98.35.31.25,1.29-.15,1.79.7.24.6.87.01,1.05-.25.63.14,1.32,1.15,1.02-.12.7-.67.67-1,.58-.72.38-.72.96-.39,1.22.83-.21.8.64.64.78l-.61.79c0,.86.13,1.15.66,1.52.21.37.08.89-.44,1.11-.24.47-.17.86.2,1.2.05-.03.5-.25.77.28-.61.28-.93.67-1.07,1.14-.11.47.14.96.76,1.39.57.35.57.98.12,1.25-.23-.76-.89-.53-.84,0-.06.92.21,1.35,1.07,1.49-.57.78-1.14,1.23-2.34,1.72.18.57.5.87,1.39.8-.47.91-.26,1.28.15,1.75-.05.03.37-.73.86.03-1.18.51-.43,1.93.41.91.58.13.89.4,1.12.54l.7-.57c.23.88.46,1.17,1.47,1.32.25-.45.57-.67,1.25-.71.99.75,2.59,1,3.68.18l1.13.33c.63.52,1.12,1.25,2.3,1.54.4-.74.92-.97,1.41-.92.18.06.68-.05,1,.88.64-.45,1.23.09.57.7.87.5,1.26,1,.99,2.05.72-.07.83-.37,1.02-.49.26.15.49.33.65.74.67.16,1.09.74.76,1.51.66,1.4.82,2.68.62,3.87-1.1-.02-1.44.83-1.46,1.63-.51.39-.36,1.08.32,1.19l.14,4.18c-.84.57-1.2,1.72-.14,2.57-.41.24-.72.66-.6,1.19-.08.5.24.93.62,1.46.29.66.55.93.41,1.85-.44-.07-.79.09-1,.29-.1.29-.15.82.6,1.06-.16.44-.63.63-1.12.31l-.13,1.99c.09.38.4.67.6.83-.31.17-.64.48-.61.8-.05.85.04,1.36.67,1.93-.21,1.08.07,2,1.15,2.65-.6.33-1.22.77-1.22,1.76l.34,1.31c-1.48.38-1.07,1.87-.33,2.38-.69-.29-1.38,0-1.04.92-.98.73-.88,2.01-.05,2.79.02.74.47,1.08,1.1,1.56-.3.43-1.02.6-1.49-.28-.58.62-.38,1.67.32,2.33-.1.95.78,1.13,1.43.92.43,1.02-.33.92-.66,1.01-.59.87-1.08-.04-.75-.54-.76-1.06-1.61.13-.85.57.17.82.42,1.16,1.29,1.31.51,0,.97,1-.06.89-.37.47-.99,1.49-1.02,2.52-.43.46-.67.93-.59,1.47l.96,1.05c-.75.3-1.07.82-1.02,1.52-.52.39-.63.54-.75,1.53.56.29.11,1.42-.52.62-.94.16-1.67-.19-1.95-.92l-.88.98c.29.19.52.44.46,1.25-.11.11-.52-.25-1.08-.35l-2.08-.94c.06.5-.39,1.1-1.12.83-.07-.02-.44-.18-.68-.37-.42.4-.97.49-1.52.2-.94.07-1.77.1-2.69.85-.25-.38-.64-.68-1.17-.56-.53-.06-.88.16-1.35.59.27-.81-.41-1.38-.88-.73-1.43.36-3.02.1-4.45.14-.15.72-.77.67-1.02.17,0-.62-.79-1.03-1.11-.2l-2.02-.05c-.62-.57-1.52-.67-2.28.15l-.84-.82c-1.27.47-2.18.35-3.13-.71-.88.98-1.99,1.07-2.91.11-.79.69-1.61.56-2.22.2-.27.47-.75.5-1-.07-.2.09-.47.35-.69.54l-.91-.56c-2.08-.02-3.87.34-6.04-.16-.74.24-1.56.26-2.24-.59-1.09.52-1.77.46-2.99.53-.5-.66-1.35-1.18-2.45-1.07l-3.59.29c-.38-.38-.64-.52-.89-.65l-.68.4c-.43-.71-1.15-.71-1.63-.02-.62-.49-1.15-.83-2.33-.32-.21-.45-.77-.86-1.32-.2-.4-.4-1.12-.84-2.18-.59-.66-.47-1.53-.83-2.42.14-.48-.37-1.05-.58-1.78.19-.36-.81-.89-.98-1.58-.7-.35.33-.71.52-1.01.6-.36-.02-.72-.15-.94-.75-.71.23-1.06.34-1.93-.26-.16.45-.63.78-1.14.45-.26-.41-.53-.59-.77-.73-.21.19-.33.41-.92.61-.28-.73-1-.92-1.42-.15-.34-.32-.8-.5-1.46-.51,0-.7-.62-.67-.79-.21-1.23.26-2.19.07-3.4-.12-.9.02-1.79-.3-2.65.19l-2.76-.66c-.5-.2-.86-.43-1.44-.19-.53.29-.99.23-1.36-.24-.34.8-.78.8-1.42.62-.61-.41-.91-.57-1.9-.57-.24.21-.85.61-1.3-.02-.95.08-1.96.24-3.03-.61l-.63.57-.63-.64c-.39.97-1.11.92-1.64-.05-.56.75-1.8,1.31-2.53-.19-.24.59-1.14,1.18-2.05.43-.81.49-1.29.45-1.97-.63-.13.75-.56,1.03-1.24.93-.12-.03-.47-.2-.69-.38-.83.85-1.81.48-2.44,0-.3.61-.84.64-1.23.33-.25-.42-.7-.38-.93-.12.27.14.4.66-.17.81l-1.2-1.07c-.59.45-1.36.42-2.17.12-.18.77-.62.8-.81.86l-.86-.55-.93.63-.89-.94c-.61.62-1.11.64-1.8.46-1.34-.39-2.46-.21-3.5.33-1.1-.09-1.98.22-2.74-.89-.71.84-1.68,1.01-2.92.71-.02.78-.74,1.11-1.2.43-.15-.02-.52.27-.67.44l-.78-.62-2.31.63c-.28-.45-.64-.54-1.05-.44-.09.11-.35.36-.66.53-.47-.77-1.25-.8-1.73.04-.5-.56-1.41-.67-2.08.04l-3.91-.45c-.3.29-.79.33-1.55.38-.77-.09-1.42-.34-2.41-.01-.59-.32-1.52-.43-1.75-.17-.08.75-1.06.65-1.26.33-.64-.37-1.13,0-1.41.4-.34-.59-.8-.53-1.08-.15l-1.61-.25c-.6.02-1.06.05-1.49-.67-1.07.84-2.37,1.22-4,.64-.49.3-1,.53-1.75-.22-.31.56-.86.8-1.36.21-.15.06-.62.45-.69.45-1.55-.87-3.02-.77-4.46-.09-.54-.21-.98-.41-1.44-.36l-.75.56c-.11-.99-.87-.98-1.3-.46-.92-.14-1.13-.23-1.74-.72.19.79-.4,1.18-.88.7-.32-.24-1.19-.31-1.45-.25-.68.8-1.51.62-2.12.24-.43-.33-1.11-.38-1.54.17l-4.57-.06c-.5.18-1.35.31-2.1-.31-.92.63-1.98.6-2.92.43-.74.87-1.62.34-1.9-.38-.53.18-.66.4-.86.61-.22-.2-.44-.37-.93-.61-.92.69-2.05.86-3-.22l-.85.84c-.14-.18-.42-.51-.93-.46-.79-.53-1.52-.63-2.35.08-.6-.87-1.43-.97-2.06-.39-.4,0-.9-.01-1.25-.37-.14.21-.38.56-.9.51-.53.24-.94.31-1.47.07l-.87-.83c-.57.6-1.03.78-1.52.82l-.97-.85c-.38.63-.92.63-1.04.55-.3-.21-.67-.32-.82-1.17-.54.1-.99.42-1.38.77-.31-.71-.92-.8-1.44-.25-1.36-.46-2.36-.33-3.47.24.07-.76-.34-1.07-.99-1.08l-.88.5c.2-.67-.25-1.14-.81-.82-.19.57-.54.76-.8.84-.2-.02-.61-.04-.94-.55-1.82.1-3.37-.03-5.11-.56-.26.56-.72.55-1.02.09l-.66.52c-.39.04-.76.05-1.11-.62-.19.25-.52.6-.89.66-.68-.4-1.3-.35-1.9.07-2.01-.45-3.92-.4-5.91.08-.94-.39-1.54-.24-2.29.33-.06-.93-.41-1.21-1.41-1.04-.41.28-.95.74-1.41.63-.32-.07-.66-.13-1.09-.67l-.81.66c-.96-.49-1.31-.49-2.09-.57-.3-.11-.56-.43-.79-.72-.1.15-.32.74-1.07.38-.24.5-.82.92-1.32.71-.44.19-1.04-.01-1.31-.74l-1.07.74c-.22-.17-.47-.3-.87-.87-.78.04-1.18.43-1.54.83-.38-.4-.81-.43-1.17.14-.42-.45-1.14-.91-2.15-.33-.62-.74-1.46-.61-1.85.22-.7-.18-1.14-.03-1.67.52-.77-1.35-1.54-.99-2.44-.62-.46.18-1.07.47-1.44-.58-.37.45-1.43.51-1.5-.36-.4-1-.76-1.88-.54-2.95.94-.18.74-1.19.06-1.29-.7.18-.95-.5-.73-.86l.65-.83c-1.03.06-1.43-.36-1.28-1.3.31-.55.04-1.19-.55-1.17ZM122.84,106.12c1.22.67,1.73.19,1.97.03-.21-.22-.4-.43-.93-.89-.1.36-.57.68-.88.28-.33-.17-.63-.61-.2-1.09.82-.42,1.04-1.34.37-1.97-.84.29-1.27.14-1.48.11-.22-.52-.24-.83-.3-1.66.29-.42.62-.92.19-1.79.82-.51,1.18-1.19.98-2.08,1.09.62,1.64-.73.64-1.05-1,.59-1.6-.2-1.45-.63-.01-.56.36-1.03,1.05-1.02.62-.35.85-.77.5-1.34-.77-.09-1.05-.71-.91-1.23.19-.12.62-.44.71-.76.25-1.14-.05-1.82-.91-2.38.44-.61.59-.86.69-1.04-.12-.32-.41-.58-.95-.44-.16-.72.05-1.09.49-1.66.42-.52.86-.78.85-1.78.36.15.75.03.95-.3.4-.27-.06-1.06-.56-.56-.42.3-1.09-.42-.27-1.08-1.12-.69-1.82-1.51-1.98-2.59.72.41,1.24.06,1.08-.8.83.3,1.73-.39.85-1.38-.06.42-.6.89-1.01.49-.1-.14-.43-.3-.41-.95.56.54,1.29.2,1.22-.58.95-.41.32-1.7-.6-.64-.33-1.18-.09-1.8,1.2-2.57-.47-.16-.95-.7-.22-1.29l-1.83-1.9c1.08-.7,1.34-1.16,1.82-2.26l-.39-.61.64-.85c-1.14.09-1.55,0-2.07-.41.81-.35,1.19-.3,2.02-.22.3-.79.32-1.4.1-1.88-1.01.39-1.29-.62-.71-1.03.59-.17.45-.89-.17-.78-.9.54-1.5-.63-.32-.99-.56-.99.04-1.55.84-1.35l.76-2.11c-.4-.25-.97-.44-1.1-1.41.73.5,1.41-.48.48-.74-1.15.83-1.51-.95-.09-.48.45-.64.48-1.16.71-1.74l-1.77-.32c.75-.48.88-.79,1.28-1.25-.08-.45-.2-.9-1.03-1.38.73-.87.6-1.52-.26-2.12.51-.46.87-.71,1.1-1.43-1.28.32-1.38-1.25.02-.88-.14-.35-.08-1.08.72-1.05.61.1.71-.75-.01-.73-.83.53-1.44-.21-1.23-.71.05-.28.23-.53.52-.64-.74-.75-.12-1.41.62-1.57-.41-.82-.51-1.32-.69-2.42.63-.69,1.4-1.05,1.98-1.33l-.63-1.54c-.88.29-1.44-.27-.68-1.19-.97.07-1.2-.49-1.04-.86.02-.56.46-.77.87-.67-.56-1.01.11-1.23.52-1.35.29.16.5.4.66.67.38-.87.26-1.38.17-1.81-.51-.44-.31-.91.09-1.25-.82-.13-1.1.11-1.71.32l.37-1.34c-.3-.23-.43-.67-.2-.91l.92-.86c-.42-.07-.68-.83,0-.94.86.35.86-.94-.06-.47-.58-.5-.41-1.3.07-1.75-1.39.24-1.36-1.09-.18-.83.08-.82.39-1.24,1.46-1.13-.28-.65-.51-1.15-1.55-1.14l-.14-1.97c.4.25.92.25,1.27-.46.14-.02.42-.5-.18-.68-.62.15-.84.46-.99.59-.28-.28-.33-.54-.5-1.12-.86,1.02-1.9,1.54-3.19,2.08-1.2.14-2.23.6-3.01,1.73-.7-.48-1.22-.18-1.47.35-1.9-.31-3.8.46-5.1,1.98-.84-.55-1.41.42-.67.93l-1.95.18c-.72-.3-1.33.31-.5.91-.86.18-1.2.52-1.64.78-1.56.46-2.48.94-3.93,1.84.59.82-.22,1.49-.76.5l-.76,1.62c-.34-.07-.79-.12-1.22.04-1.25,1.34-2.52,1.52-4.19,1.47l1.1,1.62c-.92.01-1.52.32-1.84,1.33-.71-.13-1.35-.03-1.88.42.17.74-.21.97-.57,1.19-.75.17-1.03.37-1.16,1.4-.41-.61-.82-.65-1.15-.4-.2.14-.6.39-.4,1.05-.54.42-.84.84-.69,1.64-.89-.05-1.23.38-1.36,1.03-.94,0-1.3.57-1.6,1.2.7.23.66.83.3,1.12-.21.39-.45.68-.64.83-.31-.3-.68-.89-.62-.73-1.13.07-1.48.45-1.51,1.06.1.09.32.29.54.72-.79.12-1.15.52-1.18,1.27-.36.34-.65.63-1.15.72-.66-.06-1,.81-.24,1.2.97.73-.47,2.16-1.14.52-.44.47-.71.72-1.67,1.41l.95.95c-.61.8-.96.71-1.45,1.05.96.12,1.47.48,1.07,1.48-.39-.48-.84-.56-1.11-.35-.54.25-.72.82-.07,1.19.91-.1,1.58.5,1.31,1.52.9-.1,1.33.42,1.06,1.24l2.13,2.29c-.48.72-.37,1.64.64,1.87-.12.8.42,1.65,1.57,1.71-.12.82.11,1.16.54,1.58.24.25.72.23,1.09-.4.08,1.19.4,1.58,1.13,2.06.06.5.15.85.85,1.24-.24.18-.6.36-.56,1,.84-.46,1.59-.22,1.93.68.22.1.76.82-.17,1.32.61.91,1.45,1.42,2.44,1.2.2,2.04,1.35,3.08,2.05,4.12,1.19-.18,1.68.88,1.86,1.67l3.4,3.5c-.75.73.01,1.58.75.68.17.75.46,1.14.8,1.53-.33,1.29.44,2.04,1.41,2.41.1,1.25.62,1.88,1.95,2.36.08.66.12,1.68.73,1.95,1.28.52,1.62,1.63,1.36,3.09.69-.15,1.39-.1,1.61.62.21.21,1.09.78.1,1.37.46,1.06,1.19,1.99,2.45,2.59-.37,1.29.48,1.94,1.29,2.25-.39,1.16.06,1.47.38,2.13.52.71,1.23,1.29,1.14,2.4.1.48.65,1.07,1.34,1.15.53.07,1.17.49,1.05,1.33.54.6,1.29,1.28.93,2.47l2.6,2.33c.46.79.96,1.6,1.1,2.32,1.15-.03,1.47.74,1.95,1.36,1.11-.95.78-1.75,1.25-2.43-.78-.43-.68-1.17.05-1.55-.29-.74-.42-1.45-.71-1.93-.51-.6-.54-1.78-.07-2.44ZM154.05,99.56c.01-.96.52-1.06.89-1.29.52-.19,1.31-.49,1-1.62.87-.29,1.52-.69,2.37-1.87-.11-.06-.51-.35-.67-.73,1.79-.54,2.76-1.64,3.32-3.11,1.16.15,1.08-.9,1.1-1.18,1.06-.08,1.35-.58,1.63-1.29-1.02-.11-1.51-.3-1.92-1.08.71.1.96.15,1.53-.06l.87-.84,1.2,1c.63-.33.57-.76.52-1.01-.05-.28-.22-.53-.51-.69.71-.39.7-.86.64-1.29l.88-.68c.2.2.29.47.9.51-.2-.8-.17-1.47.53-1.95.28-1.08.73-2.27,1.8-2.81.9-.44,1.37-.71,2.63-.37-.03-1.03-.8-1.05-1.26-.91.31-.74.73-1.04,1.22-1.57.72-.87,1.71-.97,2.68-.62.07-1.12-.03-1.37-.27-2.51.4-.18,1.17-.64,1.23-1.2-1.22-.7.16-1.65.53-.88-.49,1.14.8.9.72.26.31-.26.12-.77-.35-.92.92-.73,1.4-.87,2.43-1.07-.11-.89.12-1.76,1.28-2.17-.41-.92.33-1.36,1.02-1.01.62-.88,1.09-.88,2.08-.88-.34-.78-.79-.64-1.44-.81.92-.37,1.34-.45,1.69-.69.33-.58.31-1.07.18-1.84.68.12,1.11-.06,1.29-.72,1.34-.31,2.37-1.26,2.61-2.42l2.21-.77c-.51-.29-.58-.71-.48-1.01.14-.26.32-.49.63-.71.2.31.39.56.83.72.18-.81-.1-1.3-.79-1.75l.86-.96c.31-.37-.11-.95-.55-.7-.66,1.08-1.99-.14-.76-.87.01-.44-.5-1.2-1.17-1.26-.98.67-1.43-.73-.09-.56-.04-.76-.71-1.28-1.55-1.22-.64-.09-.96-.36-1.13-.75l.42-.64c-.54-.75-.86-.95-1.77-.89.12-.74.34-1.02.7-1.62-1.09-.09-1.54-.4-2.03-1.37-.63.21-1.36.13-1.73-.38.55-.66.19-1.08-.19-1.32-.11.09-.32.3-.75.53-.18-1.3-.95-1.71-1.85-2.03.79-.62.18-1.35-.51-1.11-.72-.82-1.36-1.17-2.65-1.07.43-1.09.02-1.72-.83-1.95l-2.66-1.13v-1.57c-.71,0-.97-.08-1.43-.24l-.37-1.07-4.24-.02c.17-.55.57-.8,1.35-.58-.18-.6-.65-.79-1.32-.56.29-.89.11-1.35-.3-1.75-.32.69-.82.95-1.58.35-.46.79-1.68-.2-.42-.65-.39-.44-.74-.97-2.04-1.02.63-.91-.28-1.63-1.06-.95-1.29-1.04-2.43-1.65-4.1-1.38.15-.72-.1-1-.32-1.2-.43-.04-.68-.05-1.61,0,.08-.53.51-.8.81-.94-1.11-.15-1.35-.45-1.53-1.43-.78.71-1.97,1.03-2.95.08-.42.19-1.27-.26-.44-.88-.07-.22-.49-.86-1.49-.7v-1.62c-1.14.39-1.71.21-2.26-.39l-3.83-.08c-.21-.7-.82-.76-1.23-.57-.51-.87-.23-1.15.48-1.67-.95.11-1.37.01-1.98-.67-.69-.33-1.2.41-.31.89-1.1.13-1.45.53-1.24,1.48-.07.35-.38.66-.62.84.25.15.6.42.52.93.04.4.38.68.66.86-.22.21-.45.4-.8.88.46.54.47,1.01.21,1.51.03.03-.65.15-.51,1.01-.39.26-.94.78-.24,1.38-.36.3-.58.74-.47,1.2.12.18.43.39.44,1.04.61.37.86.91.78,1.35.13.6-.36,1.11-.88,1.27l1.51,3.08c-.8.24-1.19.11-1.75,0-.35,1.33.11,2.04,1.11,2.69.16.7-.18,1.22-1.16,1.17.7.81.68,1.64.56,2.66.61.34.62.83.61,1.08-.26.24-.54.34-1.35.52l2.21,2.18c-.72.59-.92.81-.95,1.8-.61-.48-1.36.19-.7.74-.14.5-.61.99-.98,1.35,1.22,1.03,1.99,1.73,2.35,3.26-.61-.4-.94-.78-1.91-.47.66.73,1.08,1.16,1.5,2.29-.54.47-.66.94-.7,1.4l.65.9c.85.16.67,1.45-.21,1.25-.66.09-.96,1.12-.15,1.74-1.06.54-.51,1.3.07,1.34.81.64,1.09,1.21.77,2.42-.27.36-.69.82-.62,1.36l.87.95-.79.86c.27.26.5.33,1.21.46-.65.53-.7,1.04-1.04,1.63-.1-.88-.39-1.32-1.14-.83.64,1.77,1.14,2.54,2.41,3.95l-2.46.9,2.41,2.59-2.48,1.71,2.1,2.83c-.69-.11-1.18.34-.8.93.76.23.99.85.78,1.27-.19.1-.63.43-.32,1.04-.67.75-.87,1.22-.91,2.61.35.09,1.2.59.55,1.57-.22-.47-.71-.62-.94-.38-.22.14-.52.36-.58.85,1.03-.11,1.41.51,1.7.98-.04.5.32,1.23-.83,1.74.09.09.48.8-.27,1.22l1.82,1.95c-.8.04-1.06.2-1.34.54.84.29.73.86.67,1.11-.26.29-.52.38-1.27.35l2.11,2.4c-.7.47-1.16.58-1.45.83-.12.33-.08.85.59,1.02l-.04,3.44c-.67-.14-1.1.06-1.39.47,1.19.05,1.4.58,1.5,1.23.55.16.68.61.55,1-.09.08-.41.38-.59.62.91.57.31,1.36-.6,1.05.41.43.67.79.59,1.54.7.15.71.72.59.99-.21.27-.58.43-1.18.25-.31,1.71.27,2.89,1.23,4.06l-1.99.26c.76.66,1.01,1.28.64,2.35.33.52.5,1.03,1.61,1.18-.23-.58-.3-.95-.08-1.4.13.17.59.37.91-.11-.82-.6-.2-1.39.75-.93-.23-1.07-.02-1.71.99-2-.21-.59.44-1.24,1.01-.45.43-.27.53-.95-.18-1.32-.55-.54.21-1.45.76-.45.39-.38.58-.94,1.85-1.24-.29-1.05.28-1.73,1.18-2.02.7-.04,1.17-.73.7-1.34-.51-.47.07-1.01.59-.68.29-.73.91-.97,1.68-.23.17-.38.31-1.01.34-1.64-.25-.8.37-1.33,1.17-1.04.89-.39,1.08-1.21.22-1.94l1.53-1.48ZM85.53,126.91c.24-.35.53-.51.76-.6.18.14.33.44.95.43.33.53.92.62,1.17.33l.79-.99c.2.26.47.49.71.62.25.12.88-.03.81-.61-.17-.63.76-.67.61,0-.06.69.61,1.17,1.24.89-.23-.98.04-1.37.51-1.74-.03-.24.85-.39.5.4.98.85,2.09.93,3.23-.08.22-.53,1.09-.71,1.09.08-.26,1.12,1.47.81.94-.08-.98-.7.74-1.57.74-.7.64,1.19,2.2,1.52,3.22.9-.78-.86.17-1.69.67-.94.3.34,1-.41.46-.85.65-.07,1.18.36,1.01,1.08.39.45.71.84.82,1.79.55-.3.89-.72,1.04-1.1-.87-.43-.07-1.14.38-.56.41.43.8.47,1.14.36.29-.07.75-.63.08-1.19.6-.79.08-1.55-.69-1.49-.44,0-.85-.37-.84-.95.38-.8-.51-1.97-1.43-1.26-.6-.1-1.43-1.18-.35-1.98-.38-.24-.8-.69-.66-1.5-.2-.56-.43-.78-1.3-.73-.54.72-1.39-.05-.71-.54.81.39.99-.53.41-.7-.29-.72-.63-1.27-.46-2.4-.31-.25-.95-.75-1.27-.97-.44.87-1.02.13-.53-.31.37-.77-.08-1.23-.14-1.31-.48-.54-.79-.39-1.35-.25.62-.6.66-1.02.2-1.53-.83.49-1.19-.05-1.38-.5.21-.19.41-.41.61-.67-.95-.1-1.23-.57-1.14-1.37-.73-.65-1.1-.72-1.72-.89.66-.76.83-1.12.65-2.48-.57-.15-1.79-.49-1.98-1.41-.03-.81-.73-1.3-1.23-1.73.35-.75.04-1.2-.61-1.38.22-.61-.05-.98-.28-1.14-.42-.31-.74-.42-1.53-.03l.69-2.28c-.66-.02-.8.33-.94.46-.28-.29-.43-.52-.56-.87-.86,0-1.18-.66-.77-1.46.16-.63.22-.88.27-1.47-.1-.21-.48-.58-1.14-.17-.46-.6-.5-1.11-.43-1.85-.6.02-.77.28-.95.43-.22-.18-.35-.44-1.14-.72.39-.67.36-1.42-.06-2.13-.24-.32-.59-.74-1.38-.76l.56-1.17c-1.38-.05-1.9-.53-2.34-1.6.77.31,1.18-.41.83-.71-.96.43-1.2-.51-1.3-.55-.28.82-1.16.4-.61-.3-.42-.19-1.39-.52-1.39-1.63-.28-.28-.72-.84-.07-1.39-.19-.6-1.48-.55-1.09.54-.38.7-1.28-.12-.48-.65.25-.79.25-1.21.16-1.43-.5-.51-.59-.61-1.78-.66.5-.19.91-.72.36-1.17-.03-.7-.4-1.27-1.29-1.11-.32-.66-.55-.95-1.11-1.47.49-.29.65-.77.34-1.14-.07-.38-.48-.67-.99-.46-.7-.11-.99-.55-1.02-1.16.08-1.31-.72-2.19-1.67-2.68.18-.95-.08-1.36-.59-2.06-.53.37-.83.91-.36,1.76l-1.2-.61c.06.95.52,1.39.37,1.85-1.3-.88-2.16.27-1.53,1.17-.11.58-.48.87-1.29.78.5.66.68,1.41-.1,2.27-.34-.2-.97-.19-1.06.53.66-.11.92-.06,1.31.26.05.05.34.35.34.8-1.04.75-1.76,1.65-1.59,3.1.79-.37,1.26.36.91.65-1.03.37-1.27.59-2.25.65.27.7-.08,1.29-.21,1.56l.41,2.28c-.55.27-1.52,1.34-.78,2.37-.26.44-.74.88-1.21,1.21.8.57,1.01.9,1.32,1.2-.03.54-.14.92-.9,1.46-.22-.48-.75-.56-.97-.3-.57.31-.72.89-.19,1.5-.86.53-.81,1.02-.8,1.44.07.21.44.32.36,1.2.44.01.86.81.1.98-.45.22-.7.83-1.09,1.45.78.85-.51,1.49-.96.38-.65.55-.52,1.57.23,2.06l-1.04,1.15c.44.7.27,1.48-.5,2.06.5.94.47,1.53.31,2.3,1.02.23.85,1.21.19,1.43-.68.3-1.1.88-.83,1.72.89-.5,1.41.27,1.07.66-1.26-.32-1.62.27-1.87.51-.44.42-.38,1.17-.43,1.65-.53.55.01,1.1.88.94-.66.71-1.12,1.46-1.28,2.88-.81.1-.99,1.46.22,1.34.14-.26.1.49-.59.85-.38-.1-.73.07-.85.43-.34.23-.14,1.34.84.83.6.32.02,1.26-.67.62-.4.71-.77.71-1.28.67-.43,1.33-.33,2.23.31,3.39-.85-.56-1.35.42-.67.84.61.49.96.67.98,1.99.54-.7,1.22,0,.8.3-1.27.41-1.63.67-2.75.66.22.46.33.62.95,1.19-.78.37-.68,1.25.29,1.25-.2.49-.05.87.26,1.09.26.05.72,0,.95-.58.73-.11,1.13.2,1.76.4.77.37,1.66.27,1.96-.33-.17-.71.93-.68.92-.13.22.56.82.92,1.44.87.95.52,1.64.52,2.86.11-.18-.74.44-1.22.94-1.44.53-.2,1.15-.36,1.66.51l.86-.73,1.99.06.88-.33c-.04.34.32.97.87.4.44-.05.75.62-.04.85.25.41.99.54,1.29-.25,1.03.14,1.77-.26,2.41-1.17.56-.42,1.36.24.54.85.13.61,1.16.62,1.11-.27.42-.54,1-.72,1.79-.54-.28.9.39,1.4,1.1,1.07l1.47-.7c.52.79,1.48.84,1.96.21.5.79,1.23.79,1.74-.01.17.35.66.67,1.06.12ZM183.38,123.08c.77.97,1.55.96,2.21.82.21-.9.62-1.09,1.17-1.28.06.93.37,1.27,1.46,1.32.29-.04.89-.73.28-1.51.49-.44,1.02-.32,1.34-.13l.88,1.63c.28-.37.67-.67.87-1.58.38-.41,1.37-.06,1.2.84l.97,1.27c.83-.74.93-1.17,1.17-1.78l1.22,1.33,1.29-.8c.18,1.21,1.55.76,1.2-.09-.99-.27-.24-1.69.45-.62.06-.13.78-.46.87-.15-.34.9.41,1.17.72,1.32-.27,1,1.03.71.59,0-.82-1.01.91-1.48.61-.14.41.21.75-.09.92-.28.41.76,1.07.59,1.33.23-.56-.44-.58-.87-.52-1.21.21-.34.42-.71,1.44-.38.22.46.99,1.49,1.83.78,1.09.45,2.22.29,3.18-.7-.02.94.19,1.39.49,1.72.42.17.79.33,1.55-.18.47.76,1.59-.06.49-.64.17-.57,1.08-.7,1.4.27.43-.37.78-.54,1.52-.61-.03-.78,1.03-.38.36.19.43.78,1.53.77,2.08.16-1-.54-.17-1.2,0-1.2.56-.42,1.04-.32,1.52.02.51,1.13,1.69,1.41,2.78,1.2.4.41.9-.33.48-.6,0-.36-.39-1.01-1.22-.43-.42-.37.02-1.17.56-.97l1.43.13c.08.08.3.21.52,1.25.62-.59,1.44-.6,1.87.22.28,0,.6-.2.76-.44.28-.16.44-.66-.3-.91.68-.59.82-1.48.19-2.43-.2-.14-.49-.32-.64-.6.06-.18.2-.44.39-.68-.65-.34-.73-.8-.46-1.41-.67-.18-.76-.55-.75-.9l.6-.66c-.6-.39-.83-.69-1.1-1.15.19-.11.42-.43.38-.66-.17-.54-.13-.78-.58-1.47-.33.42-.75.64-1.28.15.31-1.04.38-1.5-.05-2.7.79-.1.96-.85.6-1.15l-1.13-.24c.17-1.29-.2-2.06-.81-2.77l-1.06-2.49c-.38-.13-.6-.32-.79-.61.13-.11.35-.44.31-.66-.03-.91-.33-1.51-.73-2.2l-.68-1.82c-.32-.98-.9-1.87-1.45-2.69.09-1.85-.64-3.01-1.68-3.98.61-.32.53-.8.09-1.02-.53-.76-1.05-1.22-2.02-1.74.18-.45.42-.66.6-.86-.28-.12-.7-.42-.39-.93l-1.57-3.51c.25-.89-.04-1.55-1-1.86.25-.89.06-1.48-.33-1.9.13,1.42-.89,1.46-1.06.45-.11-.67.03-1.32-.64-2.17.62-.93.19-1.99-.79-2.36-.16-.46-.42-.64-.64-.85.17-.2.38-.41.55-.79l-1.89-1.79c.16-.99.12-1.7.04-2.31-.52-.7-1.32-.37-1.14.44.08.56-.7.74-.74-.03.61-.64-.06-1.38-.56-.95-.31.53-.58.73-.81.93l-.95-.76c.46-.57-.21-1.38-.79-.57.43.89.32,1.6-.06,1.97-.36-.81-.87-.73-1.19-.63-.25.16-.6.6-.25,1.23-.35.77-.81,1.26-1.92,1.29l.16,1.6c-1.35-.16-1.83.82-1.83,1.68-.63.68-.92.89-1.96.83.17.46.42.61.69.84-.19.21-.47.31-.73,1.07-.63-.36-1.18-.05-1.4.31-.33.38-.41.58-.32,1.38-.65-.45-.87-.74-1.73-.99.24,1.6-.08,2.26-1.13,2.88.11.64-.2,1.14-.83,1.43-.85.31-1.38.81-2.2,1.55-.28,1.02-.44,1.76-2.15,2.35.37.24.25,1.04-.38.73-1.15.53-2.02,1.81-2.29,3.27-.88-.08-1.23.38-1.27,1.1-.58.97-.91,1.48-2.36,1.48l.61.79-.72.74c.16.76-.41.91-.8.9-.96.43-1.53.65-2.15,1.65-.4-.15-.83-.01-1.02.3-.05.36.01.63.42,1.08.49.56-.08,1.2-.58.64-.64-.43-1.34.06-1.2.89-.01.7-.4,1.17-1.16.91-.53.19-1.01.72-.6,1.62-.66.31-1.29.5-1.77.78-.43.65-.56,1.06-.54,2.26l-1.23-1.15-.91,2.48c-.03,1.23-.92,2.03-1.92,2.5.14.88-.84.9-1.21.52-.07,1.61-.35,2.14-1.08,2.88-.51.4-.77.83-.81,1.62-.79-.11-1.18.04-1.62.89.01-.03.44.46.17.8-.68.14-1.09-.05-1.21-.48l-.76.83c.39.48.34,1.17.16,1.52-.42.51-.49.65-1.61.84.71.33.17,2.06-.74.82-.78.52-1.09,1.36-1.16,2.47-.18-.78-1.11-.62-.87.17l-1.87,1.85c.29.49.62.81,1.02,1.14.12-1,1.01-1.52,1.69-.65.31-.49.65-.99,1.4-1.47.66.47.73.73.74,1.5.56-.27.66-.59.69-1.31.54.53.84.89,1.59,1.32-.05.68.69.73.72.02.87.09,1.33-.15,1.78-.42l-.17-1.64c.39-.42.89-.14,1.02.18.26.31.05.71-.35,1.09,1.19.33,1.89-.59,1.87-1.67.67.08,1.05.57.89,1.22.19.84.56,1.34,1.43,1.76-.01-.66.06-.92.39-1.21.37.68.76.75,1.12.79.21.05,1.03-.18.84-.98.13-.62,1.21-.84,1.31.41.6-.15.73-.8.45-1.22l1.7-.11c-.08.7.12.98.67,1.29-.46.76.47,1.42.95.5-.38-.73-.08-1.39.82-1.07.06.44.02.98.84,1.54.31-.79.78-.99,1.28-.98.24.02.49.08.9.4l.22-2.28c.7.32,1.06.81,1.16,1.57.34.43.64.62.82.72.32-.18.67-.43.39-1.21.55.2,1.01.18,1.36-.55.22.28.32.47.59,1.31.09-.3.39-.8.99-.82ZM164.44,217.64l1.85,1.08c.51-.63.8-.83,1.39-1.12-.26.72.28,1.27.82.74.48-.35,1.26.04,1.54.52.71-.21.88.23,1.04.41.2-.17.46-.43.91-.5.46-.05.7-.31.89-.5.15.24.46.53.86.37-.13-1.11,1-1.1,1.16.05.54-.86.81-.9,1.41-.86.28-.04.68.1.86.65.49.63,1.43-.06.69-.76.79-.1.96,0,1.43.55.27-.16.51-.43.75-.71.11.24.47.56.77.47-.2-1.34,1.23-1.1.72.18.69.24,1.22-.27,1.57-.64l1.12,1.15,1.48-.66c-.15-.84.39-1.3,1.19-1.12.67.34,1.15.83,1.7,1.32.22.55.71.62,1.01.5.23-.13.69-.61.11-1.31.34-.34.7-.4,1.24-.3.74.69,1.39,1.57,2.49,1.77.76.14,1.52-.38.71-1.16l2.29-.08c.14.59.54.98.93,1.13.3.1.92-.04.87-.75.45-.58,1.31-.43,1.53.15.41-1,1.22-.71,1.55-.18.78.39.86,1.19.22,1.88,1.1.1,1.11-.58.98-1.15.63.24,1.64.25,1.6-.95-.34,0,.59-.16,1.08.02-.02.41.18.75.56.86.18-.04.6,0,1.1-.58l.67.65c.69.19.91-.37.89-.32.45-.64.22-.93.22-1.5.27.46.38.97.76,1.09.45.15.75.29,1.55-.11.3.75.99.92,1.34.78.23-1.01,1.3-.31,1.18-.36.95-1.3,1.59,0,1.74.33.72-.69,1.24-.18,1.09.68.36-.46.85-.55,1.11-.15.01.85.61,1.11.9,1.29.66-.71,1.28-.89,2.15-.98l2.1-1.94c.1.86.38,1.1.78,1.48.21.08.67-.2,1.38.58.27-.17.56-.86.55-1.28.76-.46,1.21.14.99.75l1.52.34.73-.73c.45.75.77.7,1.25.88-.58.41-.35.94.05,1,1.46.35,2.36-.19,2.89-1.56l1.98,1.55c-.31-.85.22-1.41.78-.89.14.14.72.02,1.04-.55l1.72,1.67c-.37.14-.59.62-.25.88.14.44.66.81,1.05.13-.43-.91-.33-1.6.36-2.21-.57-.52-1.15-1.12-1.57-1.84.43-.49.44-.61.8-1.64-.14-.18-.43-1.07.17-1.31.43-1.03-.07-2.15-1.03-3.02.62-.08.93-.2,1.17-.84-.6-.72-.69-1.5-.33-2.38-.89-.52-1.01-1.04-1.16-1.5.12-.48.42-.88.8-1.22-.63-.28-.64-.86.04-1.08-.1-.24-.31-.5-.48-.69l.66-.91c-.41-.59-.65-.81-.37-1.95-.52.74-1.49-.22-.51-.61.07-.87-.07-1.9.95-2.83-.92-.79-.91-1.22-1.01-2.49.5-.52.77-1.51-.28-1.91-.26-.79-.2-1.69-.17-2.61-.72-.42-.83-1.02-.6-1.6l.64-.72c-.67-.66-.71-1.24-.31-2-1.09-.71-1.13-1.61-.1-2.33-.74-.44-.95-.98-.3-1.52-.31-.32-.53-.73-.47-1.56.13-.57.15-1.03.27-1.85-.43-.82-.66-1.78-.28-2.75-.59-.25-.9-.73-.44-1.48-.6-.3-1.12-.87-.43-1.76l-.79-.85-.05-1.37c-.12-.99-.19-1.59-.72-2.23.93-.02,1.25-.55,1.03-1.23-.29-.46-.2-.92.4-1.32-.72-.63-.81-.98-.85-1.53.17-.16.44-.29.57-.85-1.13.23-1.28-.66-.53-1.21-.89-1.29-1.02-2.62-.14-3.91-.44-.67-.52-1.59-.63-2.47-.43-1.23-.49-2.36-.54-3.77-.52-.35-.78-1.08.13-1.49l-.56-.65c.29-.16.63-.46.56-.8.07-1.03-.02-1.63-.48-2.22.67-.45.63-1.2,0-1.56-.42-.2-.53-.58-.53-.78.09-.22.4-.65.32-.57-.44-.75-.43-1.43.29-2.22-.74-.63-.97-1.2-.86-2.21-1.12.34-1.77.31-2.75.34.75-1.04-.63-1.53-.91-.46l-2.44-.44-2.34.11c-.67-.28-1.22.71-1.42.94-1.24.4-1.63.7-2.56.62-.29-.92-.98-1.25-1.88-.98-.46-.34-.75.03-.88.19-.19-.08-.26-.54-1.21-.28.17-.48-1-.97-.78.1-1.1.62-2.16,1.29-3.8,1.55-.22.22-.76.87-1.25.12-.72.01-1.48-.15-2-.66-.32.68-.77.74-1.3.6-.22.86-1.19.82-1.38.03-.88.07-1.26-.28-1.34-1.24-.37.45-.76.81-1.57.47-.02-.61-.78-.41-.47.11.11.52-.52.87-1,.61l-.98-.88c-.44.66-1.01,1-1.76.76-.91.25-1.6.29-2.4-.79-.45.79-.95,1.17-1.9.72-.48.54-1.14.89-1.92.79-.15-.15-.93-.42-.81-1.39-.7-.63-1.56-.29-2.05.55-.75.6-1.1.9-2.43.95-.27-.49-.79-.89-1.3-.73-.48-.08-.97.29-1.35.65-1.43.2-2.04-.2-2.52-1.03,1.08-.44.1-1.32-.38-.65-.7.44-.95,1.07-1.21,1.78-.98-.34-1.24-.27-2.03-.14.08-.68.64-.8,1.08-.6.04-.81-.49-1.03-.79-1.12-.33-.11-.79-.07-1,.48-.77-.07-1.18.4-1.01,1.2l-2.99-.09c1.04-.97-.27-1.49-.71-.65-.88.04-1.1-.21-1.18-.87-.82-.11-1.37-.04-1.78.22,0,.76-.35,1-.7,1.39h-5.34c.3-.51.17-1.07-.42-1.19.48.95-.38,1.44-.78.87.56-.87-.8-.95-.42-.09-.48.89-1.88.64-2.12-.21-.88.94-1.68,1.24-2.87,1.38-.62-.22-.81-1.31.35-1.45.38-.53-.44-1.27-.88-.67-.77.36-1.38.61-1.9,1.44-.76-.16-1.53-.07-2.14.86l-.96-.87-.82.74c-.69-.66-1.06-.7-2.07-1.12-1.44.76-2.98,1.42-4.48.71,1.32-.53.45-1.94-.5-1.03l-2.25,1.23c.72.62.91,1.06.89,1.55.09.49-.2,1-.78,1.32-.6.34-.76.66-.49,1.5.5.54,1.21,1.67.9,2.37-.44.89-.46,1.91-.07,2.71.22,1.14.34,2.02,1.08,3.08-.96-.02-1.42.03-1.88.41,1.09.75,1.51,1.38,1.09,2.77.56.26.95.84.19,1.42.76.47,1.21,2.19-.24,2.7-.44.16-.07,1.53.75,1.9.21.74-.19,1.27-1.15,1.17.4.73.85,1.01,1.75,1.2.23.66-.43,1.46-1.27.81-.73.1-.83,1.36.12,1.39,1.39.56,1.52,1.99.89,2.95-.67-.91-1.46,0-.88.6,0,.99.33,1.57,1.12,2.02.11.47-.2.83-.36.94l-1.42-.13c-.17,1.07.3,1.48.85,1.89-.45.93-.17,1.46.52,1.96-.77.89-.81,1.73-1,2.66.25.52.55,1.07,1.5,1.72l-1.49,1.55c.75.57.93,1.02.69,1.84.59.32.7.71.76.88-.32.3-.61.34-1.25.53.68.58,1.33.98,1.18,2.13-.67-.14-1.15.02-1.46.54-.25.03-.37.75.32.59.53.39.66.9,1.14,1.6l-1.7,1.5c.6.84.8,1.48,1.06,2.32.85-.02.86.73.72.95-.26.26-.5.37-1.23.28.95,1.09.67,1.94.02,2.76,1.26.83,1.55,1.85,1.1,3.23-.54-.17-.92.02-1.11.3-.04.26-.09.81.6,1.12-.05.75-.22,1.64.54,2.47-.55.42-.63,1.15-.65,1.91-.56.79.17,1.84.78,2.37l-1.98.29,1.57,1.67c-.74.74-1.13.71-2.11.73.76.82.82,1.7.72,2.74.53.59,1.28.45,1.32-.57,1.32.42,2.07,1.28,2.52,2.56.27-.79.31-1.14.85-1.54-.03-.37.85-.31.39.29.05.7,1.03.94,1.44.33l.64-.88c1.62.57,2.79.31,3.91-.61.1.96.51,1.3,1.42,1.3,1.14.21,1.96-.72,1.88-1.83.73.3,1.03.69,1.4,1.08.43-.72.98-.61,1.44-.26.59-.48,1.06.03.92.54.04.54.27.93.62,1.18.37.04.8-.22.99-.68.86-.06,1.08.23,1.09,1.09.91-.25,1.17-.96.71-1.76.2-.5.62-.68.97-.67.03.86.79.85.95.06ZM80.33,218.6c.42.87.96.7,1.15.7.36-.2.52-.45.53-1.07.6.73,1.04,1.14,2.13,1.09-.29-1.11.71-1.3,1.1-.43.72-.22.92.29,1.03.47.21-.1.58-.1,1.11-.88.28.43.66.77,1.24.88.14-.1.29-.29.84-.41-.4.65.41,1.24.78.54.53-.28,1.12-.57,1.72-.71l1.03-.54c.22.94,1.45.75,1.32-.21.14-.95,1.7-.44.65.51.72.55,1.22.07,1.52-.37.1.97.52,1.35,1.48,1.05.62.49,1.58.36,1.89-.55.59.02,1.09-.13,1.47-.59.31.84.66,1.05,1.09,1.28.14-.27.51-.64.78-.63.8.3,1.21.27,2.14-.07-.26-.98.23-1.16,1.17-.47-.01.36-.07,1.09.68,1.18.26.11.85.18,1.01-.63.72.38,1.38.22,1.84-.61.5-.46,1.33.29.55.77-.08.46.51.78.8.63.42.12,1.09-.03,1.11-.86-.82-.53.08-1.32.36-.85.14,1.72,1.56,1.46,2.36,1.17.98-.04,1.79-.3,2.62-.59.63-.2.99-.3,1.58-1.12.58.96.86,1.25,1.77,1.42-.29-.61.05-1.07.6-1.02.91-.1,1.49.13,1.88,1.24.85-.53,1.31-1.07,1.85-1.87.7-.09.58-1.11-.29-.87-.51,1.29-1.66.15-.52-.39.45-1.21.24-2.27.29-3.34.91-.58.85-1.79-.15-2.09-1.02-.05-1.48-1.32-.96-1.78.31-.85.72-1.24,1.71-1.52.46-.59.34-1.08.07-1.42-.3,0-.73,0-1.1.53-.38-.16-.72-.5-.83-.97.8-.62,1.2-1.62.55-2.48.65.14.96-.04,1.23-.39.23-.33.05-.91-.56-.86-.2.65-.73.62-1,.44-.15-.1-.7-.52-.07-1.18-.31-.27-.33-1.13.57-.96.07-.83.59-1.5,1.35-2.13.53-.54-.17-1.29-.62-.36-.79-.37-1.21-1.16-.85-2.4.44-.22.95-.45,1.38-.58.15-.43.21-.95-.17-1.51l-1.04.76-.74-.79c-.39-.52-.07-1.44.96-1.14.1-.43.33-.96.25-1.51-.04-.64,0-1.05-.22-1.51-.17-.2-.39-.38-1.2-.54.69-.41.87-1.15.18-1.79-.35-.65.11-1.34,1.02-.97-.06-.74.07-.98.56-1.4.54-.6-.31-1.33-.75-.5-.56,1.13-1.57,0-.56-.54l.77-1.66c-.87-.03-1.43-.96-.62-1.46l.43-1.23c1.09.66,1.57-.2,1.59-.68-.14-.24-.36-.59-1.04-.71.01-.74-.25-1.19-.83-1.52l-.65-.77c.15-.2.38-.46.47-.95.19-.38.46-.64.66-.84-.19-.17-.59-.34-.49-1.04-.46-.24-.73-.78-.47-1.1.22-.31.49-.53.92-.91-.99-1.13-.93-2.26.23-3.11-.99-.23-1.29-.26-1.72-.64-.35.02-.25-1.15.64-.42.33-.89.56-1.95.56-2.97-1.26.01-1.08-1.37-.14-1.4-.18-.93-.05-1.3.89-1.83-1-.59-1.19-.95-1.45-1.65.69-.08,1.28-.31,1.43-1.6-.57-.21-1.37-.77-1.64-1.46.06-.89.28-1.23,1.4-1.1-.21-1.16-.61-1.55-1.19-2.17.15-.96-.29-1.53-.79-2.09-.44-.99-.73-1.93-.11-2.51,1.66-.32,1.74-2.2.94-3.12-1.19.55-1.97-.04-2.07-.99l-1.78-.15c-.38.16-.64.42-.83.6l-.76-.65c-.47-.54-1.01-.58-1.6-.43-.12.14-.37.43-.8.65l-1-1.22c-1.27.66-1.68.93-2.74,2.01-.3-.67-.87-.99-1.41-.32-.07,0-.46-.29-.64-.51-.2.22-.44.47-.81.62-1.01-.88-1.82-.94-3.05-.7.39-1.59-1.66-1.54-1.18-.02-.51.06-1.03-.1-1.38-.89-.14-.04-.55.19-1.17.25-1.41,1.42-3.47,1.82-5.14.51-.68.24-1.05-.3-1.19-.8-.66.99-1.04.95-1.62.73-.08-.72-.61-1.07-1.18-.94-.1.15-.37.52-.84.63-.53,0-.81.34-.97.52-.28-.28-.32-.48-.88-.7.23,1.1-.28,1.47-1.11,1.38-.2.84-1.17.81-1.41.07l-1.74-.14c.19-.64,0-.95-.21-1.19-.28-.13-.89-.15-1.01.65-.48-.14-.95-.06-1.21.55l-4.57.04c-.05,1.03-1.47.74-1.07-.06.58-.5-.27-1-.51-.55-.4.21-.44.65-.22.94-.93-.26-1.28.09-1.49.88-.16-.36-.4-.51-.73-.52-.25-.07-.64-.06-.92.43-.59.1-1,.19-1.8-.15.48-.37.8-.81.56-1.58-.51.19-.98.54-1.05,1.22-.27.69-1.19.74-1.74.34-.94.61-1.55-.04-1.42-1-.48.22-.64.55-.48,1.25-1.56-.36-2.42.22-3.23,1.11l-2.25-1.29c-.56.85-1.71,1.14-2.56.18-.24.4-.71.72-1.36.42-.27.86-.67.95-1.03,1.16l-1.07-.69c-.28.64-.77.94-1.31.88l-.66-.64c-.43.91-1.25.84-1.7.08-1.15.68-2.55.97-4.19-.09-.53.65-.73,1.82.15,2.68-.2.32-.47.63-1.11,1,.16.63.13,1.06.17,1.8-.12.77-.75,1.21-1.64,1.52,1.03,1.19,1.11,1.83,1.27,3.09-.55.47-.73,1.13-.72,1.75-.85-.36-1.23.13-1.35.48-.04.14-.21.76.64.92-.36.89.13,1.41,1.1,1.26-.13.62-.51.8-1.15.58l.9,1.17c-1.14.64-1.57,1.18-1.84,2.35.65.45.85.93.88,1.45-.17.12-.54.4-.67.87.27.82-.19,1.45-1.14,1.32,0,1.37.25,2.4,1.46,3.49-.86.76-.97,1.42-.86,2.27-.7.14-.72.77.02.99l-1.39,1.16c.8.43.68.98.73,1.66-.37.78-.57,1.07-.88,2.61.27-.19,1.18.4.55.93-.2.6-.31,1.04-.85,1.62.77,0,.99.16,1.25.41.09.32.01.75-.46,1.03-.36.45-.64.6-1.48.6.44.52.59.85.71,1.72-.09.46-.02.87.3,1.16.16-.07.61-.18.87.37-.8.48-1.23,1.08-1.08,1.71-.04.45.17.92.63,1.37-1.17,1.05-1.07,2.19.16,3.12l-1.71,1.05c.76.55.7.86.68,1.39-.34.41-.51.93-.4,1.41l.59.62c-.64.4-.54.91-.5,1.14.15.35.4.53,1.05.52l-1.86,1.79c0,.49-.06,1-.45,1.47.86.22,1.26.59,1.63,1.12-.82.52-.69,1.38-.3,1.84l-.72,2.03c-.22.46-.14.88.21,1.16.14-.06.57-.14.83.35-.66.83-1.23,1.29-2.15,1.95.99.62,1.03,1.06.99,1.82.88.18.87,1.14.11,1.37-.22.57.01,1.02.46,1.35-1.28,1.63-.36,3.42,1.01,3.9.57-.78,1.21-.19,1.01.59.5-.36.71-.61,1.7-.46.12.48.5.92.85,1.07.51,0,1-.48,1.28-.73.87.05,1.23-.32,1.97-.64-.11-.38,0-.83.32-1.03.24-.07.79-.05.93.62.7.46,1.49.95,1.77,1.8.13.63.86.37,1.02-.11.85-.88,1.32-1.18,2.53-1.22-.37-1.42,1.67-1.53,1.09.16.79-.08.93-.59.85-1.31.56.46.64.93.59,2.02l1.59-1.41c.83.14,1.07-.46.83-1.12l2.13,1.88c1.03,0,1.36-.32,1.56-1.31.42.57.53,1.06,1.67,1.48.41-.68.6-1.03,1.87-1.01-.73-.74.28-1.43.6-.49-.91,1.38,1.35,1.81.99.22.61-.07,1.04-.16,2.08.05-.13-.14.03-.9.69-.64.09,0,.53-.14,1.03.35.83-.92,2.35-.87,3.17.25.22.38.74.45.84-.19.77.13,1.21-.21,1.45-.77ZM86.09,304.89l1.37.52c.14-.18.42-.54.86-.65.52.05.77-.28.95-.48.2.19.38.41.83.56.31-.79,1.12-.9,1.5-.06l.66-.54.93.79.87-.7.81.82c.68-.91,1.15-.92,1.57-.98.47.11.97.43,1.38.79,1.25-.06,2.04.04,3.14.47l.85-.65.89.81.92-.7c.14.21.4.65.9.33.67.33,1.46.21,1.54-.83.65-.1,1.43-.11,2.33.29.12-.26.65-.5.9-.03-.14.83.68.87.86.7.33-.24.49-.54.26-1.15,1.31.33,1.85.72,3.15.52.72.83,1.94,1.01,2.87-.05.8.74,1.63.96,2.39-.16.56.6,1.17.5,1.47-.22.37.36.73.58,1.2.45.16-.13.39-.56,1.08-.43.44-.2.57-.97-.52-.95.31-.62.51-1.01.36-2.37.84.42,1.4-.12,1.1-.78-.72-.83-.56-1.71.04-2.44-.71.15-1.14-.35-.77-.82.26-.75.55-1.11,1.3-1.29.48-.29.77-.75.25-1.26-1.01.17-1.48-.19-1.81-.79.91.08,1.37-.43,1.23-1.31l.44-1.39c-.92.11-1.42-.31-1.51-.9-.04-.34-.26-.91.69-1.35-.54-.8-.14-1.47.89-1.27-.25-.61-.56-.72-1.28-.65l1.26-1.55c-1.19-.17-1.69-.61-2.39-1.51.21-.45.65-.51,1.04-.66-.67-.68-.09-1.24.56-1-.01-1.35-.1-2.01-1.36-2.94.79-.53,1.12-.98.83-1.91.48-.52.73-1.06,1.17-1.91-.33-.49-.78-.82-1.7-1.25.53-.26,1.33-.97.7-1.6l-.02-3.52c.49.17,1.02-.07,1.01-.58.29-.77.03-1.47-.96-1.45l-.02-2.07c.46-.03.74-.27.83-.57.33-.12.23-1.04-.51-.6-.7-.31-.7-1.38-.17-1.87.39-.54.95-.65,1.66-.91-.9-.03-1.3-.45-.91-1.1l-.63-1.47c-1.42.3-.84-1.43.18-.55,1.14-.14.44-1.38-.34-.71l-.74-1.76c.7.4,1.33-.3.72-.79-.22-.23.04-.65.3-.75l-.66-1.05c.63-.5.82-1.07,1.24-1.77.13-.62.23-1.02.84-1.52-.84-.02-1.11,0-1.54-.78-.51.41-1.17-.24-.63-.65.44-1.38,1.42-1.9,2.6-1.92-.65-.66-.74-.8-1.22-1.7-.59.74-1.48-.09-.74-.58.2-.95.79-1.79,1.92-1.93.28-.54.35-1.2-.84-1.6.04.41-.78.64-.74.25.1-1.24-.16-1.84.47-2.85-.15-.46-.73-.85-1.49-.45-.05-.03-.09.44-.9.5.4-.49-.24-1.33-.7-.65-.99.33-2.06.74-3.19.42-1.13.58-2.77.93-4.2-.07.04-.06-.37.25-.58.35l-.78-.62c-.31-.59-1.13-.67-1.43.2-.85-.23-1.54-.05-2.02.52-.47-.62-.79-.68-1.54-.68-1.26,1.2-3.22,1.28-4.34-.53-.4.49-.7.89-1.55,1.46l-1.18-1.05-.9.77c-.15-.19-.41-.52-.89-.54-.49,0-.76-.34-.91-.53-.19.27-.47.58-.81.62-.9.07-1.16.51-1.67.97.21-.69-.5-1.4-1.04-.51-.47-.27-1.15-.46-1.55-.92,1.32-.01,1.26-.99.16-.92-.7.47-1.16.66-1.77.75-.65.55-1.16.71-1.97,1.03.14-1.13-.05-1.77-1.31-2.52-.45.16-.99.28-1.64.13-.02,1.33-.69,1.89-1.86,2.04-.81-.16-1.44-.28-2.31-.14-.03-.66-.08-.93-.61-1.49.61-.26.56-.83.26-1-.37-.32-.83-.3-1.18.09-.05,0-.53.5.29.85-.54.79-1.22,1.1-2.2,1.49-.27-.72-.6-.87-1.4-.62.61-.76-.4-1.48-.75-.53-1.23-.23-2.53.13-3.29,1.37-1.19-.28-1.85-.86-2.34-1.48-1.02.05-1.47.08-2.13.59-.69-.23-1.34-.04-1.73.6l-.8.55-.7-.78c-.86.59-1.28-.15-.91-.8-.95.5-1.52.92-3.1.26.04.16-.49,1.16-1.2.24-.21.38-.71.8-1.23.65-.43.03-.86-.22-1.2-.42-2.03.69-3.89.49-5.62.19.72-.41.46-.97,0-1.05-.94-.12-1.46.25-1.32,1.3-.54-.16-.68-.4-.89-.68-.18.99-.59,1.28-1.41,1.29-.69-.16-1-.18-2.01-.11-.13.3-.73.77-1.14.11-.92-.11-2.02-.25-2.81.2.77.59,1.04,1.29.86,1.48-.37.87-.46,1.19-1.58,1.49.6.45.81.93.94,1.92.63-.14,1.29.7.23,1.13.37.18.69.58.6,1.13-.07.34-.37.75-1.02.98.17.74.13,1.05-.06,1.71.63.05.86.24,1.05.43.24.29.19.76-.32.93-.3.51-.69.68-1.38.49-.09,1.21.22,1.82,1.28,2.63-.77.53-.91,1.53-.16,2.31l-.47.74c.25.23.42.33.64.79-.72-.05-1.02.1-1.28.49.76.34.92.7,1.07,1.11l-.54.82c-.46.3-.53.69-.49.99.19.28.56.48,1.01.41.32.54.15.89-.28,1.21-.15.74.19,1.21,1.05,1.12.07.73,0,1.18-.98,1.75.47.48.64.86.5,1.47-.04.02-.48.23-.65.76.81-.18,1.23.45.91.75-1.43-.13-1.73.97-1.78,1.64.95.08,1.18.61.92,1.35.76.1,1.12.98.8,1.16-1.25-.27-1.21.99-.68,1.34.14.17.3.39.91.71-.32.25-.66.78.07,1.23-.31.3-.46.69-1.47,1.24.34.1.64.33.82.62.06.41,0,.89-.09,1.15.92.1.86,1,.48,1.35-.35-.46-.8-.45-.95-.11-.55.35-.86.68-.47,1.5.54-.46,1.44.25.5.82.07.04.6.43.27,1.03.05.46.26.86.58,1.18.22-.16.68-.22.89.32-1.55.01-1.52,1.64,0,1.61l-1.17,1.8c.16.28.49.55,1.22.48l-1.62,1.85,1.71,1.49-1.68,1.83c.84.42.89,1.02.39,1.5.35.65.59,1.43,1.19,1.96-.94.49-.98,1.32-.45,1.97-.31.8.1,1.31.48,1.67-.31.93.16,1.42.81,1.95l-1.61,1.86c.75.73.95,1.29.74,2.47l4.24-.93c.57.89,1.37,1.17,2.4.77.45-.02.75-.44.81-.57.42-.09.82-.01,1.13.54.82-.66,2-.5,2.49.37.25-.9.35-1.15.53-1.35l1.11.67c.11-.52.76-.98,1.29-.24.68-.62,1.86-.54,2.55.53.88-.53,1.22-.42,2.02-.4.7.33,1.52.6,2.31-.34.76.76,1.57.45,1.95-.12.83-.13,1.35-.18,2.32.11l.81-.87,1.11.88c.26-.79,1.18-1.32,1.84-.42l.66-.45c.16.36.45.71.77.64.79.09,1.15,0,1.56-.61.88.69,2.16.81,3.11,0,.33.48.79.74,1.47.42.34.05.61.32.82.59.18-.14.26-.37.9-.42-.32.61.18,1.13.67.78.22-.56.62-.63.83-.66l.72.37c.19-.84.86-.97,1.46-.5ZM214.66,304.76c.77-.84,1.66-.84,2.34-.02l1.31-1.13c.3.74.84.88,1.46.45.59.41.99.55,1.38,1.63.69-.22,1.14-.63,1.46-1.8,1.05.87,1.49,1.22,2.48,1.59.43-.58.72-.75.94-.91.37.13.65.2,1.17.82.15-.45.77-.88,1.21-.04l1.27-1.19c.47.8,1.03.75,1.61.99.23.24.59-.03.69-.26l.9.5c1.69-1.03,3.33-.46,4.47.52,1.15-.59,2.13-.05,3.16-.23-.08.55.43.91.97.77.3-.04.67-.48.28-.95-.41-.18-.46-.65.08-.8-.19-.93.24-1.67.8-2.09-.19-1.11-.12-1.43-.86-2.3.42-.21.82-.64.67-1.2-.09-.18-.14-.49-.76-1.05.76-.59.94-1.26.8-2.28-.56-.82-.28-1.75-.32-2.41l-.74-1.95.99-2.08c-.73-.11-1.3-.89-.55-1.43-.07-1.27.04-2.52.54-3.96-1.57-.76-2.02-2.05-.84-3.73-.94-.46-1.14-1.39-.4-1.94.07-1.19.3-2.6-.07-3.89-.34-.72-.05-1.66.18-2.51.19-.66,1.03-.85,1.44-.05.73-.16.49-1.21-.27-1.01-.46-.18-.57-.73-.52-1.32.28-.58.04-1.45-1-1.05l-.03-2.54c-.43-1.09-.31-1.96.39-3.01.44-.28.9-1.05-.24-1.42.21-.09.61-.25.78-.81-.99.15-1.47-.4-1.19-1.3,0-.41.31-.71.54-.88-.21-.21-.45-.45-.65-.84.36-.8,0-1.25-.37-1.57.85-.77,1.06-1.49,1.13-2.81-.84-.97-1.69-2.33-1.56-3.58.37-.45-.08-1-.12-1.25.05-.47.3-.87,1.06-1.16l-.44-.76c.1-.2.39-.28.34-.94-.47.4-1.17.06-1.01-.55-.24-1.11-.3-2.1.69-2.96l-.81-.94c.34-.31.59-.35,1.26-.44-.43-.53-1.29-1.09-2.11-.59l-1.64-1.28c-.37.61-1.01,1.03-1.68.73-.56-.25-1.23-.13-1.53-.37-.61-.14-1.26.46-1.74.92-.75-.27-1.22-.25-1.69-1.22-.44.14-1.2.04-1.3-.76-.56-.36-1.25-.37-1.93-.14-.05-.81-.76-.74-.92-.27-.77.14-1.08.59-1.28,1.19l-1.91-.92c-.53-.04-1.14.23-1.59.94-1.07-.37-1.84-.83-2.54-1.63-.36.58-.76.64-1.17.57-.04-.13-.3-.64-.92-.39-.64-.36-1.44-.46-1.97.47-.73-.2-1.44-.83-2.09-1.32-.81-.36-1.16-.37-1.8.19.13.71-.35,1.35-1.27,1-.14.65-.55.73-.9.65l-.85-.85c-1.38.51-2.7.57-3.97-.26-.23.27-.6.96-1.58.36-.39.44-.89.67-1.3.62-.23-.07-.59-.18-.92-.82-1.35.27-2.11.09-3.21-1.32-.3.88-.71,1.35-1.42,1.55-.63-.67-1.46-.33-1.8.11-.92-.04-1.21-.03-1.74-.5-.38.82-1.26.76-1.52-.01-.65-.02-1.02-.14-1.54-.65.04.97-.49,1.43-1.38,1.11l-.88.67c-.12-.25-.44-.61-.86-.53-.49.11-.74-.26-.91-.57-.13.14-.35.59-1.01.36-.41.53-.98.58-1.13.47-.49-.43-.75-.71-.58-1.87-.71.17-1.17.53-1.59,1.21-1.13.15-2.11-.22-2.96-.99-.16.68-.24.94-.48,1.2l-.95-.8c-.42.23-.61.52-.85.79l-.77-.62c-.5-.54-1.1-.56-1.65-.45-.11.17-.23.86-1.04.6-.16.26-.9.96-1.36-.16.07.4-.49.93-.87.47-.15,0-.7-.41-.35-.86,1.26.25.87-1.17-.08-.68-.67-.41-1.05-.11-1.35.32l.47.78c-.89.07-1.43.17-2.31,1.05-.46-.8-.91-.96-1.44-.93-.1.2-.44.54-.85.48-.83.09-1.32-.15-1.74-.67-1.25.56-2.16.31-3.19-.73-.56.53-.38.95.19,1.43l-2.62-.21c-.49-.49-1.06-.17-1.46.23.17-.75-.44-1.42-1.09-.63-.26-.32-.68-.62-1.19-.5-.1.18-.41.55-.79.59-1.25-.06-2.01.31-3.11.88-.62-.36-1.12-.41-1.81.1-.45-.83-.97-.89-1.39-.87-.35.11-.73.54-.92.96-1.43-.12-1.97-.53-2.65-1.73-.33.2-.51.68-.27,1.21-.81.66-.84,1.45-.18,2.11-.17.25-.43.46-1.17.48.55.55.72,1.2.16,1.9l1.28,2.59c-1.09.2-1.52.99-.92,1.66-.28.24-.54.67-.36,1.13.15.15.42.56.33.75-.27.71-.21,1.62-.12,2.03,1.03.09.72,1.24.49,1.29-1.22-.12-1.03.93-.77,1.33l.91.84-1.53,1.49,1.25,1.55c-.45.68-.63,1.02-.78,1.87.59.42.6.96.52,1.35-.07.29-.35.6-.52.73.9.35.75.97.54,1.43.27.53-.13.79-.35.91l.71.9c-.34.84-.69,1.55-.69,2.2.48,1.12.08,2.03-.42,3.21.77.43.99.91.93,1.44-.19.14-.44.36-.57.72.78.09.57,1.06-.2.67-.35.22-.6,1.05.15,1.6-.48.35-.86.68-1.2,1.42,1.06.01,1.45.45,1.85,1.13-.81.37-1.16.7-1.55,1.32,1.03.49.96,1.13.94,1.54-.26.26-.57.36-1.24.44l1.19,1.94c-.54.59-.59,1.25-1.14,1.93.84.14,1.12.59,1.2,1.05.11.49-.16.93-.61,1.2.83.54.73,1.15.42,1.69l-1.09.5c.16.59.58.76,1.15.61l-.45.82c.03.31,0,.65.62,1.12-.42.26-.89.75-.54,1.58-.27.98-.64,2-.31,3.02-.09.73-.05,1.37.82,1.96l-1.3,1.35c.96.47.94,1.12.77,1.68l-1.18.96c.64.51.96.94,1.2,1.76-.15.71-.08,1.24.67,1.8.36-.47.91-.52,1.24-.45l.89.86c.79-1.04,1.52-1.12,2.46-.95.61.12,1.08-.09,1.42-.53.98.49,2.07.73,3.22.41.09-.6.8-.62.84.07.57-.02.93-.1,1.86.14l.72-.68.86.92c.31-.99,1.06-1.07,1.45-.46l2.6.33c.53.46,1.24.09,1.09-.74.24,0,.83-.17,1.15.49.8-.14,1.79-.01,2.42.4,1.04-.38,1.93-.1,2.81-.04.22-.67.56-.71.76-.81l.97.69c.81-.55,1.69-.88,2.64-.33.44-.41,1.08-.77,1.95-.58.03.81.76,1.07,1.31.51.47.2.69.47.9.71.13-.23.36-.69,1.03-.44.32-.47.83-.76,1.31-.68l1.12.97.69-.84c.16.06.46.23.71.62.4.35.7.56,1.53.44-.16-1,.35-1.16,1-1.34.49-.7.86.15.45.42.83.85,1.18.7,1.43.6.28-.21.51-.38.72-.96.61.11,1.03.3,1.66.88.69-.99,1.66-.93,2.38-.05.96-.5,1.71-.2,2.11.38.46-.66.9-.65,1.48-.58,1.6.13,2.96.33,4.5-.47.21.25.81.71,1.22.46,1.21-.76,2.39-.6,3.65-.32.4.41.95.77,1.67.31-.03.01.28-.34.69-.44.66.47,1.09.54,2.17.55.48-.39,1.3-1.02,2.27-.45.64-.14,1.13-.31,1.87.52.26-.57.82-.86,1.34-.22.14-.23.41-.43.7-.43.23-.05.64-.09.92.54.72-.32,1.32-.27,1.99.52ZM21.43,336.46c.69-.86.67-1.23.82-1.73,1.24.38,1.17-1.2-.13-.7.09-1.04-.13-1.62-.61-2.09-.41-.39-1.02-.68-1.87-.18l1.28,1.56c-1.02-.44-1.38.4-.89.81.88-.54,1.14.76.16.66-.17.81.45,1.52,1.24,1.68Z"/>
</svg>