<?xml version="1.0" encoding="UTF-8"?>
<svg id="Layer_1" xmlns="http://www.w3.org/2000/svg" version="1.1" viewBox="0 0 370.2 330.4">
  <!-- Generator: Adobe Illustrator 30.3.0, SVG Export Plug-In . SVG Version: 2.1.3 Build 182)  -->
  <defs>
    <style>
      .st0 {
        fill: #f04f29;
      }

      .st1 {
        fill: #121212;
      }

      .st2 {
        fill: #f7f3ef;
      }
    </style>
  </defs>
  <g id="house">
    <path class="st0" d="M329,124.1v-41.1h-20.6V.7h-41.1v41.1H61.7v41.1h-20.6v41.1H0v41.1h20.6v164.5h329v-164.5h20.6v-41.1h-41.2ZM131.6,247.5v69.9h-57.6v-98.7h57.6v28.8h0Z"/>
    <rect class="st2" x="63" y="207.7" width="79.6" height="120.7"/>
    <path class="st1" d="M141.2,209.1v118h-76.8v-118h76.8M144,206.3H61.7v123.4h82.3v-123.4h0Z"/>
    <polygon class="st1" points="131.6 317.4 131.6 288.6 131.6 247.5 131.6 218.7 102.8 218.7 74 218.7 74 247.5 74 288.6 74 317.4 102.8 317.4 131.6 317.4"/>
    <circle class="st0" cx="93.5" cy="269.4" r="13.8"/>
  </g>
</svg>