<?xml version="1.0" encoding="UTF-8"?>
<svg id="Layer_1" data-name="Layer 1" xmlns="http://www.w3.org/2000/svg" viewBox="0 0 370.19 330.41">
  <defs>
    <style>
      .cls-1 {
        fill: #f04f29;
      }

      .cls-2 {
        fill: #121418;
      }

      .cls-3 {
        fill: #131313;
      }

      .cls-4 {
        fill: #f7f3ef;
      }
    </style>
  </defs>
  <path class="cls-1" d="M329.05,124.07v-41.13h-20.57V.68h-41.13v41.13H61.7v41.13h-20.57v41.13H0v41.13h20.57v164.53h41.13s41.13,0,41.13,0h41.13s41.13,0,41.13,0h164.53v-164.53h20.57v-41.13h-41.13ZM131.62,247.47v69.92h-57.57v-98.7h57.57v28.79Z"/>
  <rect class="cls-4" x="63.05" y="207.69" width="79.55" height="120.68"/>
  <path class="cls-3" d="M141.25,209.05v117.97h-76.83v-117.97h76.83M143.96,206.34H61.7v123.4h82.26v-123.4h0Z"/>
  <polygon class="cls-2" points="131.62 317.39 131.62 288.6 131.62 247.47 131.62 218.68 102.83 218.68 74.04 218.68 74.04 247.47 74.04 288.6 74.04 317.39 102.83 317.39 131.62 317.39"/>
  <circle class="cls-1" cx="93.47" cy="269.35" r="13.79"/>
</svg>