<?xml version="1.0" encoding="UTF-8"?>
<svg id="Layer_1" xmlns="http://www.w3.org/2000/svg" version="1.1" viewBox="0 0 1849.9 318.7">
  <!-- Generator: Adobe Illustrator 30.3.0, SVG Export Plug-In . SVG Version: 2.1.3 Build 182)  -->
  <defs>
    <style>
      .st0 {
        fill: #121212;
      }
    </style>
  </defs>
  <path class="st0" d="M1730.5,54.1c-32.6,0-50.5,15-51,35.5-.4,22.3,23.1,32.6,49.7,38.5l27.8,6.9c53.1,12,92.9,39,92.9,90.8s-44.5,92.9-119.9,92.9-122.9-34.7-124.6-101.1h62.5c2.1,31.3,27,47.1,61.2,47.1s55.7-15.8,55.7-39-19.3-30.8-53.1-39.4l-33.8-8.1c-52.2-12.9-84.4-39-84.4-84.4S1663.2,0,1730.8,0s113.9,38.1,114.8,92.9h-61.7c-2.6-24.4-22.3-39-53.5-39h0v.2h0Z"/>
  <path class="st0" d="M1357.7.1h208.1v53.1h-143.9v75.4h133.2v53.1h-133.2v75.4h144.3v53.1h-208.6V.1h0Z"/>
  <path class="st0" d="M1120.6.1h64.2v256.9h133.6v53.1h-197.8V.1h0Z"/>
  <path class="st0" d="M848.8.1h121.6c70.7,0,110.9,43.2,110.9,104.5s-41.1,104.5-112.6,104.5h-55.7v101.1h-64.2V.1h0ZM958.4,157.3c38.1,0,56.5-21.4,56.5-52.7s-18.4-51.8-56.5-51.8h-45.4v104.5h45.4Z"/>
  <path class="st0" d="M519.6,159.4c0,100.6,62.5,159.3,145.2,159.3s144.7-58.3,144.7-159.3S746.6.1,664.8.1s-145.2,58.2-145.2,159.3h0ZM744,159.4c0,66.3-31.2,102.4-79.2,102.4s-79.7-36-79.7-102.4,31.7-102.3,79.7-102.3,79.2,36,79.2,102.3Z"/>
  <path class="st0" d="M271.8.1h208.1v53.1h-143.9v75.4h133.2v53.1h-133.2v75.4h144.3v53.1h-208.5V.1h0Z"/>
  <path class="st0" d="M0,.1h121.6c70.7,0,110.9,43.2,110.9,104.5s-41.1,104.5-112.6,104.5h-55.7v101.1H0V.1ZM109.6,157.3c38.1,0,56.5-21.4,56.5-52.7s-18.4-51.8-56.5-51.8h-45.4v104.5s45.4,0,45.4,0Z"/>
</svg>