<?xml version="1.0" encoding="UTF-8"?>
<svg id="Layer_1" xmlns="http://www.w3.org/2000/svg" version="1.1" viewBox="0 0 370.2 329">
  <!-- Generator: Adobe Illustrator 30.3.0, SVG Export Plug-In . SVG Version: 2.1.3 Build 182)  -->
  <defs>
    <style>
      .st0 {
        fill: #121212;
      }

      .st1 {
        fill: #f7f3ef;
      }
    </style>
  </defs>
  <polygon class="st1" points="102.8 205.7 61.7 205.7 61.7 246.8 61.7 287.9 61.7 329 102.8 329 144 329 144 287.9 144 246.8 144 205.7 102.8 205.7"/>
  <path class="st0" d="M329,123.4v-41.1h-20.6V0h-41.1v41.1H61.7v41.1h-20.6v41.1H0v41.1h20.6v164.5h329v-164.5h20.6v-41.1h-41.2ZM131.6,246.8v69.9h-57.6v-98.7h57.6v28.8h0Z"/>
  <circle class="st0" cx="93.5" cy="268.7" r="13.8"/>
  <path class="st1" d="M233,165.6c.4.5,0,.6-.3.7-.6-.2-1.1.2-1.5.5-.5-.2-.7.2-.9.5-.3.1-.4.3-.4.3,0,.3,0,.5.3.6.2.1.3.2.3.4,0,.2-.1.2-.4.5-.4-.2-.8-.2-1.1.3-.3,0-.4.2-.8,0,0,0-.2-.2,0-.5-.5-.2-1,.2-1.1.7-.1.2-.2.3-.3.4-.1-.1-.2-.3-.5-.5-.6.3-.5.8-.6,1.3-.5.1-.9,0-1.5,0-.3.5-.7.9-.6,1.6,0,.3-.2.4-.4.3-.2,0-.2-.3-.1-.6-.5,0-.6.3-.7.8-.6-.1-1,.2-1.2.7,0,.2,0,.3-.2.4,0,0-.3,0-.2-.2.1-.3-.1-.4-.3-.6-.2-.1-.4.2-.9.2-.2.6-.6,1.1-1.4.9-.4.1-.2.4-.3,1-.4,0-.1-.3-.2-.6-.7-.2-.7,0-.8.6-.2-.4-.6-.4-1-.5-.4-.4-.8-.2-1.4-.1-.2-.2-.1-.6-.5-.7-.3-.2-.4-.4-.8-.4,0-.3.1-.4.3-.9-.5-.4-.8-.8-.7-1.6-1.2-.3-1.9-1.3-1.5-2.6,0-.6-.4-.8-.6-1.2-.3-.4-.3-.8,0-1.2-.5-.3-1-.7-.6-1.3,0-.6-.2-1.1-.3-1.8-.3,0-.5,0-.7-.3-.3,0-.4,0-.6,0,0,0-.2.2-.3.6-.4.5-.8,0-.2-.4.1-.2-.2-.3-.4-.2-.1,0-.2.3-.4.3-.4,0-.4.5-.9.7-.3-.2-.3-.4-.6-.5,0,.5,0,.7-.3.8-.2.2-.8.4-.9-.3-.2-.5-.9-.2-.4.3-.2.5-.5.7-.8.9-.2-.3,0-.5-.2-.8-.3.1-.5.4-.5.8-.2.4-.6.3-.9.3-.4.5-.9.6-1.6.4-.2.2-.3.4-.5.5-.1-.4-.2-.6-.5-.5-.2,0-.2.2-.5.5.2.4.2.8-.1,1.2,0,.5,0,1-.3,1.4-.5-.5-.6-1-.8-1.6l-.8.3c.2.3.4.5.5.8.1.3,0,.6-.5.9,0,.3-.4.2-.6.3,0,.4-.3.4-.4,0,.3-.3.4-.4.3-.4,0-.2,0-.3-.2-.4l-1.7,1.4c0,.3-.1.5-.2.7-.3-.2-.4-.3-.4-.3-.4,0-.5.2-.4.7-1,.6-2.2.6-3.3.4l-.5-.7c0-.3-.3-.3-.7-.2,0,0-.1,0-.3.2-.6-.6-1-1-1.6-1.4-.3,0-.5,0-.8,0-.2-.1-.2-.5,0-.9,0-.3,0-.4-.2-.5,0,0-.2,0-.6.2-.3-.2-.2-.6-.4-1-.3-.1-.6-.1-.9-.4-.2.3-.2.6,0,1.1,0,.4-.3.4-.4-.1-.6,0-1.1.6-1.5,1.3-.2.5-.5.9-1,1-.9,1-1.8,1.8-2.9,2.6,0,.7-.6.8-.9,1.2.5,0,.9,0,1.2.2-.2.4-.4.6-.7.7-.3,0-.4-.4-.7-.6-.4,0-.5-.3-.6-.3-.3-.2-.6,0-.7.4-.4.7-.7,1.4-1.4,2-.6,0-1.4.1-2,.4-.3.4-.4.9-.9,1.2-.5,0-.6.4-.9.6-.7-.4-1.2-.3-1.9-.2-.3-.2-.3-.5-.3-.9l-1.3-1.2c0-.4-.2-.7-.5-.9.2-.6.1-1.2-.6-1.3l-1.2-1.8c0-.6.1-1.1-.2-1.6,0-.5-.5-.9-1.1-.9-.4-.5-.1-.9-.3-1.6.5-.4.8-.8.6-1.5.3-.3.6-.5.7-.9,0-.3.2-.4.2-.5-.1-.2-.3-.2-.6-.2-.4,0-.7,0-.9-.3.3-.4.6-.5.8-1-.4-.5-.8-.3-1.1,0-.1.2-.3.3-.4.4-.3,0-.5-.2-.6-.5-.4,0-.5-.3-.9-.5-.7.4-1.1.7-1.4,1.3.4.3.5,0,.8-.2.1.4-.2.6,0,.8,0,.2.3.3.7.2.1.4,0,.9.3,1.3.3.6.5,1.2.9,1.5-.3.4-.6.8-.6,1.4-.3.2-.4.6-.6.9,0,.6-.3,1.3-.9,1.6-.4,0-.6.3-.7.4,0,.4-.2.9.3.8.5,0,.4.6,0,.6-.6-.3-.8.1-.8.6,0,.5,0,1-.6,1.1-.8.6-1.1,1.5-1.3,2.4-.3.1-.5.3-.6.6.1.5,0,.8-.6.7-.5.3-.9.6-1.5.7-.2.4.1.6.3,1,.2.7-.7.8-.6,0-.2-.2-.3-.4-.2-.8-.3-.5-.7-.2-1.1,0-.3,0-.4.2-.5.2-.2,0-.4,0-.5-.2-.6-.1-1.1,0-1.7,0-.4-.4-.7-.5-1.2-.6-.4-.5-.7-1-1.3-1.2-.3-.5-.7-1-1.1-1.4,0-.9,0-1.6.1-2.6-.5-.4-.8-.8-.7-1.4-.3.1-.5.1-.6,0-.1-.1,0-.6.4-.4.4-.2.5-.5.3-1,.2-.3.5-.5.4-1,.1-.4.5-.7.4-1.2-.3-.5-.7-.5-.9,0-.3.6-.8,1.1-1.4,1.3-.4.5-.7.9-1.4,1.1-.2.3,0,.7-.3.7-.3-.5-.8-.4-1.1-.2-.6.5-.9,1-1.2,1.7l-1.5,1.2c-.5,0-.7-.3-.8-.7l-1.6,1.4c-.5-.1-.7.2-.6.6,0,.3,0,.5-.2.6-.1,0-.3,0-.5-.2-.3,0-.5-.3-.9-.5-.4.2-.5.4-.7.7.1.3.2.4.3.5,0,.2-.2.4-.5.5-.5,0-.6.4-.7.9-.5,0-.6-.5-1-.7-.3.6-.9.7-1.6.5-.5.2-.9.4-1.3.6-.2,0-.8,0-.5.4,0,.7-.8,1.1-1.5,1-.7,0-1.2.3-1.8.6-.5-.1-.7.2-.7.5-.7.4-1.2,1-2,1-.3.5-.7.8-1.1,1.1.3.2.2.5,0,.5-.3.2-.5.3-.9.3-.8-.2-1.3,0-1.8.7-.6-.2-.9,0-1.3.2-.6-.2-.9.2-.9.7-.3.3-.5.7-.5,1.1-.4,0-.6-.1-.8,0-.1,0-.2.2-.2.6-.1.3-.3.5-.6.6-.5,0-.7.5-.6,1-.4.9-1.1,1.4-2,1.5-.3-.5-.8-.3-1.3-.2-.6-.1-1.1-.2-1.6,0-.2-.1-.1-.4-.1-.8,0-.7-.3-1.5-1.1-1.4-.3-.2,0-.6-.1-1.1.1-.2.3-.4.3-.4,0-.4-.1-.5-.5-.6-.1-.5-.2-1,.1-1.5l.2-1.6c.7-.4.8-1.3.2-1.9.1-.4,0-.6-.3-.9l-.2-1.9c-.4-.4-.5-1-.3-1.4.3-.5.2-1,0-1.6-.3.2-.4.4-.9.6-.3-.2-.3-.5-.2-.9.3,0,.4-.1.5-.2.1-.3-.1-.5-.5-.5,0-.4-.1-.7,0-1.2-.2-.3-.4-.5-.5-.8-.2,0-.3-.2-.4-.4-.2-.1,0-.3.2-.5.2-.2.3-.3.3-.5,0-.3-.2-.5-.6-.6v-2.6c.4-.6.4-1.3.2-2-.7-.4-1-1-.6-1.6.4-.4.2-.9,0-1.2.3-.7.2-1.3.1-1.9-.6-.5-1-1-1.4-1.7l-.2-2c-.9.1-1.4.9-1.5,1.7-.5.2-.9.5-1.1.9.3.3.3.5.2.9-.1.2-.4.5-.9.4-.6,0-1,.4-1.3.9l-.8,1c-.8-.1-1.3.5-1.3,1.2-.2.2-.4.3-.5.7-.8.2-1.2.8-1.6,1.4l-1,.9c-.3-.2-.5-.4-.6-.2-.2.2-.3.4-.3.7,0,.4-.1.7-.4.9-.7.5-1.1,1.2-1.1,2.1-.3.2-.3.5,0,.8-.1.2-.2.3-.3.4-.1.3,0,.6.3.7,0,.5-.2.8-.6,1.1-.3.3-.8.2-1.3-.1-.4.9-1,1.3-1.6,1.9v1.1c-.4.7-.7,1.5-.4,2.4,0,.6,0,1.2,0,1.8.3.2.2.5-.2.6-.2.3-.3.5-.6.7-.4.3-.6.9,0,1.3.1.6.2,1.1.4,1.7-.2.6.1.9.7,1.3-.8.4-1.2.9-1.4,1.7.4,1-.2,1.7-1,2.1-.1.9-.7,1.3-1.2,1.8-.1.4,0,.5.4.5.2.4,0,.6-.3.8-.3.2-.9.4-.9-.4-.6-.4-1.3-.2-2,0,0-.6-.5-.9-1-1.1-.1-.6-.6-.8-1-1-.3,0-.4-.3-.5-.4.4-.7,0-1.3,0-1.9,0-.9,0-1.7.5-2.4-.3-.4-.5-.3-.9-.4.2-.3.6-.3.7-.8-.2-.4-.4-.6-.7-.9.2-.6.6-.8,1-1.2-.2-.7,0-1.1.5-1.4.2-.5.1-.9.1-1.4.1-1,0-1.7-.5-2.4-.4.6-1,.3-.6-.2.2-.5.5-.7.8-1,0-1,0-1.8,0-2.6.2-.1.3-.3.2-.7,0,0-.1-.2-.4-.3-.3-.4-.2-.8-.2-1.3,0-.4,0-.7-.3-.9.1-.4,0-.6,0-.9-.2,0-.4,0-.5-.3,0-.1,0-.4.3-.6.3-.1.4-.3.3-.6,0,0-.3-.2-.1-.5-.1-.4-.3-.8.2-1.1,0-.7.2-1.2.4-1.9-.2-.6-.3-1.2,0-2-.5-.4-.9-.7-.7-1.4l-.6-.7c.3-.4.2-.9-.2-1.3-.3-.1-.3-.4-.2-.6.1-.1.3-.3.6-.3.1-.5.2-1,0-1.6-.6,0-1.2.4-1.1,1.3-.4.7-1.3.9-2.1.9-.4.3-.8.3-1.4.1-.5.4-.9.4-1.5.2-.5.4-.7.8-1.2,1-.4.2-.7.4-1.3.1-.3.5-.6.8-1,.7-.9-.5-1.8-.3-2.4.4-.4-.1-.6,0-.7-.2,0-.1,0-.3.2-.5,0-.4.1-.8.6-1.1-.2-.7-.3-1.4.4-1.8.2.3.4.4.5.4.3,0,.5,0,.6-.4.1-.5.5-.7,1-.9.5-.2.7-.4.9-1-.4-.5-.3-.7.4-.5.6-.3,1.1-.5,1.8-.6l1.4-1.3c.5-.1.8-.4,1-.9,0-.4,0-.7.2-.9.1-.3.4-.4,1-.3v-1.1c.8-.2,1.3-.6,1.3-1.2-.5-.2-.5-.5-.2-.7.3.6.6.5,1,.1.1-.4.3-.8.7-1,.3-.4.1-.8-.3-1.2.7-.6,1.1-1.3,1-2.1,0-.9.2-1.6.6-2.4.3-.6.9-.9,1.3-1.4.5,0,1.1-.2,1.6,0,.7.4,1.2.7,1.6,1.5.5,0,.7,0,.5.3-.5.3-.4.9-.2,1.4,0,.5-.1,1,.3,1.2.6,0,.6.4.5.8,0,.2-.2.4-.4.7-.5.6-.7,1.3-.8,2-.4.6-.3,1.2-.2,2-.4.4-.4.8,0,1.2-.1.5-.1.8,0,1.2-.4.6-.4,1.3,0,1.8,0,.5,0,.8-.4,1.2l.6,2.2c.2,1,0,2.1,0,3.1-.4.2-.4.4-.5.6,0,.2.1.4.4.6.6.4.7,1,.2,1.6.4.7.3,1.4.3,2.2,0,.6.1,1.2.8,1.5.3.3,0,.4-.4.4-.1.5,0,.9.1,1.4,1-.6,2-1.2,2.9-2,.2-.7.6-1.4,1.2-1.8.3-.4.4-.8-.1-1.2,0-.7.4-1.1,1-1.2.7,0,.9-.5,1.1-1,0-.5.2-1.1.8-1.1.6,0,1.2-.3,1.5-.9,0-.4.4-.2.6-.5.5,0,1-.4,1-.9.2-.8.8-1.3,1.4-1.7.2-.3.5-.3.8-.4.5,0,.9-.2.9-.4.1-.4,0-.8-.4-1.1.3-.4.5-.5.8-.8.5-.4.8-1,.5-1.8.4-.3,1-.4,1.2-1,0-.8.5-1.4.1-2.3.4-.4.7-.7,1.1-1.1v-1.6c.3-.5.5-1.1,0-1.7.3-.4.6-.7.8-1.3-.2-.2-.3-.3-.5-.5.5-.7,1.1-1.4,2-1.4-.3-.4-.4-.6-.3-.7,0-.2.3-.2.5-.2.2,0,.1.3.2.7.6,0,1.1,0,1.7,0l1.7,1.6c-.1.7,0,1.3,0,1.9.4.5.4,1,0,1.4.1.3.1.5.3.6,0,.2.3,0,.6.2-.6.5-1,1.2-.9,1.9.4.4.2.8.3,1.3v.7c0,0,.3.1.6.3-.1.6-.5,1-.7,1.5.3.4.4.9.3,1.5,0,.5.1.6.7.7-.4.2-.5.6-.3,1.1-.2.6.1.9.6,1.1-.1.5,0,.8.2,1,.4,0,.5.2.4.5,0,.2,0,.5-.4.7.2.7-.2,1-.7,1.2,0,1,.4,1.6,1,2.2-.1.6.3.9.7,1.2,0,.7-.2,1.2.2,1.7.2.6,0,1.3,0,2.1.6.4.8.8.8,1.4.4.2.8.7.3,1.1-.2.6,0,1.1,0,1.6.3.2.4.4.4.5,0,.2-.1.4-.6.4-.4,1-.3,2.1.5,3,.4,0,.7.3.8.5.1.3,0,.7-.2,1-.2,1.3-.1,2.5.8,3.4l2-.2c.7-.5,1.1-1.2,1.3-2,.3-.2.4-.3.5.1-.1.2-.3.3-.4.5.1.1.2.2.3.3.1.2.4,0,.6-.3.4-.2.4-.5.3-.9.3-.4.7-.6,1.2-.6l.7-.6c.3.2.4.3.5.3l.5-.2c.4-.3.7-.4,1.2-.3.4,0,.6-.1.9-.4.6-.7,1.3-1.1,2.1-1.2.4-.5.9-.7,1.6-.4.5-.1.9-.3,1-.8-.2-.5,0-.9.5-1,.7,0,1.2,0,1.9,0,.4,0,.8,0,1-.4.6-.3,1.1-.6,1.5-1.3.5,0,.9,0,1.4,0,.1-.7.6-1,1.3-.8.3-.2.5-.4.9-.4.1-.4.5-.2.7-.5.5,0,.9-.3,1.4-.7.4-.3.7-.7,1.2-.9.8,0,1.5-.2,1.9-.8.2-.1.3-.3.6-.3.4-.1.5-.5.8-.6.8,0,1.3-.4,1.7-1,.3.4.4.6.8.4.5-.5,1-.6,1.6-.8-.3-.8,0-1.2.4-1.6.4-.3.8-.3,1.3-.5,0-.4,0-.8.3-.3.3.4.6,0,.9-.2.1-.2,0-.5,0-.8.2-.4,0-.7,0-1.1.3-.4.5-.8.6-1.2.8-.1,1.5,0,2,.4.4-.3.8-.3.8-.8,0-.4.5-.6.7-.4,0,.5,0,.7.1.7.3.2.5,0,.8,0,.7,0,1.2-.2,1.8-.4,0-.5.2-.7.6-.7,1.1.2,2,0,3-.3.3.2.5.1.8.1.2,0,.2-.3.4-.6.6.4,1.2.5,1.7,0,.4,0,.8.1,1.4,0,.6,0,1.4,0,1.6-.7-.2-.8.7-.9.6,0,.3.3.6,0,.8-.4.8-.4,1.6-.5,2.4,0,.3-.2.6-.5.6,0,0,.6.5.7.8.8.3.4.6.2,1,.2-.2.3-.5.4-.4.7,0,.2.2.4.4.7-.2.6-.8.5-1,.8-.3.8-.8,1.2-.9,1.9,0,.5.2,1,0,1.4-.3.6-.4,1.2-.9,1.9-.2.3-.3.5-.4,1.1.7.4.8,1.2.3,2l.6.8c0,.4,0,.7-.4,1,0,.5.2.7.6.5.2-.2.4-.5.5-.3.3.1.2.3,0,.8.3.3.6.1.7.5-.4,0-.6,0-.7.2,0,.1-.1.4.2.5.2.2.4.4.6.4.2,0,.4-.1.6-.3l.9-.9c-.5-.2-.9-.2-.5-.5.2-.3.3-.3.7,0,0-.4.2-.7.7-1l-.7-.6c.3-.5.7-.6,1.1-.4.2-.7.8-.8,1.4-.9.7,0,1.5-.3,1.6-1.1-.1-.5.1-1,.9-.8.4-1.1,1.2-2.1,2.5-2.4.8-.2,1.3-.6,1.5-1.4l.7-1.2c.4-.7,1.1-1,1.4-1.7.3-.6,1-.8,1.2-1.5.3-.3.6-.7.5-1.4,1.1-.8,2.4-.9,3.7-.8.1.3.3.3.6.4,0,.8.1,1.6,0,2.6.5.5.5,1.3,0,1.7l-.6,1c.4.4.4.8,0,1.2,0,.4,0,.7.1.9.1.2.4.5.9.4.6.6,1.4.6,2.1.2.7,0,1.4-.2,1.6-.9.2-.6.7-1,1.3-1.1.4-.3.6-.7,1-1,.6.2.8-.3,1.2-.6.6.3.8,0,1.1-.3.2-.2.5-.5.8-.1.3.2.3-.2.5-.5.3-.4.4-.7.7-1,.1-.3.4-.3.7,0,.6.2,1.2.1,1.5-.5.6,0,1.1-.2,1.7-.4.7.2,1.3,0,1.8-.6.8.2,1.2-.1,1.9-.4.3,0,.4-.2.6-.2,0,0,.3,0,.5.2.6-.6,1.2-.9,1.9-.8.5.1.8,0,.8-.5.6-.7,1.3-1.4,2.2-1.7.1-.2.3-.3.5-.2,0,0,.2.2.3.3.2.2.4.3.6.2.1,0,.2-.2.2-.5.2,0,.3,0,.3.2,0,.7.2,1.3.1,2.2.2.4.5.5.7.8-.2.3-.3.4-.3.6.1.4,0,.8-.3,1,0,.1,0,.3,0,.5-.2,0-.2,0-.3-.3-.2-.1-.3,0-.5.1,0,0,.2.2.1.3-.4.7-1,1-1.6,1.5,0,.5,0,.7,0,.9,0,.2.3.3.5.3.2.4.4.9.7,1.1.4-.1.5.2,0,.3-.1.5-.2,1.1.2,1.3.3.4.6.6,1.2.5,0,.6,0,1.1.2,1.6.3,0,.4,0,.5.2,0,.2,0,.4-.2.5-.2.5,0,1.1.4,1.6.7,0,.9-.5,1.3-.7.7-.2.9-.8,1.2-1.3.2-.2.4-.3.6-.3.2-.5.6-.5,1-.8.5-.2,1.1-.1,1.5-.6l2.1-1.9c.2-.4.4-.6.9-.7.2,0,.4-.2.4-.2.2,0,.4,0,.6.3.3-.1.5-.4.8-.7-.2-.2-.3-.4-.3-.6,0-.2.2-.4.6-.5.6,0,1,0,1.5-.4.5.3,1,.3,1.5,0,.5.1.8,0,.6-.5-.4-.2-.4-.4-.2-.4.2,0,.4,0,.5-.2.2-.2.4-.3.4-.3.3,0,.4,0,.6.3.4-.4.8-.8,1.4-.7.3-.2.5-.3.9-.3,0-.5.4-.8.9-.9.2-.8.7-1.3,1.4-1.2.4-.3.8-.4,1.4-.5.8-.8,1.8-1.3,2.7-1.7.6-.2,1.1-.6,1.2-1.2.6-.2,1.1-.3,1.6,0,.3.4.8.6,1.3.8.6.2.7.7.8,1.2.2.2.1.4,0,.6v1.8c-.5.7-1.1,1-1.8,1.3,0,.3-.3.6-.7.5-.3,0-.4.2-.4.5,0,.3.1.5.4.8.4,0,.6.2.5.7.5.6,1,1.1,1.6,1.5.7,0,1,.4,1.5.6.8,0,1.4,0,2.2-.1.4.3.6.6.6,1,.4.1.8,0,1.1.2.5.3,1,.2,1.7.1.6.7,1.5,1.2,2.5.8.3,0,.6.4.9.7.8,0,1.5,0,2.4,0,.7.3,1.3.4,2.1.3.3,0,.5,0,.7.3.5-.2.9-.4,1.4-.1.4-.5,1-.6,1.4-.3.3.4.8,0,1.2.3.5.2,1,0,1.6-.2.5.2,1,.1,1.3-.2.3-.2.6,0,1,.3.7,0,1.1,0,1.7,0l1.2-.2c.7,0,1.3-.3,1.8-.8.2-.2.3-.2.5,0,.5,0,.9.2,1.2.7.5-.4,1.2-.5,1.8.2,1-.3,1.9-.6,3-.5l.4-.2c.4-.5,1-.5,1.4-.2.3.4.6.8,1.1,1.1.3,0,.4.1.5.1l.3-.4c.3-.2.6-.2.8,0,.2.1.3.4.3.8,0,.3,0,.6,0,.8.5,0,.9.4.7.9-.4,0-.7,0-.8.3,0,.2.1.5.3.7,0,.5-.1.8-.6.9l-1.3.5c-.5.2-1.1,0-1.7,0-.5,0-.8,0-1.2-.3-.4.1-.6-.1-.9-.4-.5.4-1,.4-1.5.4-1,0-1.9,0-2.8.1.1.5-.1.7-.3.3-.4-.1-.8,0-1.1.3-.7,0-1.3.2-1.9.6-.6-.4-.8-1-1.4-1.3-.4.3-.7.7-.9,1.2-.1,0-.3,0-.4,0-.1-.3-.2-.4-.3-.5,0,0-.3,0-.4.2-.5.1-1,.4-1.4.7-.7,0-1.2-.1-1.9,0-.4-.2-.7-.4-1.2-.4-.7,0-1.4,0-2,0-.4-.3-.8-.3-1.3-.2-.4-.3-.6-.7-1.2-.8-.4,0-.6,0-.8.2-.1,0-.2.3-.2.5-.2.1-.3.3-.3.3-.2,0-.3-.2-.3-.4-.6,0-.9-.5-1.4-.7-1-.4-1.9-.9-3.1-.6-.3-.5-.8-.8-1.5-.5-.3-.2-.4-.4-.6-.7-.5,0-1.1-.1-1.5-.6,0-.4-.3-.6-.5-.6-.2,0-.4.2-.6.4-.2.3-.3.4-.5.5-.2,0-.5,0-.9-.2-.6.2-1,0-1.3-.5h-1c-.2-.7-.6-1.2-1.2-1.2-.4.5-.8.3-1-.1-.2-.2-.4-.2-.6-.2,0,0-.2.2-.4.3-.4-.2-.6-.4-.6-.8.5-.3.6-.6.3-1,0-.1-.4-.2-.7-.4-.3-.2-.7,0-.8-.3-.3-.2-.3-.6-.3-.9-.1-.6-.5-1-1.3-1-.2-.5-.5-1-1.1-1-.5.2-1.1-.2-1.3.3-.1.4-.5.5-.9.6-.5.4-.8.7-1.2,1.2-.3,0-.5.2-.8.4-.4.2-.8.3-.9.6h0ZM154.3,172.3c-.4,0-.6-.3-.6-.6,0-.1.2-.3.4-.4.5,0,.7-.4,1.1-.8,0-.6,0-1.3.6-1.7.5,0,.4-.4,0-.4-.9,0-1.6.2-2.4,0,0-.5-.2-.7-.8-.6-.4-.5-1.1-.6-1.6,0l-1.1,1.1c0,.7,0,1.4.5,1.9,0,.4.2.8.3,1.2-.6,0-1,.1-1.2.7.6.1,1.1.3,1.6.6,0,.5.1.6.6.6.6-.2,1.2-.3,1.8-.3.5-.3.9-.7.7-1.3h0Z"/>
  <path class="st1" d="M165.2,110.4c.1-.2,0-.4,0-.6.1-.5.5-.8.5-1.5.4-.5.5-1,0-1.5.2-.5,0-.9-.5-.9-.1-.4-.2-.9-.1-1.6.3,0,.6-.2.6-.5,0-.2,0-.5-.4-.8.3-.3.4-.6.3-.9-.4-.4-.3-.9,0-1.4.4-.5.6-1,.4-1.7,0-.2,0-.4-.2-.5,0,0-.1,0-.3.1-.2-.6-.2-1.1,0-1.6.5-.5,0-1.1-.5-1.5.2-.5,0-.7-.3-1,0-.5.3-.8.4-1.2,0-.7.1-1.3-.5-1.7,0-.2,0-.5-.3-.5-.3-.1-.6,0-.6.5-.3,0-.5.2-.8.4-.7-.2-1.1.3-1.5.6l-1.6,1.3c-.4-.4-.6-.9-1.3-.9-.2.3-.1.6,0,.9-.4.3-.9.3-1.5.6-.5.2-.8.4-1,.8-.3-.4-.5-.5-.8-.3-.3.1-.3.5,0,.8-.2.3-.3.3-.5.3-.3,0-.3-.3-.5-.5-.8-.1-1.4.3-1.6,1.1l-1.9.2c-.2.2-.3.5-.3.7,0,.2,0,.4.5.6,0,.2-.3.3-.5.2-.1,0-.2-.3-.5-.4-.3,0-.3-.3-.3-.4-.1-.2-.4,0-.6.2,0,.3-.2.5-.5.8-.3.4,0,.6.5.4.2.3.1.6,0,.9-.1.3-.4.5-.7.5,0,1-.3,1.8-1,2.5,0,.4-.3.5-.2.8l1.3,1.6c0,.6-.3.8-.7,1.2-.2,0-.4,0-.5.2,0,0,0,.3.1.3.2,0,.3,0,.5-.2.3.3.3.7,0,1,0,.3.2.5.4.7.2.2.2.4.2.6,0,.2-.3.3-.5.3,0,.3-.4.4-.4.8l-.6.9c0,.2-.2.3-.2.5,0,.1.1.2.3.5-.6.7-.4,1.6.3,2,0,.6,0,.9-.1,1.2-.3.2-.4.4-.5.5-.1.3,0,.5.3.8-.1.5,0,.6.4,1-.4.4-.4.8,0,1.2,0,.5,0,1,.2,1.3.3.9.1,1.7-.2,2.6v2.5c-.3.3-.4.7-.3,1.2-.4.6-.4,1.1-.5,1.9.5.4.6.8.5,1.3,0,.3-.4.5-.8.9l.9,1.1c-.5.2-.9.4-1,1,.3.5.8.8,1.2,1.4-.6.6-1.1,1.2-1.1,2.1.2.3-.1.4-.3,0-.4,0-.9,0-1.2.2-.3.1-.7.1-1.1,0-.2-.3-.4-.1-.5,0-.4-.5-.8-.6-1.4-.5-.3-.4,0-.9-.4-1.3,0-.3-.2-.5-.4-.8-.2-.5-.5-.7-.7-1.2.4-.4.4-.8,0-1.1.4-.4.1-.7,0-1,.3-.4.4-.8,0-1.1-.3-.4-.5-.7-1-.6-.2-.5,0-.8.6-.9.6-.4,1.1-.9,1.6-1.5,0-.7,0-1.2,0-1.7.5-.4.3-1,0-1.5-.1-.4,0-.8-.2-1.3-.2.2-.4.4-.8.4,0-.5.2-.8.4-1.2.2-.8.2-1.6,0-2.4.3-.6.4-1.1.5-1.7.4-.2.3-.8,0-.8-.5.2-.5-.6-.2-.9,0-.3.2-.7.9-.4.4-.4.3-1-.1-1.3-.3-.2-.6-.4-.6-.8,0-.3,0-.7.4-1-.1-.5.2-.6.3-1,.4-.5.3-.6-.4-.7.4-.3.8-.7.6-1.4.1-.8,0-1.6.2-2.4l-.4-2.8c.3-.4.5-.6.8-.9.4,0,.5-.2.5-.4,0-.2-.2-.6-.6-.3-.2,0-.3-.4-.2-.7,0-.4-.1-.6-.5-.6-.3-.4-.9-.3-1.2,0-.7-.1-1.2.1-1.8.3-.5,0-.8.6-1.2,1-.7-.2-1.3,0-1.7.5-.2,0-.3-.2-.3-.2-.2,0-.3,0-.5.2-.2.5-.5.8-.9,1.2-.7.1-1.5,0-2.3,0-.5,0-1.1.1-1.2.7-.4.6-1.1.9-1.8,1-.6-.2-1-.2-1.5-.1-.3.4-.7.6-.8,1.1-.3,0-.4.2-.5.3v.8c-.4-.5-.8-.9-1.5-.6,0,.4,0,.7-.3,1,0,.1-.3.1-.8.2,0-.2.2-.3.3-.8-.5-.5-1.1-.3-1.5.3-.2.3-.5.5-.8.6-.6.6-1.3.8-2,.8-.3.3-.6.2-1,.3-.6-.1-1.2,0-1.6.5l-2,.7c-.6.5-1.3.7-2.1.5-.7-.6-1.6-.8-2.5-.6-.5,0-.7-.5-1.2-.6-.7-.4-1-.9-1.4-1.3.3-.4.3-.6.2-1.1,0-.2.3-.2.3-.5,0-.6.3-1,.9-.9.6-.5,1.2-.6,1.9-.9.5-.2,1,0,1.5-.3.9-.2,1.7-.6,2.3-1.3.6,0,1-.2,1.4-.5.6,0,1.1-.3,1.7-.8.6.2,1-.2,1.6-.3.9-.4,1.7-.7,2.6-.7.3-.3.8-.3,1.1,0,.5,0,.6-.5.9-.9.6-.2.9-.3,1.3-.6,0-.3.3-.3.4-.4.2,0,.3,0,.4.3.1.2.3.3.5.3.2,0,.4-.1.5-.3.1-.4.5-.6,1-.8.4.3.8,0,1.1-.4.9.3,1.3-.2,1.5-1,.4-.3.4,0,.4.5.5-.3.8-.3,1.4-.4.2-.4.4-.6.8-.8.3.3.5.5.8.4.1,0,.3-.2.5-.5.3-.5.6-.8,1.1-1.1h2.2c.3.5.8.5,1.2.2.5-.4,1.1-.5,1.7-.4.8,0,1.4-.1,1.9-.7,0-.6.3-.8.8-1,0-.5,0-.9.8-1.3.3.3.4.5.9.5.5-.4.9-.5,1.5-.3,0-.3-.3-.3-.4-.5.5-.3.8-.2,1.3,0,.7,0,1.2-.2,1.5-.9.4.2.5.4.5.3.5.3.7,0,1-.2.3-.3.5-.6,1-.8.3-.5.7-.9,1.2-.7.4.7,1.1.8,1.6.4-.4-.5-.2-.9.3-.5.8.2,1.5.2,2.3-.1.2-.5.3-.8.7-.9.4.4.9.2,1.4,0,.7,0,1-.7.9-1.4.1-.3.5-.3.6,0-.4.2-.3.4-.4.9.3.4.9.3,1.3-.2.4-.2.8-.4,1-.6-.4-.3-.5-.5-.3-.9,0-.6.4-.6.5,0,0,.4,0,.7.2.7.5-.5.9-.7.9-1.2.1-.7.8-.9,1.4-1-.2-.9.2-1.4.9-1.4.3-.6.9-.7,1.5-.9.4.8.9,1.4,1.8,1.7-.5.6-.4,1.1,0,1.6.4.6.4,1.2,0,1.9.4.4.6.5.7.7,0,.4,0,.7-.4.9-.5.8,0,1.5.2,2.3.3.5.5,1,0,1.5,0,.4.1.6.3.9-.2.8,0,1.4.2,2-.5.4-.4,1,.1,1.3,0,.4.3.7.6,1v2.3c.4.5.3,1.1,0,1.6,0,.6,0,1,0,1.6.4,0,.6,0,.8.2.2.1,0,.5-.4.7l-.3-.6c-.4-.3-.6.1-.6.4-.1.2,0,.4,0,.4.3,0,.4-.1.8-.2.4.5.7.6,1.1.7.3.3.7.2,1.1,0,.2-.1.5,0,.7,0,0,.5.4.9,1.2.8.3.5.6.9,1.2,1.1.5.1.8.4,1,.9-.1.2-.4.1-.7.2,0,.7.4,1.2,1.1,1.3,0,.7.3,1.2.7,1.7.3.5.7.8.5,1.5.4.4.8.9.6,1.6.4.2.8.3,1,.8.1.3.4.5.6.9-.2.3-.4.4-.3.4,0,.4.2.8.6.6l.8.4c.2.3.3,0,.6-.2,0,.5,0,.7.3.9.2.2.6,0,.9-.2.5,0,.9-.3,1.3-.6-.2-.7,0-1.2.5-1.6.6.3,1,.6,1.5,1.2l1.4-1.3c.2-.2.4-.3.7-.5.4,0,.7-.2.8-.4.1-.3,0-.7-.4-.9,0-.4,0-.8-.3-1.1.2-1.1,0-2.1-.6-3.1-.6-.1-.2-.6,0-.9-.2-.6,0-1,0-1.6-.3-.7-.3-1.2,0-1.8,0-.4.3-.6.8-.5l.8-.7c.3.3.5.5.7.4.3,0,.5-.1.7-.4.4-.4.9-.2,1.3.3.6-.2,1.1-.3,1.4.2.4.2.6-.2,1-.5.4.2.3.6.6.7.4,0,.2.4.5.6.1.2,0,.4.3.5.2,0,.3,0,.5-.2.4,0,.6.4.7.8.5.5.2,1.1-.2,1.6,0,.6-.2,1.2.2,1.7l.2,2.5c.5.3.7.7.5,1.2l-1,1.1c.2.3.3.6.1,1.1-.2.8.2,1.5.9,1.8,0,.5.4.5.8,0,0,.5.3.9.9,1,.4.5.9,1,1.6,1.2.9.5,1.7,1,2.7,1.3.5-.2.9,0,1.2.2.5-.2.8,0,1.2.3.5.6,1.2,1,2.1,1,.4.2.8.4,1,0,.2,0,.5,0,.8,0,.3,0,.4-.3.6,0,.3.1.1.3,0,.6.4.5.9.4,1.2-.1h2.5c.4-.3.8-.3,1.2,0,.3-.1.5-.2.8,0,0,0,.2.3,0,.7.4.4,1,.2,1.5,0,.3.1.3.3.3.6.5.1.9.1,1.5,0,.4.3.9.4,1.3.1.4-.1.9,0,1.5,0,.2.1.3.3.4.3.3.1.5,0,.8-.3.3.4.5.4.9.5.9,0,1.8-.2,2.6,0,.2.4.8.4.7-.3.3-.4.8-.2.5.4.1.3.3.4.7.3,0,0,0,0,.4-.3,0,.5.5.5.8.8.5.2,1,.4,1,1,.6.8.3,1.9-.6,2.4-.5,0-.8.2-1,.6-.7,0-1.5.1-2.2,0-.4-.5-.9-.2-1.3.1-.5-.1-.9-.3-1.2.2h-1.2c-.5-.4-1.1-.3-1.6,0-.5,0-.8,0-1.2,0-.3-.3-.6-.2-.8,0-.7-.5-1.4-.6-2.2-.5-.6,0-1.1,0-1.5-.5-.5-.2-1.1-.5-1.3.2-.2.4-.7.2-1.2.4-.4,0-.7-.1-.4-.5,0-.3-.3-.4-.3-.5-.4-.1-.7,0-1,.3-.7,0-1.2-.1-1.9,0-.4-.5-.8-.8-1.5-.6-.4,0-.7,0-1.1-.2-.1-.4-.3-.6-.6-.5-.3,0-.6.1-.6.7-.2.5-.6.5-1.1.3-.2-.4-.4-.8-.9-.8-.6-.1-1.1-.4-1.4-.8.3-.2.3-.4.2-.6,0-.2-.3-.4-.7-.4-.4-.4-.8-.1-1.1.3-.4-.2-.6-.5-.9-.7-.2-.2-.3-.2-.5-.2-.2,0-.2.2-.6.3-.2-.4-.3-.8-.7-1-.3.5-1.1.4-.5,0-.2-.6-.9-.9-1.6-1.1-.8,0-1.4-.5-1.5-1.4-1-.3-1.5-.9-2-1.5.2-.2.2-.4,0-.5-.2-.2-.4-.3-.5-.6-.2-.5-.8-.4-1.1,0-.7.3-1.3.5-1.8,1.2-.8.2-1.5.5-1.7,1.3-.5.3-1.1.5-1.8.6-.5.6-1.2.6-1.9.4-.6.2-.9.6-1.3,1.1-.4-.1-.6-.4-.9-.6-.7,0-1.3,0-2.2,0-.2-.6-.7-1-1.5-.9-.2-.3-.5-.5-.9-.6-.5,0-.7-.4-1.1-.7-.5,0-.6-.4-1-.6-.4.3-.5.5-.8.4-.3,0-.4,0-.7-.4.2-.2,0-.5,0-.9-.5-.3-1-.5-1.3-1.1,0-.5.3-.8.4-1.2-.4-.4-.7-.8-1.3-1-.4-.4-.6-1.1-.5-1.8,0-.5-.5-.7-1-.6-.3,0-.5,0-.5.2-.1.3.1.5.7.6-.3.6-.7,1.2-1.3,1.7-.1.3-.2.7.2,1,.1.7,0,1.3.1,2.1-.2.3-.5.6-.2.9.2.3,0,.7.2,1.1.5.8.2,1.6-.6,2.1-.2.5-.2.9.2,1.3-.1.8-.1,1.4-.1,2.1,0,.4-.1.5-.6.6,0,.8,0,1.5,0,2.2-.4.2-.8.3-1.2.7-.5,0-1-.2-1.7,0-.4-.2-.6-.5-.6-.9-.3-.3-.6-.6-1.1-.7-.3-.4-.6-.6-1-.4-.4-.3-.4-.6-.4-.9,0-.3.2-.6.7-.9,0-.2-.2-.4-.1-.7.4,0,.6-.2.7-.4.3-.4.3-.7,0-1.3-.6,0-.8,0-.4-.5.3-.2.5-.4.5-.5.2-.5,0-.8-.3-1.1,0-.5-.2-1,.3-1.2.4-.1.3-.6.4-1-.2-.3-.4-.6-.3-.8.2-.5.1-1.1.4-1.5-.5-.8,0-1.5-.2-2.2,0-.5-.1-.8-.4-1.3-.2-.3-.6-.3-.7-.5-.1-.3,0-.6,0-1,.3-.2.4-.5.3-.9-.3-.3-.5-.7-.1-1.2h0Z"/>
  <path class="st1" d="M302.9,169.4c-.3.4-.8.4-1,.8h-2c-.3.2-.5.4-.6.2-.3-.1-.4-.3-.2-.8-.8-.6-1-1.3-.7-2.3.3-.6.8-.9,1.3-1.4l1.4-.2c.1-.6.4-.9,1-.8l1-.5c.5.4,1.3.7,2,.8.3.5.4.9,0,1.3-.2.3,0,.8-.4,1.1-.4,0-.6,0-.7.2,0,.2-.2.5,0,.7.3,0,.4.2.4.2,0,.3-.2.3-.4.4-.1.4-.4.4-.4,0,0-.4-.3-.4-.5-.3-.1,0-.4.1-.4.6h0Z"/>
</svg>