<?xml version="1.0" encoding="UTF-8"?>
<svg id="Layer_1" data-name="Layer 1" xmlns="http://www.w3.org/2000/svg" viewBox="0 0 370.19 329.05">
  <defs>
    <style>
      .cls-1 {
        fill: #121418;
      }

      .cls-2 {
        fill: #f7f3ef;
      }
    </style>
  </defs>
  <polygon class="cls-2" points="102.83 205.66 61.7 205.66 61.7 246.79 61.7 287.92 61.7 329.05 102.83 329.05 143.96 329.05 143.96 287.92 143.96 246.79 143.96 205.66 102.83 205.66"/>
  <path class="cls-1" d="M329.05,123.4v-41.13h-20.57V0h-41.13v41.13H61.7v41.13h-20.57v41.13H0v41.13h20.57v164.53h41.13s41.13,0,41.13,0h41.13s41.13,0,41.13,0h164.53v-164.53h20.57v-41.13h-41.13ZM131.62,246.79v69.92h-57.57v-98.7h57.57v28.79Z"/>
  <circle class="cls-1" cx="93.47" cy="268.67" r="13.79"/>
</svg>